<?xml version="1.0" encoding="UTF-8"?>
<svg width="22px" height="22px" viewBox="0 0 22 22" version="1.1" xmlns="http://www.w3.org/2000/svg" xmlns:xlink="http://www.w3.org/1999/xlink">
    <title>Icons/comments_b40</title>
    <defs>
        <filter color-interpolation-filters="auto" id="filter-1">
            <feColorMatrix in="SourceGraphic" type="matrix" values="0 0 0 0 0.583163 0 0 0 0 0.550680 0 0 0 0 0.545260 0 0 0 1.000000 0"></feColorMatrix>
        </filter>
        <filter color-interpolation-filters="auto" id="filter-2">
            <feColorMatrix in="SourceGraphic" type="matrix" values="0 0 0 0 0.583163 0 0 0 0 0.550680 0 0 0 0 0.545260 0 0 0 1.000000 0"></feColorMatrix>
        </filter>
        <path d="M14,0 C15.1045695,-1.18396092e-15 16,0.8954305 16,2 L16,9.375 C16,10.4795695 15.1045695,11.375 14,11.375 L7.333,11.375 L2.66666667,14 L3.842,11.375 L2,11.375 C0.8954305,11.375 1.3527075e-16,10.4795695 0,9.375 L0,2 C-1.3527075e-16,0.8954305 0.8954305,6.46995335e-16 2,0 L14,0 Z" id="path-3"></path>
    </defs>
    <g id="Design" stroke="none" stroke-width="1" fill="none" fill-rule="evenodd">
        <g id="Desktop-Rubrica" transform="translate(-855.000000, -581.000000)">
            <g id="Rubrica" transform="translate(165.000000, 570.000000)">
                <g id="Date" transform="translate(1.000000, 0.000000)">
                    <g id="Icons/comments_b40" transform="translate(688.000000, 10.000000)" filter="url(#filter-1)">
                        <g>
                            <path d="M15,1.75 C15.8974627,1.75 16.7099627,2.11376864 17.298097,2.70190296 C17.8862314,3.29003728 18.25,4.10253728 18.25,5 L18.25,5 L18.25,10 C18.25,10.8974627 17.8862314,11.7099627 17.298097,12.298097 C16.7099627,12.8862314 15.8974627,13.25 15,13.25 L15,13.25 L9.05082667,13.25 L5.60419745,15.2195024 L6.53974135,13.096483 C4.98850848,13.480026 3.6285224,13.1180321 2.75503085,12.3096179 C2.12137202,11.7231683 1.75,10.9048086 1.75,10 L1.75,10 L1.75,5 C1.75,4.10253728 2.11376864,3.29003728 2.70190296,2.70190296 C3.29003728,2.11376864 4.10253728,1.75 5,1.75 L5,1.75 L15,1.75 Z" id="Combined-Shape" stroke="#000000" stroke-width="1.5"></path>
                            <g filter="url(#filter-2)" id="Path-8">
                                <g transform="translate(7.000000, 9.000000)">
                                    <mask id="mask-4" fill="white">
                                        <use xlink:href="#path-3"></use>
                                    </mask>
                                    <g id="Mask" transform="translate(8.000000, 7.000000) scale(-1, 1) translate(-8.000000, -7.000000) "></g>
                                    <path d="M-1,8.34369603 L3,5.97567643 L8.4,5.97567643 C11.1614237,5.97567643 13.4,3.73710018 13.4,0.975676426 L13.4,-1 L13.4,-1 L17,-1 L17,15 L12.40615,15 L-1,15 L-1,8.34369603 Z" fill="#D8D8D8" mask="url(#mask-4)"></path>
                                </g>
                            </g>
                        </g>
                    </g>
                </g>
            </g>
        </g>
    </g>
</svg>