<svg xmlns="http://www.w3.org/2000/svg" xmlns:xlink="http://www.w3.org/1999/xlink" width="183" height="50.11" viewBox="0 0 183 50.11">
  <defs>
    <clipPath id="clip-path">
      <rect id="SVGID" width="47" height="39.539" fill="none"/>
    </clipPath>
  </defs>
  <g id="Group_24" data-name="Group 24" transform="translate(-86 -133)">
    <g id="Group_23" data-name="Group 23" transform="translate(197.575 -14.449)">
      <g id="Group_18" data-name="Group 18" transform="translate(-110.575 147.449)">
        <g id="Group_17" data-name="Group 17" clip-path="url(#clip-path)">
          <path id="Path_40" data-name="Path 40" d="M-63.635,167.287c0,10.847-10.463,19.639-23.369,19.639s-23.37-8.793-23.37-19.639S-99.912,147.648-87,147.648s23.369,8.793,23.369,19.639" transform="translate(110.506 -147.518)" fill="#fff"/>
        </g>
      </g>
      <g id="Group_20" data-name="Group 20" transform="translate(-110.575 147.45)">
        <g id="Group_19" data-name="Group 19" transform="translate(0 0)" clip-path="url(#clip-path)">
          <path id="Path_41" data-name="Path 41" d="M-63.635,167.287c0,10.847-10.463,19.639-23.369,19.639s-23.37-8.793-23.37-19.639S-99.912,147.648-87,147.648-63.635,156.441-63.635,167.287Z" transform="translate(110.506 -147.519)" fill="none" stroke="#001543" stroke-width="0.399"/>
          <path id="Path_42" data-name="Path 42" d="M-99.4,190.521l-5.369,2.14c.794,1.107,6.062,8.959,19.709,9.152a24.346,24.346,0,0,0,19.54-8.862l-5.49-2.14S-75.7,196.3-85.036,196.3s-13.81-5.225-14.362-5.777" transform="translate(108.558 -162.405)" fill="#001543"/>
        </g>
      </g>
      <g id="Group_22" data-name="Group 22" transform="translate(-110.575 147.449)">
        <g id="Group_21" data-name="Group 21" clip-path="url(#clip-path)">
          <path id="Path_43" data-name="Path 43" d="M-87.777,186.055l.109.193-.315.416-.009.069.292.4-.037.309-.1.326.026.249.024.227-4.389,2.835s-3.373-2.483-3.218-2.639,7.619-2.38,7.619-2.38" transform="translate(105.306 -160.854)" fill="#001543"/>
          <path id="Path_44" data-name="Path 44" d="M-87.777,186.055l.109.193-.315.416-.009.069.292.4-.037.309-.1.326.026.249.024.227-4.389,2.835s-3.373-2.483-3.218-2.639S-87.777,186.055-87.777,186.055Z" transform="translate(105.306 -160.854)" fill="none" stroke="#001543" stroke-width="0.16"/>
          <path id="Path_45" data-name="Path 45" d="M-85.327,190.929l.3.346.127.275-.077.343.1.715.235.618.046.415-.249.133-.163.157.178.24.08.368-.2.2-.152.133a27.213,27.213,0,0,1-3.227-1.43c0-.166,3.009-2.517,3.009-2.517" transform="translate(102.853 -162.546)" fill="#001543"/>
          <path id="Path_46" data-name="Path 46" d="M-85.327,190.929l.3.346.127.275-.077.343.1.715.235.618.046.415-.249.133-.163.157.178.24.08.368-.2.2-.152.133a27.213,27.213,0,0,1-3.227-1.43C-88.336,193.28-85.327,190.929-85.327,190.929Z" transform="translate(102.853 -162.546)" fill="none" stroke="#001543" stroke-width="0.16"/>
          <path id="Path_47" data-name="Path 47" d="M-77.02,185.715l-.22,1.422-.013.735-.151.832-.038.683-.548.768-.36.59.118.609.086.649-.615.162-.112.029-.44,1.185-.07.1s5.423.829,6.76-.149-.222-.649-.222-.649l-.361.319-.48-.2-.432-.222.042-.455.191-.413.082-.336-.153-.031-.54.18-.182.181-.388-.091-.03-.3-.15-.21-.086-.493-.064-.257.407-1.059-.108-.23-.18-.149-.112-.433-.3-1.246-.163-1.121-.02-.576H-77Z" transform="translate(99.744 -160.676)" fill="#001543"/>
          <path id="Path_48" data-name="Path 48" d="M-77.02,185.715l-.22,1.422-.013.735-.151.832-.038.683-.548.768-.36.59.118.609.086.649-.615.162-.112.029-.44,1.185-.07.1s5.423.829,6.76-.149-.222-.649-.222-.649l-.361.319-.48-.2-.432-.222.042-.455.191-.413.082-.336-.153-.031-.54.18-.182.181-.388-.091-.03-.3-.15-.21-.086-.493-.064-.257.407-1.059-.108-.23-.18-.149-.112-.433-.3-1.246-.163-1.121-.02-.576H-77Z" transform="translate(99.744 -160.676)" fill="none" stroke="#001543" stroke-width="0.16"/>
          <path id="Path_49" data-name="Path 49" d="M-67.111,196.171s.491-.07.529.06a.207.207,0,0,0,.2.131l.291.093.055.012a.38.38,0,0,1-.038.049c-.02.019-.361.109-.361.109l-.29.044-.181-.027Z" transform="translate(95.483 -164.36)" fill="#002350"/>
          <path id="Path_50" data-name="Path 50" d="M-67.111,196.171s.491-.07.529.06a.207.207,0,0,0,.2.131l.291.093.055.012a.38.38,0,0,1-.038.049c-.02.019-.361.109-.361.109l-.29.044-.181-.027Z" transform="translate(95.483 -164.36)" fill="none" stroke="#001543" stroke-width="0.16"/>
          <path id="Path_51" data-name="Path 51" d="M-66,190.792l.029.514.26.8.014.574.16.593-.07.282-.289.114-.026.1s-.174.334.7.688a8.188,8.188,0,0,0,2.211-.873l-2.925-2.735Z" transform="translate(95.097 -162.499)" fill="#001543"/>
          <path id="Path_52" data-name="Path 52" d="M-66,190.792l.029.514.26.8.014.574.16.593-.07.282-.289.114-.026.1s-.174.334.7.688a8.188,8.188,0,0,0,2.211-.873l-2.925-2.735Z" transform="translate(95.097 -162.499)" fill="none" stroke="#001543" stroke-width="0.16"/>
          <path id="Path_53" data-name="Path 53" d="M-64.916,186.836l-.2.287-.055.212.068.21.046.212.065.195-.033.165-.108.189-.156.111-.147.079-.16.14,3.934,2.988s3.151-2.251,3.151-2.407-6.36-2.452-6.36-2.452Z" transform="translate(94.957 -161.1)" fill="#001543"/>
          <path id="Path_54" data-name="Path 54" d="M-64.916,186.836l-.2.287-.055.212.068.21.046.212.065.195-.033.165-.108.189-.156.111-.147.079-.16.14,3.934,2.988s3.151-2.251,3.151-2.407-6.36-2.452-6.36-2.452Z" transform="translate(94.957 -161.1)" fill="none" stroke="#001543" stroke-width="0.16"/>
          <path id="Path_55" data-name="Path 55" d="M-85.009,195.452a12.288,12.288,0,0,0,5.9,1.145c3.987,0-1.309-2.794-1.309-2.794s.53,1.091.08,1.131a1.877,1.877,0,0,1-1.05-.28c-.094-.094-.238-.015-.238-.015s.148,1.176.285,1.176c.039,0-.1.544-1.185-.069-.261-.148-.065-.486-.105-.442a1.088,1.088,0,0,1-1.045-.136c-.178-.24-1.332.283-1.332.283" transform="translate(101.698 -163.544)" fill="#001543"/>
          <path id="Path_56" data-name="Path 56" d="M-85.009,195.452a12.288,12.288,0,0,0,5.9,1.145c3.987,0-1.309-2.794-1.309-2.794s.53,1.091.08,1.131a1.877,1.877,0,0,1-1.05-.28c-.094-.094-.238-.015-.238-.015s.148,1.176.285,1.176c.039,0-.1.544-1.185-.069-.261-.148-.065-.486-.105-.442a1.088,1.088,0,0,1-1.045-.136C-83.855,194.93-85.009,195.452-85.009,195.452Z" transform="translate(101.698 -163.544)" fill="none" stroke="#001543" stroke-width="0.16"/>
          <path id="Path_57" data-name="Path 57" d="M-73.217,197.043a25.216,25.216,0,0,0,5.514-.977c.18-.069-1.408-.333-1.652-.433-.264-.109-.236-.687-.012-.687s-1.219.129-1.219-.069c0-.121-.216.43-.17.6.063.232.058.658,0,.658s-.691.087-.787-.093-1.672,1-1.672,1" transform="translate(97.603 -163.911)" fill="#001543"/>
          <path id="Path_58" data-name="Path 58" d="M-73.217,197.043a25.216,25.216,0,0,0,5.514-.977c.18-.069-1.408-.333-1.652-.433-.264-.109-.236-.687-.012-.687s-1.219.129-1.219-.069c0-.121-.216.43-.17.6.063.232.058.658,0,.658s-.691.087-.787-.093S-73.217,197.043-73.217,197.043Z" transform="translate(97.603 -163.911)" fill="none" stroke="#001543" stroke-width="0.16"/>
          <path id="Path_59" data-name="Path 59" d="M-96.542,190.521l.29.29A19.508,19.508,0,0,0-82.2,196.35a19.509,19.509,0,0,0,14.05-5.539" transform="translate(105.702 -162.405)" fill="none" stroke="#002350" stroke-width="0.16"/>
          <path id="Path_60" data-name="Path 60" d="M-70,190.361l-6.08.029m-4.74.022-2.779.013m-3.761.018-6.059.028M-69,188.811l-7.393.027m-4.68.017-2,.007m-4.71.018-7.759.028m24.654-1.272-4.577.017m-5.724.021-1.778.007m-4.777.018-5.651.02m19-1.148-.885,0m-6.042.02-1.475.005m-4.952.016-2.612.008m17.618,5.595-3.55.011m-.888,0-1.256,0m-1.044,0-4.378.013m-3.329.01-3.449.01" transform="translate(105.355 -161.033)" fill="none" stroke="#fff" stroke-width="0.319"/>
          <path id="Path_61" data-name="Path 61" d="M-86.208,166.262q.056.4.112.806a.7.7,0,0,0,.259.53c.461.48.036.78-.331,1.14-.174.17-.166.187-.151.438a2.707,2.707,0,0,0,.308.71,2.956,2.956,0,0,0,.25.556,1.293,1.293,0,0,1,.343.668,1.922,1.922,0,0,1-.007.733c-.025.121-.051.42-.21.437a.706.706,0,0,1-.832-.379c-.144-.31-.025-.654-.132-.951l-.324-.9a2.838,2.838,0,0,1,.2-1.507c.059-.2.018-.406.078-.608a7.208,7.208,0,0,0,.281-.737c.066-.384-.082-.568.284-.888.076-.066-.025-.185-.1-.119a.8.8,0,0,0-.337.676,1.322,1.322,0,0,1-.161.677,2.062,2.062,0,0,0-.163.725,3.53,3.53,0,0,1-.223.89,2.014,2.014,0,0,0,.1,1.223,3,3,0,0,1,.23.689,1.864,1.864,0,0,0,.257,1.127.815.815,0,0,0,.74.251c.263-.022.319-.047.4-.31a1.73,1.73,0,0,0,.129-.638c-.024-.186.005-.56-.106-.712a7.165,7.165,0,0,1-.758-1.436.8.8,0,0,1-.093-.238c-.011-.186-.042-.116.1-.256a2.494,2.494,0,0,0,.485-.482.692.692,0,0,0-.136-.878.68.68,0,0,1-.236-.54q-.051-.361-.1-.723c-.014-.1-.168-.072-.154.027" transform="translate(102.432 -153.949)" fill="#001543"/>
          <path id="Path_62" data-name="Path 62" d="M-86.2,175.421l.09.068-.029-.091c-.049.116-.131.223-.083.345l.209.537c.037.1.283.178.373.191.125.017.319-.114.438-.155a.078.078,0,0,0,.044-.084c-.012-.128-.093-.215-.093-.342a2.514,2.514,0,0,1,.032-.336c.015-.1-.141-.114-.155-.015a2.688,2.688,0,0,0-.032.376c0,.133.082.217.094.344l.044-.084a1.573,1.573,0,0,0-.374.152c.015-.01-.165-.089-.2-.106l-.065-.033c.05.025.042.046.022-.007l-.178-.456c-.008-.022-.017-.044-.026-.067-.023-.061-.02.064,0,.01l.092-.215a.078.078,0,0,0-.029-.091l-.09-.068c-.08-.061-.17.067-.089.128" transform="translate(102.124 -157.112)" fill="#001543"/>
          <path id="Path_63" data-name="Path 63" d="M-85.141,171.794c.187-.02.375.012.494-.142l.509-.658-.123.006a5.127,5.127,0,0,1,.561.821,4.431,4.431,0,0,1,.21.465c.053.161.07.046-.018.134a.52.52,0,0,0-.115.131c-.177.377-.362.746-.544,1.118-.149.3-.407.8-.761.841-.1.013-.072.167.027.154a.55.55,0,0,0,.51-.369c.025-.086.157-.174.221-.238a.847.847,0,0,0,.121-.272c.09-.22.219-.43.321-.646a2.191,2.191,0,0,1,.407-.686.085.085,0,0,0,.02-.093,4.567,4.567,0,0,0-.151-.5c-.057-.116-.118-.131-.17-.245a4.686,4.686,0,0,0-.52-.716.079.079,0,0,0-.123.006l-.43.557c-.153.2-.183.148-.472.179-.1.011-.072.165.027.154" transform="translate(101.775 -155.582)" fill="#001543"/>
          <path id="Path_64" data-name="Path 64" d="M-83.644,170.661c0-.3,0-.46.3-.571.216-.079.157.422.168.591a.927.927,0,0,0,.244.59.921.921,0,0,1,.251.493.457.457,0,0,0,.136.2c.3.334.819.791,1.318.519.179-.1.349-.379.542-.37a1.988,1.988,0,0,0,.577.008.078.078,0,0,0-.027-.154c-.238.047-.481-.071-.7.042-.176.09-.371.307-.539.358a.792.792,0,0,1-.693-.164c-.172-.148-.459-.341-.452-.588.005-.187-.1-.253-.238-.383a1.608,1.608,0,0,1-.3-1.155.078.078,0,0,0-.05-.059c-.513-.206-.695.168-.689.629,0,.1.157.116.155.014" transform="translate(101.278 -155.265)" fill="#001543"/>
          <path id="Path_65" data-name="Path 65" d="M-81.814,167.978a4.457,4.457,0,0,1-.162.45,1.964,1.964,0,0,0,0,.546c0,.068-.013.028.022,0l-.126.086-.165.113c-.065.044-.018.02-.042.023a4.832,4.832,0,0,1-.58.065c-.1,0-.115.155-.014.155a4.783,4.783,0,0,0,.594-.063c.161-.021.31-.176.44-.266.1-.066.02-.486.018-.591a.506.506,0,0,1,.1-.266.591.591,0,0,0,.072-.242c.018-.1-.137-.113-.155-.015" transform="translate(100.983 -154.554)" fill="#001543"/>
          <path id="Path_66" data-name="Path 66" d="M-82.363,168.821c.036-.244.027-.558.189-.712.027-.026.055-.054.082-.082.08-.08.093-.092.057-.1a.09.09,0,0,0,.089-.057c.113-.261-.087-.591.137-.815.164-.165.3-.283.279-.539-.009-.1-.163-.072-.154.027.025.282-.23.284-.315.491a.633.633,0,0,0-.084.234c.007.147.012.29.007.437s-.038.038.074.071a.078.078,0,0,0-.078.014c-.077.077-.318.243-.336.354-.036.219-.071.437-.1.657-.015.1.141.114.155.015" transform="translate(100.834 -154.05)" fill="#001543"/>
          <path id="Path_67" data-name="Path 67" d="M-80.974,166.28a.722.722,0,0,1,.747-.394.635.635,0,0,1,.483.123.931.931,0,0,1,.343.4,3.728,3.728,0,0,1,.061.475c.012.138.109.222.109.375v.447c0,.178-.1.2-.236.3a.078.078,0,0,0,.006.123.815.815,0,0,1,.42.448c.059.172-.016.254.076.433.046.089.188.022.141-.067-.086-.165-.026-.326-.108-.512a.938.938,0,0,0-.441-.43l.006.123c.146-.1.247-.136.275-.311a3.311,3.311,0,0,0,.015-.54c0-.182-.1-.271-.112-.435s0-.49-.123-.625a2.32,2.32,0,0,0-.414-.383.785.785,0,0,0-.559-.1.816.816,0,0,0-.819.46c-.046.087.081.178.128.089" transform="translate(100.345 -153.795)" fill="#001543"/>
          <path id="Path_68" data-name="Path 68" d="M-81.168,166.731a1.848,1.848,0,0,0,.089.536.239.239,0,0,0,.12.13c.166.077.138.242.132.39-.007.17.092.31.106.485a1.065,1.065,0,0,0,.135.544.077.077,0,0,0,.073.026.889.889,0,0,0,.232-.086c.071-.039.151-.249.232-.223.1.031.151-.116.054-.146-.206-.065-.292.21-.457.276-.085.034-.127-.606-.153-.67-.082-.2,0-.416-.128-.6-.068-.1-.224-.157-.238-.285s-.03-.272-.044-.408c-.011-.1-.165-.072-.154.027" transform="translate(100.365 -154.113)" fill="#001543"/>
          <path id="Path_69" data-name="Path 69" d="M-79.734,168.679l.226.06c.069.018.159-.048.22-.076a.078.078,0,0,0,.044-.063v-.631c0-.1-.155-.116-.155-.015v.631l.044-.063-.08.037-.063.029c-.046.02.072.012.029,0l-.212-.056c-.1-.025-.151.121-.054.147" transform="translate(99.884 -154.545)" fill="#001543"/>
          <path id="Path_70" data-name="Path 70" d="M-78.177,167.989c.193.1.249.089.3.248a1.289,1.289,0,0,0,.2.319c.064.093.018.441.021.569,0,.08-.068.32-.029.39.155.276.369.206.648.183a1.506,1.506,0,0,1,.914.386c.11.078.066,0,.07.108a.643.643,0,0,1-.064.281c-.023.06-.174.04-.21.131a3.609,3.609,0,0,1-.649.914,1.726,1.726,0,0,1-.352.275.7.7,0,0,0-.191.3,1.149,1.149,0,0,0-.069.965c.052.086.194.02.142-.067a1.1,1.1,0,0,1,.219-1.075,3.546,3.546,0,0,0,.723-.732,1.412,1.412,0,0,0,.241-.3c.087-.227.1-.148.256-.281.138-.117.178-.495.024-.6a2.829,2.829,0,0,0-.846-.435c-.224-.072-.742.183-.68-.2a1.6,1.6,0,0,0-.084-.953,2.324,2.324,0,0,1-.183-.365c-.044-.095-.258-.151-.345-.2s-.142.1-.054.147" transform="translate(99.342 -154.527)" fill="#001543"/>
          <path id="Path_71" data-name="Path 71" d="M-78.074,170.416a2.077,2.077,0,0,0-.561,1.046q-.056.451-.112.9a1.924,1.924,0,0,1-.267.641l-.212.409c-.063.121.059.008-.008.031a.313.313,0,0,0-.152.152c-.317.563-.01,1.512.125,2.069.024.1.178.071.154-.027-.121-.5-.476-1.539-.108-2.02a5.373,5.373,0,0,0,.429-.718,3.39,3.39,0,0,0,.285-1.247,2.143,2.143,0,0,1,.556-1.15c.064-.078-.065-.167-.128-.09" transform="translate(99.794 -155.413)" fill="#001543"/>
          <path id="Path_72" data-name="Path 72" d="M-81.425,169.655c.238.139.225.057.225.307,0,.151-.1.263-.1.4a.9.9,0,0,0,.078.449c.022.049.095.093.133.128.046.065.063.056.052-.025l-.129.129a.08.08,0,0,0-.02.093.215.215,0,0,0,.288.127c.283-.1.27.057.32.273a.077.077,0,0,0,.05.059.372.372,0,0,0,.4-.287c0-.184.059-.167.238-.268.158-.089.105.034.1.125a.078.078,0,0,0,.033.071c.174.115.452-.09.61-.17.09-.045.023-.187-.067-.141s-.429.254-.386.1a.078.078,0,0,0-.028-.091c-.223-.143-.416.017-.61.126a.078.078,0,0,0-.044.063c0,.149-.077.367-.156.2a1.912,1.912,0,0,0-.159-.236c-.112-.165-.634.242-.314-.078a.079.079,0,0,0,.009-.11c-.119-.108-.24-.2-.24-.369,0-.151.1-.276.1-.409,0-.383.036-.406-.291-.6-.086-.051-.176.077-.089.128" transform="translate(100.466 -155.111)" fill="#001543"/>
          <path id="Path_73" data-name="Path 73" d="M-78.6,169.562a3.73,3.73,0,0,0-.846-.093.08.08,0,0,0-.08.05.33.33,0,0,0,.1.413.081.081,0,0,0,.093.02l.142-.057.093-.037c-.044.017-.01.006.02.01l.215.024.121.014c.073.008.024.018-.006-.031q.183.29.369.578c.054.083.2.018.141-.067l-.223-.347c-.046-.072-.11-.247-.2-.279a1,1,0,0,0-.745.049l.093.02a.338.338,0,0,1-.091-.115c-.018-.046-.008-.087-.025-.045l.039-.1-.08.051a3.725,3.725,0,0,1,.845.093c.1.022.112-.134.015-.155" transform="translate(99.808 -155.095)" fill="#001543"/>
          <path id="Path_74" data-name="Path 74" d="M-79.434,169.809l.56.016.1,0c-.023,0-.055-.041,0,.02l.216.215c.071.07.19-.029.119-.1-.092-.092-.213-.286-.354-.29l-.632-.018c-.1,0-.116.152-.015.155" transform="translate(99.786 -155.159)" fill="#001543"/>
          <path id="Path_75" data-name="Path 75" d="M-79.285,169.957l.2-.1a.078.078,0,0,0-.067-.141l-.2.1a.078.078,0,0,0,.067.141" transform="translate(99.749 -155.177)" fill="#001543"/>
          <path id="Path_76" data-name="Path 76" d="M-78.126,169.973l.139-.129c.073-.069-.027-.188-.1-.119l-.139.129c-.074.068.027.187.1.119" transform="translate(99.352 -155.177)" fill="#001543"/>
          <path id="Path_77" data-name="Path 77" d="M-82.42,173.076c.158.288.207.292.528.391a1.1,1.1,0,0,1,.338.159l.211.168c.115.091.073-.048.005.1s-.177.39.034.488c.131.06.381-.238.46-.283a.3.3,0,0,1,.255,0,.342.342,0,0,1,.208.263c-.015-.07-.021-.018-.066.022-.076.066.025.185.1.119.252-.219,0-.525-.283-.573a.438.438,0,0,0-.377.089c-.029.021-.343.287-.262.106l.133-.3a.079.079,0,0,0-.029-.091,2.314,2.314,0,0,0-.551-.363,3.539,3.539,0,0,0-.336-.119c-.149-.046-.136-.078-.228-.245-.048-.087-.189-.022-.141.067" transform="translate(100.802 -156.31)" fill="#001543"/>
          <path id="Path_78" data-name="Path 78" d="M-78.918,173.244l-.02.13.044-.063a3,3,0,0,0-.493.3c-.105.087-.073.438-.08.554-.007.1.149.115.155.014s.014-.224.02-.335a.666.666,0,0,1,.02-.108c.012-.058.027-.042-.006-.014.02-.016.061-.055.071-.061l.332-.183c.1-.054.1-.11.112-.219s-.14-.114-.155-.015" transform="translate(99.773 -156.382)" fill="#001543"/>
          <path id="Path_79" data-name="Path 79" d="M-85.226,176.9l.915,2.071a2.9,2.9,0,0,1,.329.677,4.686,4.686,0,0,0,.365,1.106c.119.3.356.364.642.522a1.071,1.071,0,0,0,.409.048c.026,0,.427.023.392-.018a.679.679,0,0,0,.682.313c.2-.046.136-.279.255-.389a3.726,3.726,0,0,1,.524-.375c.083-.054.017-.2-.067-.141a2.75,2.75,0,0,0-.616.453c-.135.157-.149.358-.405.262a.685.685,0,0,1-.27-.245.079.079,0,0,0-.073-.026,2.714,2.714,0,0,1-.748-.014,2,2,0,0,1-.519-.3l-.336-.853c-.068-.173-.037-.377-.127-.536a28.088,28.088,0,0,1-1.207-2.622c-.04-.092-.181-.025-.141.067" transform="translate(101.776 -157.638)" fill="#001543"/>
          <path id="Path_80" data-name="Path 80" d="M-84.191,176.256c.117.074.083,0,.083.185v.567c0,.125-.127.219-.119.35a3.584,3.584,0,0,0,.276.727,4.757,4.757,0,0,0,.86,1.214c.06.081.179-.02.119-.1a5.548,5.548,0,0,1-.887-1.334,1.715,1.715,0,0,0-.154-.317c-.147-.249-.016-.239.04-.417a1.389,1.389,0,0,0,.021-.407c0-.26.077-.452-.149-.6-.085-.054-.175.074-.089.128" transform="translate(101.427 -157.403)" fill="#001543"/>
          <path id="Path_81" data-name="Path 81" d="M-84.069,177.711a5.737,5.737,0,0,1,.918.605,3.282,3.282,0,0,1,.367.407c.1.136.095.323.2.458a1.658,1.658,0,0,1,.155.439c.084.249.166.5.247.749.131.4.11.46.5.627.093.04.146-.106.054-.146-.168-.073-.251-.065-.288-.178q-.1-.308-.2-.616c-.114-.349-.227-.7-.372-1.034a2.293,2.293,0,0,0-.552-.823,5.85,5.85,0,0,0-.932-.616c-.084-.055-.174.072-.089.128" transform="translate(101.383 -157.907)" fill="#001543"/>
          <path id="Path_82" data-name="Path 82" d="M-83.9,175.781l.377.49a1.945,1.945,0,0,1,.189.525c.04.118,0,.312.088.409.164.184.294.283.326.525.012.1.166.072.153-.027a.7.7,0,0,0-.255-.482c-.138-.155-.095-.268-.166-.48a2.036,2.036,0,0,0-.189-.539l-.4-.524c-.062-.08-.181.022-.119.1" transform="translate(101.317 -157.241)" fill="#001543"/>
          <path id="Path_83" data-name="Path 83" d="M-82.315,178.706a5.735,5.735,0,0,0,1.326.065c.461-.075,1.061.067,1.465-.183.085-.052.02-.194-.067-.141-.372.23-.993.118-1.425.17a6.7,6.7,0,0,1-1.285-.067.078.078,0,0,0-.014.155" transform="translate(100.786 -158.208)" fill="#001543"/>
          <path id="Path_84" data-name="Path 84" d="M-79.3,178.483a2.961,2.961,0,0,1-.592.45,2.077,2.077,0,0,0-.356.433c-.113.134-.184.423-.4.4l-.82-.07a.078.078,0,0,0-.014.155c.421.036.979.229,1.239-.2.123-.2.315-.376.424-.584.054-.1.264-.11.344-.191l.273-.277c.07-.071-.03-.191-.1-.119" transform="translate(100.497 -158.217)" fill="#001543"/>
          <path id="Path_85" data-name="Path 85" d="M-84.436,178.974c-.529-.022-.605.582-.605.975a4.836,4.836,0,0,0,.339,1.215l.492,1.751a9.419,9.419,0,0,1,.174,1.338c.059.466.348.895.416,1.369a2.325,2.325,0,0,0,.1.661c.114.22.251.439.343.668.062.156.294,1.02.638.712a2.38,2.38,0,0,0,.53-1.4c.063-.392,0-.316.353-.481.15-.071.166-.243.223-.392.078-.206.121-.431.181-.644.085-.3.072-.36.341-.492a.078.078,0,0,0-.067-.141c-.271.133-.29.133-.374.418-.076.262-.149.526-.223.789-.087.31-.135.314-.42.448-.187.088-.153.379-.181.56a2.513,2.513,0,0,0-.138.571c.023.2-.331.838-.5.537a2.521,2.521,0,0,1-.114-.279c-.091-.228-.193-.439-.305-.658a1.983,1.983,0,0,1-.21-.729,7.265,7.265,0,0,0-.42-1.49c-.149-.41-.065-.929-.186-1.36l-.456-1.625q-.1-.36-.2-.722c-.054-.191-.179-.316-.179-.522,0-.311-.024-.94.435-.922.1,0,.116-.151.015-.155" transform="translate(101.709 -158.395)" fill="#001543"/>
          <path id="Path_86" data-name="Path 86" d="M-79.623,181.614a.7.7,0,0,0-.435.277c-.153.179-.12.36-.134.595a3.442,3.442,0,0,1-.395,1.4,3.255,3.255,0,0,0-.419.815,1.8,1.8,0,0,1-.49,1.093,1.344,1.344,0,0,0-.259.465,2.166,2.166,0,0,1-.471.55l.129.067a2.121,2.121,0,0,0,0-.915c-.147-.323-.061-.669-.224-.982a1.368,1.368,0,0,0-.448-.448c-.105-.073-.043.029-.035-.02l.045-.272q.047-.291.1-.582c.017-.1-.238-.277-.3-.338-.12-.12-.08-.238-.08-.456,0-.1-.155-.116-.155-.015,0,.427,0,.454.3.755.112.111.066.126.028.356-.032.194-.063.388-.1.582a.077.077,0,0,0,.033.072,1.641,1.641,0,0,1,.366.3c.251.261.149.6.255.918a2.53,2.53,0,0,1,.061,1.037c0,.063.077.119.129.067a2.13,2.13,0,0,0,.43-.441l.163-.33c.04-.083.133-.241.1-.222a1.11,1.11,0,0,0,.362-.451c.2-.425.236-.857.469-1.272a2.259,2.259,0,0,0,.283-.523q.112-.461.224-.922a3.281,3.281,0,0,0,.072-.583c.015-.251.216-.353.422-.418.095-.03.069-.185-.027-.154" transform="translate(101.07 -159.31)" fill="#001543"/>
          <path id="Path_87" data-name="Path 87" d="M-83.754,185.264l-.39.4a.079.079,0,0,0-.008.11c.063.064.191.147.223.231s.057.145.085.217.02.155.058.092a1.674,1.674,0,0,0-.119.974,2.352,2.352,0,0,0,.189,1.352c.225.313.236.3.222.669a1.231,1.231,0,0,0,.165.692c.038.083,0,.179.008.281a2.389,2.389,0,0,0,.121.386c.061.292-.226.4-.366.578a.221.221,0,0,0,.015.234c.137.162.46.172.651.193a.58.58,0,0,0,.6-.174,5.7,5.7,0,0,0,.561-.505,1.176,1.176,0,0,0,.245-.526,1.92,1.92,0,0,1,.261-.689c.159-.159.322-.316.471-.484a2.276,2.276,0,0,0,.437-1.514c.018-.358.37-.574.5-.877a1.143,1.143,0,0,0,.126-.487.666.666,0,0,1,.269-.635c.055-.034.08-.019.11-.084a7.792,7.792,0,0,0,.372-2.469.078.078,0,0,0-.156-.015q-.081.838-.163,1.676a1.588,1.588,0,0,1-.1.544c-.076.166-.044.176-.126.207a.542.542,0,0,0-.286.3c-.106.242-.023.518-.124.756a3.043,3.043,0,0,1-.381.591c-.279.395-.2.929-.313,1.381a1.478,1.478,0,0,1-.469.727c-.112.114-.314.244-.364.4l-.279.845a1.407,1.407,0,0,1-.434.546,1.8,1.8,0,0,1-.5.358c-.163-.015-.327-.032-.49-.056a1.744,1.744,0,0,1-.2-.054c-.209-.057.154-.3.162-.313.233-.313.077-.444.016-.764-.018-.092.044-.262,0-.351l-.191-.417a2.1,2.1,0,0,1,.022-.575c.005-.144-.1-.239-.185-.353a1.963,1.963,0,0,1-.24-1.206,3.178,3.178,0,0,1,.017-.873c.068-.231.12-.194.031-.422a1.1,1.1,0,0,0-.313-.466c-.032.088-.027.106.015.052l.154-.157.2-.2c.07-.071-.031-.191-.1-.119" transform="translate(101.407 -159.842)" fill="#001543"/>
          <path id="Path_88" data-name="Path 88" d="M-77.936,180.144a1.661,1.661,0,0,0,.015.869,1.087,1.087,0,0,1-.011.642.294.294,0,0,0,.057.216c.178.2.459-.206.584-.317a1.274,1.274,0,0,1,.6-.334c.1-.028.07-.182-.027-.153a1.151,1.151,0,0,0-.435.176c-.078.064-.16.125-.236.193-.039.035-.364.337-.38.284-.04-.136.067-.468.025-.68a2.179,2.179,0,0,1-.033-.879c.018-.1-.138-.113-.155-.014" transform="translate(99.26 -158.778)" fill="#001543"/>
          <path id="Path_89" data-name="Path 89" d="M-77.791,179.589c-.185.293-.544.449-.744.754-.139.213-.061.712.274.661.255-.039.426-.339.652-.467a2.91,2.91,0,0,0,.45-.257c.082-.069.044-.326.05-.418.012-.2.343-.235.331-.505a.52.52,0,0,0-.208-.4,1.434,1.434,0,0,0-.345-.173.633.633,0,0,1-.457-.678c-.008-.324-.052-.644-.04-.969a.5.5,0,0,0-.068-.325c-.171-.337-.342-.672-.526-1a.078.078,0,0,0-.1-.037c-.267.144-.632.215-.676.537a3.836,3.836,0,0,0,.034.992q.076.674.152,1.347c0-.012.085-.084-.026-.027l-.335.168-.569.287.112.078c.011-.067.023-.133.035-.2a.079.079,0,0,0-.111-.078,1.187,1.187,0,0,1-.275.153c-.08.017-.216.017-.279.077l-.6.57c-.073.069.027.189.1.119l.577-.547c.056-.053.176-.054.258-.072a1.211,1.211,0,0,0,.287-.159l-.111-.078-.035.2a.079.079,0,0,0,.112.078l.976-.492a.079.079,0,0,0,.043-.084q-.071-.64-.144-1.281-.038-.336-.076-.672a.438.438,0,0,1,0-.127c.011-.079.022-.158.033-.238s.052-.12-.013-.086l.588-.318c-.086-.046-.1-.037-.052.027l.121.217c.028.05.054.1.08.152l.335.661a4.949,4.949,0,0,1,.029.881,1.845,1.845,0,0,0,.141.784c.2.327.68.252.86.6.112.216-.123.3-.272.427-.1.078-.05.417-.057.53.044-.044.045-.052,0-.023l-.172.1-.346.2a1.764,1.764,0,0,0-.368.324c-.22.22-.289-.28-.182-.443a1.119,1.119,0,0,1,.236-.26,1.825,1.825,0,0,0,.453-.409c.054-.085-.074-.175-.128-.089" transform="translate(100.337 -157.28)" fill="#001543"/>
          <path id="Path_90" data-name="Path 90" d="M-77.592,176.053a20.5,20.5,0,0,1,.182,2.134c.008.294.063.762-.139,1-.167.2.255.405.384.475.088.048.179-.08.09-.128-.046-.025-.382-.226-.339-.259a.4.4,0,0,0,.106-.223A4.056,4.056,0,0,0-77.261,178c-.027-.661-.091-1.321-.177-1.977-.014-.1-.167-.072-.154.027" transform="translate(99.123 -157.35)" fill="#001543"/>
          <path id="Path_91" data-name="Path 91" d="M-76.323,180.384l.072.173.037-.1a2.132,2.132,0,0,1-.275.165,2.088,2.088,0,0,0-.43.157c-.174.089-.132.242-.257.37-.086.088-.037.21-.023.324s.166.072.154-.027c-.007-.052-.012-.105-.019-.157-.01-.091.014-.042-.028-.005a.461.461,0,0,0,.056-.057.4.4,0,0,0,.11-.2c.009-.1.106-.123.187-.157a2.538,2.538,0,0,0,.313-.1l.28-.168a.079.079,0,0,0,.037-.1l-.072-.173c-.039-.093-.18-.025-.141.067" transform="translate(98.995 -158.846)" fill="#001543"/>
          <path id="Path_92" data-name="Path 92" d="M-79.9,167.518l.319.044a.169.169,0,0,1,.089.046c.015.012-.008.127-.01.146l.037-.036-.379,0c-.054,0-.052.008-.052-.047v-.191l-.037.036.033,0c.011,0,.027-.038.037-.036l-.033,0a.161.161,0,0,0-.037.036v.177c0,.063-.01.061.052.062h.379a.149.149,0,0,0,.037-.036,1.266,1.266,0,0,0,.01-.141c0-.03-.064-.047-.089-.051l-.319-.044c-.01,0-.027.037-.037.036" transform="translate(99.935 -154.404)" fill="#001543"/>
          <path id="Path_93" data-name="Path 93" d="M-78.592,167.466l-.311.061a.133.133,0,0,0-.038.036c-.008.045-.031.091,0,.129s.04.062.1.059a1.527,1.527,0,0,0,.35-.027.179.179,0,0,0,.037-.036c-.017-.05-.035-.1-.052-.151s-.037-.05-.087-.071c-.007,0-.031.039-.037.036.05.022.071.021.087.071l.052.151.037-.036a1.468,1.468,0,0,1-.335.026c-.065,0-.065.006-.108-.046s-.02-.081-.008-.142l-.038.036.312-.061c.014,0,.023-.033.037-.036" transform="translate(99.597 -154.399)" fill="#001543"/>
          <path id="Path_94" data-name="Path 94" d="M-77.324,187.527c-.076.061-.248.144-.283.238a1.937,1.937,0,0,0-.025.537c0,.065.033.082.031.147-.008.29-1.022.127-1.019.2l-.154.027a3.36,3.36,0,0,0,.415,1.291.078.078,0,0,0,.11.009,3.039,3.039,0,0,0,.469-.83,3.115,3.115,0,0,1,.191-.379,2.041,2.041,0,0,0,.3-.438l.155-.506c.042-.136-.053-.252-.034-.385a7.138,7.138,0,0,0,.106-1.032,8.267,8.267,0,0,1,.312-1.939l.264-1.106a1.108,1.108,0,0,0-.043-.374c-.025-.172.059-.215.191-.386.062-.08-.067-.169-.128-.089s-.23.221-.24.329c-.013.137.092.387.074.466q-.154.639-.306,1.28a8.863,8.863,0,0,0-.28,2.083,4.99,4.99,0,0,0-.054,1.052c.026.134-.117.4-.159.539-.05.164-.226.3-.3.45l-.537,1.076c-.056.112-.01.014-.033-.036a3.191,3.191,0,0,1-.159-.483c-.058-.2-.109-.411-.155-.618a.078.078,0,0,0-.154.027c.013.289,1.14.1,1.294-.11a.258.258,0,0,0-.014-.283c.048.074.02-.044.022-.084,0-.11.009-.219.013-.329,0-.069.139-.145.236-.221.079-.063-.022-.182-.1-.119" transform="translate(99.533 -159.612)" fill="#001543"/>
          <path id="Path_95" data-name="Path 95" d="M-78.84,193.849l.294.643a.351.351,0,0,1-.01.155c-.074.266-.458.153-.635.1-.208-.057-.481-.136-.55-.327l-.241-.665c-.034-.095-.175-.027-.141.067l.166.457c.025.069.05.138.075.208.01.027-.014-.042.007.029.095.326.753.435,1.019.452a.426.426,0,0,0,.472-.456,2.345,2.345,0,0,0-.314-.735.078.078,0,0,0-.141.067" transform="translate(100.003 -163.513)" fill="#001543"/>
          <path id="Path_96" data-name="Path 96" d="M-80.632,194.443c.039.129.078.258.116.388.029.1-.055.219-.022.32q.127.4.256.8c.125.39-.919.007-1.09-.175-.154-.163.135-.343.252-.464a.919.919,0,0,0,.208-.366c.029-.1-.118-.151-.146-.054-.1.337-.717.608-.448.967a1.113,1.113,0,0,0,.51.315c.193.072.637.223.82.051s-.031-.551-.091-.74a1.139,1.139,0,0,1-.1-.532,1.331,1.331,0,0,0-.108-.536c-.029-.1-.183-.069-.154.027" transform="translate(100.506 -163.736)" fill="#001543"/>
          <path id="Path_97" data-name="Path 97" d="M-74.627,181.252l.347-.086c.1-.024.071-.178-.027-.154l-.346.086c-.1.024-.071.178.027.154" transform="translate(98.123 -159.102)" fill="#001543"/>
          <path id="Path_98" data-name="Path 98" d="M-74.158,177.216a4.266,4.266,0,0,1,.262.733,2.2,2.2,0,0,1-.133.648c-.022.1.134.112.155.014a2.184,2.184,0,0,0,.132-.689,3.471,3.471,0,0,0-.275-.774c-.039-.093-.18-.025-.141.067" transform="translate(97.932 -157.746)" fill="#001543"/>
          <path id="Path_99" data-name="Path 99" d="M-69.68,167.549c-.13.328.073.532.394.557.445.034.433-.563.417-.853a1.563,1.563,0,0,0-.05-.553c-.1-.193-.275-.324-.377-.507a3.27,3.27,0,0,0-.3-.536c-.085-.1-.363-.123-.486-.161a.078.078,0,0,0-.078.014c-.164.164-.313.059-.577,0a.538.538,0,0,0-.463.063c-.178.177-.287.236-.3.48a1.578,1.578,0,0,1-.244.527.078.078,0,0,0,.029.091l.293.254a.078.078,0,0,0,.078.007,2.2,2.2,0,0,0,.334-.177c.176-.123.062-.29.363-.375.428-.119.475.752.521.974a.079.079,0,0,0,.11.057c.082-.038.27-.084.326-.163a.82.82,0,0,0,.07-.183c.033-.089.2-.035.114-.118.054.054.2.283.086.375a.528.528,0,0,1-.279.146c.033.065.035.058.008-.021-.016-.056-.031-.113-.046-.169-.027-.1-.181-.07-.154.027l.072.262a.079.079,0,0,0,.09.063c.443-.059.658-.469.323-.8a.079.079,0,0,0-.093-.02c-.091.055-.227.1-.266.2-.065.177-.144.18-.317.26l.111.057a5.228,5.228,0,0,0-.2-.862c-.144-.364-.621-.268-.828-.034a1.054,1.054,0,0,1-.391.351c.059-.028-.056-.082-.12-.138-.133-.114-.087-.007-.047-.09s.2-.232.2-.323c.018-.247-.009-.266.153-.428.24-.24.538-.118.894-.039.121.027.146-.027.234-.114-.055,0-.05,0,.014.015l.156.048c.107.033.191.044.211.079l.28.506c.11.2.367.309.374.572,0,.188.021.377.026.566a.818.818,0,0,1-.081.428q-.513.156-.463-.161a.348.348,0,0,1,.027-.1.078.078,0,0,0-.147-.054" transform="translate(97.095 -153.713)" fill="#001543"/>
          <path id="Path_100" data-name="Path 100" d="M-70.064,167.97c-.045.161-.1.321-.134.484a.687.687,0,0,1-.095.254c.017-.027.028-.01-.033.007l-.2.057-.108.031c.052-.014.031,0-.039-.039l-.325-.2a2.094,2.094,0,0,0-.471-.184l.046.1a1.952,1.952,0,0,0,.214-.453c.033-.187.066-.373.1-.56.017-.1-.138-.113-.156-.014-.031.18-.063.36-.095.539a2.076,2.076,0,0,1-.209.434.078.078,0,0,0,.046.1,2.431,2.431,0,0,1,.572.252c.213.133.265.2.5.137.174-.05.322-.068.368-.272s.106-.411.165-.616c.027-.1-.119-.151-.147-.054" transform="translate(97.034 -154.37)" fill="#001543"/>
          <path id="Path_101" data-name="Path 101" d="M-70.838,167.962l.2-.116c.03-.018.033-.007-.014-.007h.174l-.07-.065.013.072.026-.073-.107.108.058-.018a.519.519,0,0,0-.163-.022l-.167.033.091.084c0-.02,0-.039.007-.059a.078.078,0,0,0-.156-.014c0,.02,0,.039-.007.058a.079.079,0,0,0,.091.084L-70.7,168c.02,0-.028,0-.005,0l.054.008.078.013c.059.01.118-.078.153-.113s.038-.094.026-.157a.078.078,0,0,0-.07-.065.514.514,0,0,0-.226.013l-.212.125c-.086.05-.02.192.067.141" transform="translate(96.819 -154.473)" fill="#001543"/>
          <path id="Path_102" data-name="Path 102" d="M-71.2,168.8c-.169.016-.339.04-.51.04a.081.081,0,0,0-.081.051c-.051.142-.106.21-.027.339a.569.569,0,0,1,.079.557.08.08,0,0,0,.029.091c.123.089.311.283.463.3a1.863,1.863,0,0,0,.678-.037.469.469,0,0,0,.348-.252,1.222,1.222,0,0,1,.368-.571.077.077,0,0,0,.026-.073c-.018-.073-.059-.262.085-.266.1,0,.116-.159.015-.155a.248.248,0,0,0-.276.266c-.007.094-.015.164.033.123a1.191,1.191,0,0,0-.212.183c-.1.142-.1.354-.224.477a.733.733,0,0,1-.568.17.839.839,0,0,1-.522-.2c-.16-.116-.048.017-.048-.142v-.287c0-.064-.061-.13-.092-.181-.084-.14-.074-.1-.015-.264-.021.057.084.024.155.018l.324-.03c.1-.01.072-.163-.027-.154" transform="translate(97.13 -154.861)" fill="#001543"/>
          <path id="Path_103" data-name="Path 103" d="M-68.287,169.43l.087.122.067.095c.052.072.022.075.037.012-.031.131-.042.266-.1.319A1.085,1.085,0,0,0-68.4,171c.02.1.174.071.153-.027a1.024,1.024,0,0,1,.1-.808c.05-.076.114-.1.136-.191s.1-.254.063-.336a2.3,2.3,0,0,0-.22-.31c-.058-.082-.177.02-.119.1" transform="translate(95.945 -155.036)" fill="#001543"/>
          <path id="Path_104" data-name="Path 104" d="M-70.219,170.748a1.632,1.632,0,0,0,.42.857c.106.155.087.174.047.37a1.006,1.006,0,0,0,.115.49c.025.076.332.434.441.415.185-.033.129-.385.223-.482.134-.136.243-.152.176-.362-.031-.095-.185-.069-.154.027.051.16-.078.139-.19.286a.253.253,0,0,0-.069.131c0,.048.028.306-.055.163-.106-.181-.394-.351-.342-.6a.586.586,0,0,0-.11-.593l-.3-.44a.637.637,0,0,1-.043-.29c-.008-.1-.162-.072-.154.027" transform="translate(96.563 -155.508)" fill="#001543"/>
          <path id="Path_105" data-name="Path 105" d="M-69.582,172.53a1.261,1.261,0,0,0,.415.131c.078-.006.445-.084.442.055,0,.1.153.116.156.014.005-.221-.217-.255-.39-.242l-.2.016c-.065.005.033.017-.051-.011l-.321-.11c-.1-.032-.149.114-.054.147" transform="translate(96.358 -156.105)" fill="#001543"/>
          <path id="Path_106" data-name="Path 106" d="M-67.981,170.2l.334.062c.057.01.092-.031.138-.056.385-.207.425.525.374.742-.023.1.123.152.146.054.072-.306.049-.958-.385-.986a.455.455,0,0,0-.289.1c-.035.025.078,0,.031-.014l-.107-.02-.228-.042c-.1-.018-.112.137-.014.155" transform="translate(95.809 -155.285)" fill="#001543"/>
          <path id="Path_107" data-name="Path 107" d="M-67.884,170.163a2.015,2.015,0,0,0,.039.469,2.093,2.093,0,0,1-.027.618c-.012.143-.014.375-.116.477l-.435.435c-.071.071.029.191.1.119l.465-.465c.111-.111.11-.336.132-.481a6.973,6.973,0,0,0,0-1.156c0-.1-.155-.116-.155-.015" transform="translate(95.947 -155.312)" fill="#001543"/>
          <path id="Path_108" data-name="Path 108" d="M-67.146,172.612a.467.467,0,0,0,.076-.313c-.012-.094-.05.033-.014.005l.083-.065.208-.161a.664.664,0,0,0,.05-.813c-.063-.078-.183.023-.119.1a.579.579,0,0,1,0,.57c-.011.024-.008.023.008-.006l-.065.05-.18.139c-.048.037-.138.08-.129.153a.358.358,0,0,1-.061.285c-.044.091.1.144.147.054" transform="translate(95.549 -155.709)" fill="#001543"/>
          <path id="Path_109" data-name="Path 109" d="M-67.264,171.292a1.79,1.79,0,0,1,.789.215c.157.134-.128.512,0,.643.189.2.222.411.409.6a1.938,1.938,0,0,1,.269.64c.114.328-.105.514-.4.616a1.466,1.466,0,0,0-.467.4c-.185.191-.409.518-.629.56a1.191,1.191,0,0,0-.451.146c-.23.168-.4.076-.606-.039-.087-.048-.178.079-.089.128a.755.755,0,0,0,.851.007c.111-.053.4-.04.487-.129l.379-.39a2.01,2.01,0,0,1,.718-.589.648.648,0,0,0,.415-.571.8.8,0,0,0-.109-.324c-.054-.114-.057-.262-.117-.361a3.781,3.781,0,0,1-.258-.326.723.723,0,0,0-.212-.4c-.144-.148.134-.545-.071-.718a1.788,1.788,0,0,0-.892-.268c-.1-.022-.112.134-.015.155" transform="translate(95.957 -155.673)" fill="#001543"/>
          <path id="Path_110" data-name="Path 110" d="M-72.687,170.239a2.292,2.292,0,0,0-1.178.094c-.178.063-.294.292-.423.42-.173.17-.273.2-.35.469l.118-.037-.254-.21c-.078-.065-.166.064-.089.128l.254.21a.078.078,0,0,0,.118-.037.726.726,0,0,1,.3-.4c.131-.114.255-.35.389-.4a2.148,2.148,0,0,1,1.1-.08c.1.012.114-.144.014-.155" transform="translate(98.186 -155.35)" fill="#001543"/>
          <path id="Path_111" data-name="Path 111" d="M-74.941,171.653c-.05.209-.144.381-.172.591-.023.172-.206.3-.286.489a5.13,5.13,0,0,0-.406,2.182.94.94,0,0,0,.26.49c.256.232.484.039.8.033.21,0,.358-.257.5-.4s.361-.156.417-.426c.021-.1-.135-.112-.155-.014-.025.118-.422.38-.529.488-.215.215-.169.182-.473.2a.643.643,0,0,0-.3.08c-.114.07-.24-.212-.271-.279a.839.839,0,0,1-.069-.544,6.192,6.192,0,0,1,.459-1.962c.086-.184.177-.095.209-.331.025-.185.118-.362.163-.551.023-.1-.123-.152-.146-.054" transform="translate(98.505 -155.835)" fill="#001543"/>
          <path id="Path_112" data-name="Path 112" d="M-75.369,173.958l.566-.77a.894.894,0,0,1,.552-.346,2.453,2.453,0,0,1,.535-.139l.514.2c.05.019-.005-.059.037.079s.078.251.116.377c.088.288.8.62.337.927-.084.056.018.175.1.119.438-.292.044-.768-.24-1.016a1.986,1.986,0,0,1-.192-.537c-.04-.129-.275-.16-.383-.2a.612.612,0,0,0-.494-.048,2.038,2.038,0,0,0-.681.192,4.537,4.537,0,0,0-.9,1.078c-.06.081.069.17.128.089" transform="translate(98.401 -156.17)" fill="#001543"/>
          <path id="Path_113" data-name="Path 113" d="M-73.2,175.043l-.712-.078-.324-.035c-.052-.006.048.078-.014-.035l-.123-.226a2.058,2.058,0,0,0-.392-.431c-.083-.083-.087-.108.013-.178-.033.023,0,.013.082.063l.14.085a.078.078,0,0,0,.1,0l.149-.149a.079.079,0,0,0,.026-.073c-.025-.092-.051-.184-.077-.275-.012-.046-.025-.091-.039-.137-.017-.063-.065.026.06-.02.183-.067.2.336.211.421a.08.08,0,0,0,.091.063l.154-.008a.078.078,0,0,0,.063-.091.931.931,0,0,1-.029-.538l-.118.037.2.119c.122.074.094.011.094.12a3.578,3.578,0,0,0,.035.425.078.078,0,0,0,.14.031c.086-.151.189-.258.285-.4.148-.211.072-.259.337-.133-.023-.013-.015.006.025.057.063.127.023.1.075.072a1.517,1.517,0,0,0-.232.116c-.115.1-.078.241-.052.362a.078.078,0,0,0,.05.06c.225.07.455.114.684.165-.008-.05-.018-.1-.026-.148l-.69.256c-.121.046-.211.44-.259.553-.04.093.106.146.146.054l.11-.255.087-.2c.036-.082-.042,0,.027-.026l.646-.24c.081-.03.04-.133-.026-.148-.18-.04-.368-.07-.544-.125-.244-.076.087-.25.186-.3a.079.079,0,0,0,.037-.1.637.637,0,0,0-.418-.4.078.078,0,0,0-.078.014,2.418,2.418,0,0,0-.5.681l.14.031c-.02-.168,0-.354-.034-.518-.019-.108-.273-.2-.355-.246a.079.079,0,0,0-.118.037.67.67,0,0,0-.03.4l.035.146c.007.074.02.069.04-.018-.089-.006-.1,0-.028.023a.757.757,0,0,0-.022-.168c-.091-.291-.23-.385-.525-.277a.078.078,0,0,0-.044.084l.127.456c-.007-.027-.119.029-.043.075l-.26-.157a.081.081,0,0,0-.1,0c-.439.31.212.657.385.975.2.368.834.268,1.217.309a.078.078,0,0,0,.014-.155" transform="translate(98.209 -156.423)" fill="#001543"/>
          <path id="Path_114" data-name="Path 114" d="M-71.83,170.3c-.035.091-.032.187-.061.27a1.283,1.283,0,0,0-.119.349v.422c0,.221.17.315-.05.555-.067.073.033.193.1.119.262-.287.1-.578.1-.864a2.371,2.371,0,0,1,.171-.8.078.078,0,0,0-.146-.054" transform="translate(97.209 -155.367)" fill="#001543"/>
          <path id="Path_115" data-name="Path 115" d="M-71.858,172.775c.2-.16.522-.377.712-.169a3.016,3.016,0,0,0,.3.3.368.368,0,0,0,.351.121c.1-.006.072-.16-.027-.154-.145.008-.171-.012-.307-.161-.089-.1-.185-.265-.32-.3a.837.837,0,0,0-.8.238c-.079.063.022.181.1.119" transform="translate(97.177 -156.109)" fill="#001543"/>
          <path id="Path_116" data-name="Path 116" d="M-72.6,176.024l-.034.135.08-.05-.377-.019c-.1-.005-.115.151-.014.155l.377.019a.078.078,0,0,0,.08-.051c.012-.045.023-.09.034-.135.025-.1-.121-.151-.146-.054" transform="translate(97.533 -157.353)" fill="#001543"/>
          <path id="Path_117" data-name="Path 117" d="M-72.756,185.5l.711-1.3a8.167,8.167,0,0,1,.719-.992,5.075,5.075,0,0,0,.754-1.128c.092-.225.728-.552.979-.735.082-.059-.02-.177-.1-.119a2.978,2.978,0,0,0-.739,1.121c-.189.378-.362.766-.522,1.158a3.42,3.42,0,0,1-.616,1.022c-.123.144-.527.4-.127.543l-.023-.132-.578.536c-.285.266-.595.643-.958.264a1.961,1.961,0,0,1-.372-1.635.077.077,0,0,0-.033-.07c-.231-.135-.172-1.02-.18-1.257a7.484,7.484,0,0,0-.135-.92c-.042-.276.06-.586.046-.871a7.139,7.139,0,0,0-.121-1.082,4.127,4.127,0,0,1,.068-1.338c.012-.089-.048.008.071-.049.036-.017.111-.04.138-.078a1.713,1.713,0,0,0,.131-.5c.078-.311.129-.625.184-.943a2.482,2.482,0,0,1,.308-.265c.093-.078.126-.256.171-.363s-.108-.148-.146-.055a1.213,1.213,0,0,1-.438.558c-.128.1-.115.479-.142.629-.042.238-.106.471-.164.705-.042.166-.024.132-.181.207a.117.117,0,0,0-.082.108c-.167,1.11.091,2.163.006,3.281a10.541,10.541,0,0,0,.144,1.268,3.277,3.277,0,0,0,.12.927c.017.046.073.213.079.105-.008.148-.012.3-.015.445a1.614,1.614,0,0,0,.493,1.366c.51.45.933-.151,1.3-.49l.39-.363a.079.079,0,0,0-.023-.133c-.167-.061.151-.249.234-.345a1.908,1.908,0,0,0,.32-.382c.1-.227.2-.45.3-.679.142-.347.3-.689.46-1.026a3.014,3.014,0,0,1,.738-1.147l-.1-.119-.577.418c-.1.073-.343.129-.392.247a4.946,4.946,0,0,1-.736,1.155,8.536,8.536,0,0,0-.747,1.014q-.368.675-.738,1.348c-.048.087.08.178.128.089" transform="translate(97.942 -157.453)" fill="#001543"/>
          <path id="Path_118" data-name="Path 118" d="M-73.923,183.716l.26-.082c.126-.04.2.193.254.288a.217.217,0,0,0,.163.138l1.187.188a1.019,1.019,0,0,0,.868-.385.315.315,0,0,0,.051-.179c0,.013-.11.057.042.032l.6-.1a.078.078,0,0,0-.027-.154l-.706.118a.079.079,0,0,0-.063.091c.065.341-.617.442-.849.405l-.879-.139-.227-.036s-.06-.3-.135-.351c-.193-.136-.355-.053-.562.012-.095.03-.069.184.027.154" transform="translate(97.879 -159.953)" fill="#001543"/>
          <path id="Path_119" data-name="Path 119" d="M-72.805,176.618c-.018.4.069,1.053-.185,1.371s-.127.9-.126,1.3a2.138,2.138,0,0,0,.121.534,4.8,4.8,0,0,1,.067.539c.075.466.567-.15.682-.261a.079.079,0,0,0,.02-.093c-.12-.238.686-.317.819-.332.2-.024.24.258.5.234.242-.022.455-.283.627-.3.23-.029.458-.061.687-.095s.218.03.471.127c.119.046.282.027.311-.121.1-.507-.075-.978.1-1.451a.078.078,0,0,0-.146-.054,3.184,3.184,0,0,0-.087,1.22c0,.391-.191.187-.432.1-.138-.052-.416.052-.559.074-.116.017-.349-.009-.433.069-.281.259-.486.219-.821.069a1.516,1.516,0,0,0-1.19.257.174.174,0,0,0-.032.157c.043.138.08.012-.044.131l-.232.224c-.136.131-.105-.193-.1-.258.01-.335-.17-.661-.17-1.009q0-.389,0-.778c0-.142.183-.215.219-.362a6.8,6.8,0,0,0,.093-1.269c0-.1-.151-.116-.155-.015" transform="translate(97.581 -157.553)" fill="#001543"/>
          <path id="Path_120" data-name="Path 120" d="M-71.113,175.228c.231.165.234.157.3.433a2.208,2.208,0,0,0,.234.494c.162.308.107.657.435.82.148.073.243.233.392.3s.312.134.466.207a2.138,2.138,0,0,0,2.076-.288,1.441,1.441,0,0,0,.422-.251c.119-.151.447-.247.561-.042a.609.609,0,0,0,.1.171.4.4,0,0,0,.647-.1c.272-.441-.1-.6-.2-.959-.069-.236-.366-.2-.512-.341l-.5-.464c-.072-.067-.193.033-.119.1a2.871,2.871,0,0,0,.77.6c.159.072.261.33.381.471a1.6,1.6,0,0,1,.136.21c.133.214-.238.514-.438.408-.091-.049-.111-.136-.167-.237-.086-.153-.393-.128-.527-.091a.934.934,0,0,0-.255.177c-.229.14-.467.266-.706.391a1.89,1.89,0,0,1-1.826,0,1.712,1.712,0,0,1-.487-.307.461.461,0,0,0-.1-.071l-.13-.064c-.116-.058-.027.04-.05-.034a5.146,5.146,0,0,0-.381-.962,1.913,1.913,0,0,1-.138-.46c-.023-.1-.217-.182-.294-.237a.078.078,0,0,0-.089.128" transform="translate(96.884 -157.045)" fill="#001543"/>
          <path id="Path_121" data-name="Path 121" d="M-64.752,177.814a.944.944,0,0,1-.211.7c-.108.1-.241.112-.327.252a.5.5,0,0,0-.066.255c0,.1.157.116.156.015,0-.306.352-.335.475-.581a1.338,1.338,0,0,0,.128-.625c0-.1-.158-.116-.155-.015" transform="translate(94.874 -157.969)" fill="#001543"/>
          <path id="Path_122" data-name="Path 122" d="M-72.915,191.034c-.078.469-.3.871-.38,1.332A1.216,1.216,0,0,0-73.2,193a1.075,1.075,0,0,0,.2.212c.083.057.051.172.051.336,0,.1.156.116.156.015,0-.206.058-.358-.117-.479-.222-.151-.21-.452-.223-.689a1.67,1.67,0,0,1,.207-.642,4.018,4.018,0,0,0,.171-.7c.018-.1-.139-.113-.155-.014" transform="translate(97.633 -162.559)" fill="#001543"/>
          <path id="Path_123" data-name="Path 123" d="M-72.412,191.137a3.611,3.611,0,0,1-.045,1.028,2.834,2.834,0,0,1-.375.9c-.052.086.076.176.128.089a2.782,2.782,0,0,0,.383-.886,4,4,0,0,0,.063-1.159c-.006-.1-.159-.072-.154.027" transform="translate(97.474 -162.587)" fill="#001543"/>
          <path id="Path_124" data-name="Path 124" d="M-71.571,190.981a1.208,1.208,0,0,0-.183.616v.708a1.811,1.811,0,0,1-.627,1.235c-.067.076.063.164.128.089.264-.3.655-.667.655-1.113v-.694a1.482,1.482,0,0,1,.174-.787c.044-.091-.1-.144-.147-.054" transform="translate(97.32 -162.548)" fill="#001543"/>
          <path id="Path_125" data-name="Path 125" d="M-72.134,194.5c.265-.069.528-.148.787-.239a1.464,1.464,0,0,0,.376-.172.283.283,0,0,0,.086-.087c.125-.217.121-.155.245-.082a.5.5,0,0,1,.2.26c.074.2.127.252.066.4a1.067,1.067,0,0,0-.126.736c.069.34-.131.424-.435.347-.243-.062-.253-.306-.542-.271.016,0-.092-.172-.083-.271.011-.125.149-.237.221-.341a.657.657,0,0,0,.172-.655c-.025-.1-.179-.071-.153.027.08.311-.1.518-.3.743-.172.192-.065.413.042.614a.08.08,0,0,0,.084.043c.245-.03.24.189.45.242.147.037.423.137.548.012a.491.491,0,0,0,.154-.518,1.076,1.076,0,0,1,.146-.718c.1-.23-.236-.9-.546-.868a.315.315,0,0,0-.227.127.593.593,0,0,1-.373.266,7,7,0,0,1-.819.253c-.1.025-.071.18.027.154" transform="translate(97.258 -163.507)" fill="#001543"/>
          <path id="Path_126" data-name="Path 126" d="M-69.237,188.647v2.663c0,.128-.089.174-.182.283-.123.144,0,.753,0,.947a.081.081,0,0,0,.05.08c.227.112.527.371.785.282a1.756,1.756,0,0,1,.708-.131c.185,0,.37.016.555.029a.078.078,0,0,0,.015-.156c-.272-.019-.544-.032-.817-.031-.215,0-.5.2-.661.124l-.432-.215c-.113-.056-.049-.054-.048.02,0-.049,0-.1,0-.148,0-.3-.09-.635.1-.861.1-.119.082-.183.082-.339v-2.533c0-.1-.155-.116-.155-.015" transform="translate(96.304 -161.73)" fill="#001543"/>
          <path id="Path_127" data-name="Path 127" d="M-68.51,187.822a2.773,2.773,0,0,1-.057.562c-.057.256.1.341.139.589.058.416-.09.839-.055,1.266a4.038,4.038,0,0,1-.1,1.161,2.126,2.126,0,0,0-.12.762c.029.187.232.228.287.415.028.1.182.069.154-.027a1.391,1.391,0,0,0-.059-.2c-.051-.108-.227-.087-.228-.253a3.372,3.372,0,0,1,.163-.848,2.479,2.479,0,0,0,.023-.526,4.348,4.348,0,0,0,.037-.512c-.033-.4.092-.786.063-1.184a.945.945,0,0,0-.065-.347c-.041-.078-.106-.11-.1-.2.02-.216.069-.413.074-.639,0-.1-.153-.116-.155-.015" transform="translate(96.04 -161.444)" fill="#001543"/>
          <path id="Path_128" data-name="Path 128" d="M-68.557,193a5.766,5.766,0,0,1,.01,1.172l.138-.043-.078-.117-.045-.067c-.04-.06-.007-.044-.015,0,.014-.089.028-.178.042-.268q.052-.333.1-.667c.015-.1-.14-.114-.156-.014q-.058.373-.116.746c-.01.059-.052.172-.023.232a2.079,2.079,0,0,0,.168.251c.042.063.127.015.138-.043a5.814,5.814,0,0,0-.01-1.172c0-.1-.159-.115-.156-.014" transform="translate(96.037 -163.243)" fill="#001543"/>
          <path id="Path_129" data-name="Path 129" d="M-67.535,193.7c0,.243-.369.5-.052.724.172.121.43.059.627.1a4.114,4.114,0,0,1,.606.233.79.79,0,0,0,.51.04.132.132,0,0,0,.024-.234c-.333-.222-.849-.356-.685-.842a.08.08,0,0,0-.029-.091c-.322-.257-.294-.552-.315-.935l-.074-1.33c-.005-.1-.159-.072-.153.027l.1,1.863a1.1,1.1,0,0,0,.123.306c.018.043.094.087.123.113.084.07.073,0,.044.086a.426.426,0,0,0,.143.525c.1.085.517.435.629.371-.2.115-.656-.15-.848-.228-.113-.046-.912-.144-.779-.317a.557.557,0,0,0,.159-.4c0-.1-.157-.115-.155-.014" transform="translate(95.693 -162.678)" fill="#001543"/>
          <path id="Path_130" data-name="Path 130" d="M-66.577,191.8q.154.972.307,1.944a.078.078,0,0,0,.154-.027q-.154-.971-.307-1.944a.078.078,0,0,0-.154.027" transform="translate(95.298 -162.818)" fill="#001543"/>
          <path id="Path_131" data-name="Path 131" d="M-65.769,191.581q-.081-.414-.163-.828c-.039-.2.082-.412.02-.612a3.51,3.51,0,0,1-.226-.708,1.591,1.591,0,0,0-.022-.366,1.65,1.65,0,0,1-.129-.428,7.611,7.611,0,0,0,.039-1.411q-.118-.9-.234-1.8c-.013-.1-.167-.072-.154.027q.113.869.226,1.738a7.778,7.778,0,0,1-.033,1.439c-.012.217.137.471.148.7a3.155,3.155,0,0,0,.21.762c.069.222-.047.433,0,.651q.085.43.169.86a.078.078,0,0,0,.154-.027" transform="translate(95.32 -160.614)" fill="#001543"/>
          <path id="Path_132" data-name="Path 132" d="M-67.764,185.833l.084,1.7c.009.188-.124.381-.1.566a2.194,2.194,0,0,1-.039.9,1.634,1.634,0,0,0,.007.656c.026.176.052.352.078.528a1.828,1.828,0,0,1-.165.26.841.841,0,0,0-.055.3c-.016.105-.137.16-.146.258a2.629,2.629,0,0,0,.109.755c.022.1.176.072.154-.027-.029-.132-.17-.616-.1-.7.16-.2.12-.424.258-.633s.086-.327.047-.587a2.242,2.242,0,0,1-.014-.877,1.774,1.774,0,0,0,.038-.738c-.035-.225.089-.427.078-.65q-.043-.867-.086-1.732c-.005-.1-.159-.072-.154.027" transform="translate(95.826 -160.746)" fill="#001543"/>
          <path id="Path_133" data-name="Path 133" d="M-65.7,187.259q.07-.513.14-1.027a1.876,1.876,0,0,0-.176-.73,17.787,17.787,0,0,1-.418-1.992.078.078,0,0,0-.154.027,16.619,16.619,0,0,0,.373,1.847,2.306,2.306,0,0,1,.219.834q-.07.514-.14,1.027c-.013.1.142.114.156.014" transform="translate(95.205 -159.949)" fill="#001543"/>
          <path id="Path_134" data-name="Path 134" d="M-63.713,182.5a1.212,1.212,0,0,1,.072.249.473.473,0,0,1-.008.224c-.016.054-.076.084-.09.138a.254.254,0,0,0,.007.163c.069.184-.033.274-.18.385-.08.061.021.18.1.119a.59.59,0,0,0,.265-.321c.014-.083-.075-.24-.042-.3a.593.593,0,0,0,.108-.38,1.094,1.094,0,0,0-.092-.343c-.039-.092-.18-.025-.141.067" transform="translate(94.383 -159.58)" fill="#001543"/>
          <path id="Path_135" data-name="Path 135" d="M-64.387,184.413c-.076.283-.233.317-.237.631,0,.161.01.324.022.484.009.13.045,0-.008.056l-.215.212a1.025,1.025,0,0,0-.277.691.986.986,0,0,0,.04.521c.123.254.105.334-.057.529-.065.078.064.166.128.089a1.072,1.072,0,0,0,.207-.278c.07-.187-.106-.307-.155-.475a1.052,1.052,0,0,1,.333-1.074c.195-.193.16-.232.145-.51-.006-.106-.061-.439.051-.492s.145-.237.17-.332-.121-.151-.147-.054" transform="translate(94.798 -160.266)" fill="#001543"/>
          <path id="Path_136" data-name="Path 136" d="M-64.811,178.715l.158.369.048.113c.018.052.022.044.014-.023-.029.026-.084.062-.1.1-.039.1.048.309.069.413.012.065-.08.183-.152.3a.08.08,0,0,0,.037.118c.38.187.871.463,1.2.021.289-.392.108-1.042.114-1.481,0-.236-.112-.36-.26-.588-.055-.084-.174.018-.119.1l.189.289c.093.142.054-.029.04.1a9.011,9.011,0,0,1-.016,1.321c-.151.6-.752.258-1.089.093l.037.118c.048-.078.211-.248.191-.347l-.059-.3c-.028-.145-.048-.071.048-.161a.079.079,0,0,0,.02-.093l-.226-.529c-.039-.093-.18-.025-.141.067" transform="translate(94.687 -158.067)" fill="#001543"/>
          <path id="Path_137" data-name="Path 137" d="M-65.634,179.847c-.176,0-.61-.091-.749.03l-.909.792-.784.684c-.13.113.02.693.033.854a.078.078,0,0,0,.127.046l1.071-1.027.544-.523c.112-.107.275-.074.472-.089.1-.008.072-.161-.027-.154-.124.01-.387-.028-.482.063l-.485.465-1.195,1.146.128.046-.035-.434c-.008-.1-.016-.2-.024-.294s-.064.052,0,0l.757-.661.842-.734c.111-.1.011-.053.2-.053h.5c.1,0,.115-.155.014-.155" transform="translate(95.837 -158.687)" fill="#001543"/>
          <path id="Path_138" data-name="Path 138" d="M-65.473,179.847q.023.358.044.717c.007.1.161.072.154-.027q-.023-.358-.044-.717c-.007-.1-.16-.072-.154.027" transform="translate(94.915 -158.667)" fill="#001543"/>
          <path id="Path_139" data-name="Path 139" d="M-67.926,182.377h1.462c.311,0,.623.1.83-.149q.569-.677,1.136-1.353l.3-.353c.087-.1.015-.473.015-.6a.08.08,0,0,0-.072-.086h-.315c-.1,0-.116.156-.015.156h.293c-.04-.086-.055-.1-.048-.027v.225c0,.245.03.227-.116.4l-1.151,1.37-.181.215c-.081.1-.053.05-.017.05h-2.1c-.1,0-.116.155-.014.155" transform="translate(95.79 -158.693)" fill="#001543"/>
          <path id="Path_140" data-name="Path 140" d="M-62.474,180.752h-.361c-.1,0-.116.155-.015.155h.362c.1,0,.115-.155.014-.155" transform="translate(94.028 -159.013)" fill="#001543"/>
          <path id="Path_141" data-name="Path 141" d="M-64.318,175.878c-.151-.039-.362-.114-.488,0-.164.156-.433.212-.567.4a.078.078,0,0,0,.128.09,1.855,1.855,0,0,1,.475-.319c.076-.051.085-.078.181-.069a1.456,1.456,0,0,1,.217.043c.1.025.151-.121.054-.147" transform="translate(94.885 -157.3)" fill="#001543"/>
          <path id="Path_142" data-name="Path 142" d="M-79.9,167.516l.366.052.074.055-.007.118H-79.9Z" transform="translate(99.925 -154.417)" fill="#001543"/>
          <path id="Path_143" data-name="Path 143" d="M-78.893,167.568a.111.111,0,0,0,.065.157.656.656,0,0,0,.33-.01l-.065-.186s-.04-.042-.052-.03-.278.069-.278.069" transform="translate(99.578 -154.41)" fill="#001543"/>
          <path id="Path_144" data-name="Path 144" d="M-70.519,167.89l.093-.008.022.027-.023.039-.065-.015Z" transform="translate(96.667 -154.544)" fill="#001543"/>
          <path id="Path_145" data-name="Path 145" d="M-95.786,183.124h2.855v1.1h-2.956v-1.146Z" transform="translate(105.475 -159.82)" fill="#001543"/>
          <path id="Path_146" data-name="Path 146" d="M-95.786,183.124h2.855v1.1h-2.956v-1.146Z" transform="translate(105.475 -159.82)" fill="none" stroke="#001543" stroke-width="0.16"/>
          <path id="Path_147" data-name="Path 147" d="M-99.324,182.757h2.242v1.136H-98.9s-.337-.855-.422-1.136" transform="translate(106.668 -159.709)" fill="#001543"/>
          <path id="Path_148" data-name="Path 148" d="M-99.324,182.757h2.242v1.136H-98.9S-99.239,183.038-99.324,182.757Z" transform="translate(106.668 -159.709)" fill="none" stroke="#001543" stroke-width="0.16"/>
          <path id="Path_149" data-name="Path 149" d="M-91.359,183.15v1.035l2.647-.214v-.762Z" transform="translate(103.903 -159.845)" fill="#001543"/>
          <path id="Path_150" data-name="Path 150" d="M-91.359,183.15v1.035l2.647-.214v-.762l-2.647-.059" transform="translate(103.903 -159.845)" fill="none" stroke="#001543" stroke-width="0.16"/>
          <path id="Path_151" data-name="Path 151" d="M-87.3,183.275h2.11l.081.606-2.178-.006v-.6" transform="translate(102.495 -159.889)" fill="#001543"/>
          <path id="Path_152" data-name="Path 152" d="M-87.3,183.275h2.11l.081.606-2.178-.006v-.6" transform="translate(102.495 -159.889)" fill="none" stroke="#001543" stroke-width="0.16"/>
          <path id="Path_153" data-name="Path 153" d="M-87.233,186.032l1.324-.324h-1.324Z" transform="translate(102.47 -160.733)" fill="#001543"/>
          <path id="Path_154" data-name="Path 154" d="M-87.233,186.032l1.324-.324h-1.324Z" transform="translate(102.47 -160.733)" fill="none" stroke="#001543" stroke-width="0.16"/>
          <path id="Path_155" data-name="Path 155" d="M-95.85,188.389v-.819H-93Z" transform="translate(105.462 -161.38)" fill="#001543"/>
          <path id="Path_156" data-name="Path 156" d="M-95.85,188.389v-.819H-93Z" transform="translate(105.462 -161.38)" fill="none" stroke="#001543" stroke-width="0.16"/>
          <path id="Path_157" data-name="Path 157" d="M-55.513,189.475l-2.364-.845h3.093s-.547.845-.729.845" transform="translate(92.277 -161.748)" fill="#001543"/>
          <path id="Path_158" data-name="Path 158" d="M-55.513,189.475l-2.364-.845h3.093S-55.331,189.475-55.513,189.475Z" transform="translate(92.277 -161.748)" fill="none" stroke="#001543" stroke-width="0.16"/>
          <path id="Path_159" data-name="Path 159" d="M-53.139,183.606h1.792a3.413,3.413,0,0,1-.581,1.4l-1.211-.21Z" transform="translate(90.632 -160.004)" fill="#001543"/>
          <path id="Path_160" data-name="Path 160" d="M-53.139,183.606h1.792a3.413,3.413,0,0,1-.581,1.4l-1.211-.21Z" transform="translate(90.632 -160.004)" fill="none" stroke="#001543" stroke-width="0.16"/>
          <rect id="Rectangle_60" data-name="Rectangle 60" width="3.32" height="0.999" transform="translate(34.173 23.784)" fill="#001543"/>
          <rect id="Rectangle_61" data-name="Rectangle 61" width="3.32" height="0.999" transform="translate(34.173 23.784)" fill="none" stroke="#001543" stroke-width="0.16"/>
          <path id="Path_161" data-name="Path 161" d="M-59.438,183.884v.995l-2.281-.282v-.713Z" transform="translate(93.611 -160.1)" fill="#001543"/>
          <path id="Path_162" data-name="Path 162" d="M-59.438,183.884v.995l-2.281-.282v-.713Z" transform="translate(93.611 -160.1)" fill="none" stroke="#001543" stroke-width="0.16"/>
          <path id="Path_163" data-name="Path 163" d="M-62.475,183.825h-1.093s-.215.525-.341.548c-.023,0,1.435,0,1.435,0Z" transform="translate(94.372 -160.08)" fill="#001543"/>
          <path id="Path_164" data-name="Path 164" d="M-62.475,183.825h-1.093s-.215.525-.341.548c-.023,0,1.435,0,1.435,0Z" transform="translate(94.372 -160.08)" fill="none" stroke="#001543" stroke-width="0.16"/>
          <path id="Path_165" data-name="Path 165" d="M-88.109,160.438l.831,1.482s.1.416,0,.4-.24-.131-.3-.057-.18.438.3.438.493-.783.337-.868a11.157,11.157,0,0,1-.866-1.555Z" transform="translate(102.774 -151.905)" fill="#001543"/>
          <path id="Path_166" data-name="Path 166" d="M-88.109,160.438l.831,1.482s.1.416,0,.4-.24-.131-.3-.057-.18.438.3.438.493-.783.337-.868a11.157,11.157,0,0,1-.866-1.555Z" transform="translate(102.774 -151.905)" fill="none" stroke="#001543" stroke-width="0.16"/>
          <path id="Path_167" data-name="Path 167" d="M-87.223,159.755l.139.263.176.14s.775-.008.775-.366a1.469,1.469,0,0,0-.1-.445l-.328.191.067.2-.445.128-.07-.2Z" transform="translate(102.467 -151.58)" fill="#001543"/>
          <path id="Path_168" data-name="Path 168" d="M-87.223,159.755l.139.263.176.14s.775-.008.775-.366a1.469,1.469,0,0,0-.1-.445l-.328.191.067.2-.445.128-.07-.2Z" transform="translate(102.467 -151.58)" fill="none" stroke="#001543" stroke-width="0.16"/>
          <path id="Path_169" data-name="Path 169" d="M-85.532,170.019l.153-.056.189,1.33h-.133l-.2-.363a3.221,3.221,0,0,1-.253-.635c.053,0,.245-.276.245-.276" transform="translate(101.967 -155.266)" fill="#001543"/>
          <path id="Path_170" data-name="Path 170" d="M-85.532,170.019l.153-.056.189,1.33h-.133l-.2-.363a3.221,3.221,0,0,1-.253-.635C-85.724,170.3-85.532,170.019-85.532,170.019Z" transform="translate(101.967 -155.266)" fill="none" stroke="#001543" stroke-width="0.16"/>
          <path id="Path_171" data-name="Path 171" d="M-83.875,170.055s.149-.569.3-.6.423.039.415.089.173-.051.173-.051l.116-.262-.343-.131.118-.333-.445-.378-.187,0-.142.5Z" transform="translate(101.304 -154.721)" fill="#001543"/>
          <path id="Path_172" data-name="Path 172" d="M-83.875,170.055s.149-.569.3-.6.423.039.415.089.173-.051.173-.051l.116-.262-.343-.131.118-.333-.445-.378-.187,0-.142.5Z" transform="translate(101.304 -154.721)" fill="none" stroke="#001543" stroke-width="0.16"/>
          <path id="Path_173" data-name="Path 173" d="M-62.639,159.713s-.51.516.422.871c.152.057.384-.41.384-.41l-.131-.046-.156.1a.243.243,0,0,1-.258-.258.247.247,0,0,0-.261-.259" transform="translate(93.979 -151.707)" fill="#001543"/>
          <path id="Path_174" data-name="Path 174" d="M-62.639,159.713s-.51.516.422.871c.152.057.384-.41.384-.41l-.131-.046-.156.1a.243.243,0,0,1-.258-.258A.247.247,0,0,0-62.639,159.713Z" transform="translate(93.979 -151.707)" fill="none" stroke="#001543" stroke-width="0.16"/>
          <path id="Path_175" data-name="Path 175" d="M-61.9,162.849s-.249-.063-.012-.4,1.114-1.561,1.114-1.561l-.331-.18-1.136,1.65s-.3.469.126.7.252-.193.24-.217" transform="translate(93.835 -152.054)" fill="#001543"/>
          <path id="Path_176" data-name="Path 176" d="M-61.9,162.849s-.249-.063-.012-.4,1.114-1.561,1.114-1.561l-.331-.18-1.136,1.65s-.3.469.126.7S-61.883,162.873-61.9,162.849Z" transform="translate(93.835 -152.054)" fill="none" stroke="#001543" stroke-width="0.16"/>
          <path id="Path_177" data-name="Path 177" d="M-62.262,185.993v-.354h-.85v.086l-.007.024Z" transform="translate(94.097 -160.709)" fill="#001543"/>
          <path id="Path_178" data-name="Path 178" d="M-62.262,185.993v-.354h-.85v.086l-.007.024Z" transform="translate(94.097 -160.709)" fill="none" stroke="#001543" stroke-width="0.16"/>
          <path id="Path_179" data-name="Path 179" d="M-65.661,170.277s.229.06.229.154-.042.546-.042.546.444.732.49.778v-3.137l-.223-.565-.706.616.291.34Z" transform="translate(95.068 -154.603)" fill="#001543"/>
          <path id="Path_180" data-name="Path 180" d="M-65.661,170.277s.229.06.229.154-.042.546-.042.546.444.732.49.778v-3.137l-.223-.565-.706.616.291.34Z" transform="translate(95.068 -154.603)" fill="none" stroke="#001543" stroke-width="0.16"/>
          <path id="Path_181" data-name="Path 181" d="M-84.6,164.578l-.023-.339.046-.045s.873-6.325,6.709-6.325c6.174,0,6.741,6.588,6.741,6.588l-.708-.014a5.873,5.873,0,0,0-6.061-5.3c-5.132,0-5.829,5.422-5.829,5.422l-.08.116Z" transform="translate(101.564 -151.067)" fill="#001543"/>
          <path id="Path_182" data-name="Path 182" d="M-90.284,176.614l-2.647.709v-16.49m2.647,15.149h2.443m13.39.014h.9m-.031,1.127,2.3.79h3.434m-6.625-1.82h-.691m7.183,1.836V163.7M-71.3,160.6v17.288m-.871-17.759-1.4,1.917m-.005-2.23v17.37m-1.037-18.215v10.862m.1,3.812v2.5m-.178-17.268-.027.621.685-.106m-1.332,5.689v3.136m-.254-3.758-.8.691.345.345v1.325m1.492-2.36h-1.033l.337.711h.717m-13.314-.49-.17.554m-.53,0h.53v1.436m-.758-1.99h1.088l.487.391-.16.375.244.07m-2.883-6.019v1.01m-1.313-.64,1.079,1.7m1.222-2.293v5.109m0,1.432v1.022m0,3.5v5.613m.254-17.385v.763h-.371m-1.127,2.169v15.151m-2.6.627h-2.957m-.047-13.823V178.1m7.378-13.522-.023-.339.046-.045s.873-6.325,6.709-6.325c6.174,0,6.741,6.588,6.741,6.588l-.708-.014a5.873,5.873,0,0,0-6.061-5.3c-5.132,0-5.829,5.422-5.829,5.422l-.08.116Z" transform="translate(105.475 -151.067)" fill="none" stroke="#001543" stroke-width="0.16"/>
          <path id="Path_183" data-name="Path 183" d="M-88.911,198.551l.166.076.847.387a1.013,1.013,0,0,1,.593.676,1.5,1.5,0,0,1-.134,1.026,1.469,1.469,0,0,1-.694.766,1.049,1.049,0,0,1-.919-.018l-.82-.375-.166-.076Zm-.665,2.33.611.28a.735.735,0,0,0,.668.007,1.205,1.205,0,0,0,.515-.61,1.246,1.246,0,0,0,.133-.787.693.693,0,0,0-.42-.492l-.64-.293Z" transform="translate(103.444 -165.193)" fill="#fff"/>
          <path id="Path_184" data-name="Path 184" d="M-88.911,198.551l.166.076.847.387a1.013,1.013,0,0,1,.593.676,1.5,1.5,0,0,1-.134,1.026,1.469,1.469,0,0,1-.694.766,1.049,1.049,0,0,1-.919-.018l-.82-.375-.166-.076Zm-.665,2.33.611.28a.735.735,0,0,0,.668.007,1.205,1.205,0,0,0,.515-.61,1.246,1.246,0,0,0,.133-.787.693.693,0,0,0-.42-.492l-.64-.293Z" transform="translate(103.444 -165.193)" fill="none" stroke="#fff" stroke-width="0.479"/>
          <path id="Path_185" data-name="Path 185" d="M-84.388,200.382l.172.057.174.057-.849,2.572-.172-.057-.174-.057Z" transform="translate(101.777 -165.829)" fill="#fff"/>
          <path id="Path_186" data-name="Path 186" d="M-84.388,200.382l.172.057.174.057-.849,2.572-.172-.057-.174-.057Z" transform="translate(101.777 -165.829)" fill="none" stroke="#fff" stroke-width="0.479"/>
          <path id="Path_187" data-name="Path 187" d="M-79.236,201.628l.181.018,1.073.108a1.006,1.006,0,0,1,.634.253.675.675,0,0,1,.168.569.7.7,0,0,1-.289.531.783.783,0,0,1-.136.075l.058.036a.524.524,0,0,1,.207.5l-.035.493a.427.427,0,0,0,.013.177.222.222,0,0,0,.1.1l-.006.059-.449-.046a.833.833,0,0,1-.012-.175c0-.094,0-.2.01-.312l.013-.213a.492.492,0,0,0-.087-.371.545.545,0,0,0-.366-.146l-.868-.088-.118,1.159-.18-.018-.182-.018Zm.239,1.254.9.091a.527.527,0,0,0,.382-.073.466.466,0,0,0,.153-.34.435.435,0,0,0-.089-.354.592.592,0,0,0-.381-.148l-.876-.089Z" transform="translate(99.789 -166.261)" fill="#fff"/>
          <path id="Path_188" data-name="Path 188" d="M-79.236,201.628l.181.018,1.073.108a1.006,1.006,0,0,1,.634.253.675.675,0,0,1,.168.569.7.7,0,0,1-.289.531.783.783,0,0,1-.136.075l.058.036a.524.524,0,0,1,.207.5l-.035.493a.427.427,0,0,0,.013.177.222.222,0,0,0,.1.1l-.006.059-.449-.046a.833.833,0,0,1-.012-.175c0-.094,0-.2.01-.312l.013-.213a.492.492,0,0,0-.087-.371.545.545,0,0,0-.366-.146l-.868-.088-.118,1.159-.18-.018-.182-.018Zm.239,1.254.9.091a.527.527,0,0,0,.382-.073.466.466,0,0,0,.153-.34.435.435,0,0,0-.089-.354.592.592,0,0,0-.381-.148l-.876-.089Z" transform="translate(99.789 -166.261)" fill="none" stroke="#fff" stroke-width="0.479"/>
          <path id="Path_189" data-name="Path 189" d="M-74.066,204.272a1.45,1.45,0,0,1-.434-1,1.463,1.463,0,0,1,.294-1.057,1.243,1.243,0,0,1,.927-.457,1.241,1.241,0,0,1,.982.328,1.467,1.467,0,0,1,.433,1.008,1.451,1.451,0,0,1-.294,1.052,1.246,1.246,0,0,1-.93.456,1.244,1.244,0,0,1-.979-.327m1.62-.346a1.18,1.18,0,0,0,.206-.81,1.189,1.189,0,0,0-.313-.779.857.857,0,0,0-.7-.258.855.855,0,0,0-.661.35,1.187,1.187,0,0,0-.206.815,1.175,1.175,0,0,0,.313.775.856.856,0,0,0,.7.256.859.859,0,0,0,.663-.348" transform="translate(98.051 -166.303)" fill="#fff"/>
          <path id="Path_190" data-name="Path 190" d="M-74.066,204.272a1.45,1.45,0,0,1-.434-1,1.463,1.463,0,0,1,.294-1.057,1.243,1.243,0,0,1,.927-.457,1.241,1.241,0,0,1,.982.328,1.467,1.467,0,0,1,.433,1.008,1.451,1.451,0,0,1-.294,1.052,1.246,1.246,0,0,1-.93.456A1.244,1.244,0,0,1-74.066,204.272Zm1.62-.346a1.18,1.18,0,0,0,.206-.81,1.189,1.189,0,0,0-.313-.779.857.857,0,0,0-.7-.258.855.855,0,0,0-.661.35,1.187,1.187,0,0,0-.206.815,1.175,1.175,0,0,0,.313.775.856.856,0,0,0,.7.256A.859.859,0,0,0-72.445,203.926Z" transform="translate(98.051 -166.303)" fill="none" stroke="#fff" stroke-width="0.479"/>
          <path id="Path_191" data-name="Path 191" d="M-68.5,203.789l-.174.04-.175.041-.616-2.637.258-.06.258-.06,1.277,2.068h0l.222-2.419.257-.06.258-.06.616,2.637-.173.04-.175.041-.522-2.231h0l-.22,2.4-.172.04-.172.04-1.264-2.051Z" transform="translate(96.301 -165.919)" fill="#fff"/>
          <path id="Path_192" data-name="Path 192" d="M-68.5,203.789l-.174.04-.175.041-.616-2.637.258-.06.258-.06,1.277,2.068h0l.222-2.419.257-.06.258-.06.616,2.637-.173.04-.175.041-.522-2.231h0l-.22,2.4-.172.04-.172.04-1.264-2.051Z" transform="translate(96.301 -165.919)" fill="none" stroke="#fff" stroke-width="0.479"/>
          <path id="Path_193" data-name="Path 193" d="M-63.055,199.658l.193-.074.2-.074,1.873,2.184-.184.07-.184.07-.535-.633-1.012.386.013.831-.176.067-.178.068Zm.341,1.584.8-.3-.821-.975h0Z" transform="translate(94.075 -165.526)" fill="#fff"/>
          <path id="Path_194" data-name="Path 194" d="M-63.055,199.658l.193-.074.2-.074,1.873,2.184-.184.07-.184.07-.535-.633-1.012.386.013.831-.176.067-.178.068Zm.341,1.584.8-.3-.821-.975h0Z" transform="translate(94.075 -165.526)" fill="none" stroke="#fff" stroke-width="0.479"/>
          <path id="Path_195" data-name="Path 195" d="M-66.7,195.558c.006.067.082.128.131.166a1.641,1.641,0,0,0,.256.157c.064.035.146.1.212.133s.148.055.224.087c.1.041.293.219-.137.2a.853.853,0,0,1-.306-.066c-.1-.044-.2-.079-.305-.118-.121-.047-.242-.1-.365-.138a1.426,1.426,0,0,0-.4-.028.767.767,0,0,1-.206-.042c-.048-.014-.1-.008-.112-.057-.047-.232.066-.27.224-.318a.4.4,0,0,1,.166-.017,1.072,1.072,0,0,1,.473.128c.08.047.157.1.24.142a.114.114,0,0,0,.072.019c-.016-.058-.083-.1-.121-.147a.376.376,0,0,1-.041-.07" transform="translate(95.695 -164.137)" fill="#fff"/>
          <path id="Path_196" data-name="Path 196" d="M-71.094,196.12a.594.594,0,0,0,.578.364" transform="translate(96.866 -164.349)" fill="#fff"/>
          <ellipse id="Ellipse_2" data-name="Ellipse 2" cx="16.664" cy="13.333" rx="16.664" ry="13.333" transform="translate(6.836 6.437)" fill="none" stroke="#001543" stroke-width="0.399"/>
          <path id="Path_197" data-name="Path 197" d="M-103.491,186.34a1.072,1.072,0,0,1,.831-.136,1.064,1.064,0,0,1,.635.553,1.088,1.088,0,0,1,.151.834,1.087,1.087,0,0,1-.569.632l-1.515.843-.089-.161-.091-.163,1.492-.83a.832.832,0,0,0,.42-.44.674.674,0,0,0-.082-.557.673.673,0,0,0-.43-.363.837.837,0,0,0-.595.125l-1.492.83-.089-.161-.091-.163Z" transform="translate(108.641 -160.894)" fill="#001543"/>
          <path id="Path_198" data-name="Path 198" d="M-103.491,186.34a1.072,1.072,0,0,1,.831-.136,1.064,1.064,0,0,1,.635.553,1.088,1.088,0,0,1,.151.834,1.087,1.087,0,0,1-.569.632l-1.515.843-.089-.161-.091-.163,1.492-.83a.832.832,0,0,0,.42-.44.674.674,0,0,0-.082-.557.673.673,0,0,0-.43-.363.837.837,0,0,0-.595.125l-1.492.83-.089-.161-.091-.163Z" transform="translate(108.641 -160.894)" fill="none" stroke="#001543" stroke-width="0.319"/>
          <path id="Path_199" data-name="Path 199" d="M-103.645,183.072l.05.172.049.172-2.634.757-.061-.213-.062-.215,1.764-1.932-2.142.615-.049-.172-.05-.172,2.634-.756.056.2.056.2-1.76,1.972Z" transform="translate(109.258 -159.212)" fill="#001543"/>
          <path id="Path_200" data-name="Path 200" d="M-103.645,183.072l.05.172.049.172-2.634.757-.061-.213-.062-.215,1.764-1.932-2.142.615-.049-.172-.05-.172,2.634-.756.056.2.056.2-1.76,1.972Z" transform="translate(109.258 -159.212)" fill="none" stroke="#001543" stroke-width="0.319"/>
          <path id="Path_201" data-name="Path 201" d="M-107.082,180.065l-.019-.183-.02-.186,2.725-.285.02.183.02.186Z" transform="translate(109.375 -158.547)" fill="#001543"/>
          <path id="Path_202" data-name="Path 202" d="M-107.082,180.065l-.019-.183-.02-.186,2.725-.285.02.183.02.186Z" transform="translate(109.375 -158.547)" fill="none" stroke="#001543" stroke-width="0.319"/>
          <path id="Path_203" data-name="Path 203" d="M-107.27,177.368l.008-.2.008-.207,2.374-.69v0l-2.31-.876.008-.2.008-.2,2.7,1.106-.008.2-.008.2Z" transform="translate(109.428 -157.008)" fill="#001543"/>
          <path id="Path_204" data-name="Path 204" d="M-107.27,177.368l.008-.2.008-.207,2.374-.69v0l-2.31-.876.008-.2.008-.2,2.7,1.106-.008.2-.008.2Z" transform="translate(109.428 -157.008)" fill="none" stroke="#001543" stroke-width="0.319"/>
          <path id="Path_205" data-name="Path 205" d="M-104.2,173.1l-2.656-.677.495-1.943.158.04.158.04-.4,1.583.814.208.368-1.445.158.04.157.04-.368,1.445.9.228.409-1.6.158.04.157.04Z" transform="translate(109.285 -155.447)" fill="#001543"/>
          <path id="Path_206" data-name="Path 206" d="M-104.2,173.1l-2.656-.677.495-1.943.158.04.158.04-.4,1.583.814.208.368-1.445.158.04.157.04-.368,1.445.9.228.409-1.6.158.04.157.04Z" transform="translate(109.285 -155.447)" fill="none" stroke="#001543" stroke-width="0.319"/>
          <path id="Path_207" data-name="Path 207" d="M-105.341,167.6l.084-.164.5-.969a1.006,1.006,0,0,1,.47-.5.679.679,0,0,1,.6.05.7.7,0,0,1,.393.467.864.864,0,0,1,.022.155l.054-.041a.533.533,0,0,1,.55-.01l.453.215a.446.446,0,0,0,.173.053.226.226,0,0,0,.133-.054l.052.027-.208.406a.815.815,0,0,1-.17-.054c-.089-.035-.186-.076-.292-.125l-.2-.091a.5.5,0,0,0-.383-.055.553.553,0,0,0-.272.291l-.4.78,1.055.539-.084.165-.085.166Zm1.27.233.416-.813a.53.53,0,0,0,.071-.384.472.472,0,0,0-.263-.268.438.438,0,0,0-.365-.046.592.592,0,0,0-.278.3l-.4.788Z" transform="translate(108.758 -153.861)" fill="#001543"/>
          <path id="Path_208" data-name="Path 208" d="M-105.341,167.6l.084-.164.5-.969a1.006,1.006,0,0,1,.47-.5.679.679,0,0,1,.6.05.7.7,0,0,1,.393.467.864.864,0,0,1,.022.155l.054-.041a.533.533,0,0,1,.55-.01l.453.215a.446.446,0,0,0,.173.053.226.226,0,0,0,.133-.054l.052.027-.208.406a.815.815,0,0,1-.17-.054c-.089-.035-.186-.076-.292-.125l-.2-.091a.5.5,0,0,0-.383-.055.553.553,0,0,0-.272.291l-.4.78,1.055.539-.084.165-.085.166Zm1.27.233.416-.813a.53.53,0,0,0,.071-.384.472.472,0,0,0-.263-.268.438.438,0,0,0-.365-.046.592.592,0,0,0-.278.3l-.4.788Z" transform="translate(108.758 -153.861)" fill="none" stroke="#001543" stroke-width="0.319"/>
          <path id="Path_209" data-name="Path 209" d="M-100.87,162.36a.546.546,0,0,0-.44-.09.77.77,0,0,0-.413.29.788.788,0,0,0-.2.447.414.414,0,0,0,.174.349.273.273,0,0,0,.253.064,1.361,1.361,0,0,0,.392-.242l.387-.3a1.073,1.073,0,0,1,.554-.258.707.707,0,0,1,.493.185.706.706,0,0,1,.283.589,1.222,1.222,0,0,1-.309.733,1.271,1.271,0,0,1-.721.5.84.84,0,0,1-.713-.195l-.016-.013.212-.264a.577.577,0,0,0,.5.119.915.915,0,0,0,.489-.349.948.948,0,0,0,.234-.479.39.39,0,0,0-.158-.354.357.357,0,0,0-.3-.092,1.306,1.306,0,0,0-.43.253l-.387.3a1.1,1.1,0,0,1-.509.255.568.568,0,0,1-.426-.144.778.778,0,0,1-.318-.6,1.067,1.067,0,0,1,.272-.708,1.106,1.106,0,0,1,.64-.43.839.839,0,0,1,.678.17Z" transform="translate(107.684 -152.471)" fill="#001543"/>
          <path id="Path_210" data-name="Path 210" d="M-100.87,162.36a.546.546,0,0,0-.44-.09.77.77,0,0,0-.413.29.788.788,0,0,0-.2.447.414.414,0,0,0,.174.349.273.273,0,0,0,.253.064,1.361,1.361,0,0,0,.392-.242l.387-.3a1.073,1.073,0,0,1,.554-.258.707.707,0,0,1,.493.185.706.706,0,0,1,.283.589,1.222,1.222,0,0,1-.309.733,1.271,1.271,0,0,1-.721.5.84.84,0,0,1-.713-.195l-.016-.013.212-.264a.577.577,0,0,0,.5.119.915.915,0,0,0,.489-.349.948.948,0,0,0,.234-.479.39.39,0,0,0-.158-.354.357.357,0,0,0-.3-.092,1.306,1.306,0,0,0-.43.253l-.387.3a1.1,1.1,0,0,1-.509.255.568.568,0,0,1-.426-.144.778.778,0,0,1-.318-.6,1.067,1.067,0,0,1,.272-.708,1.106,1.106,0,0,1,.64-.43.839.839,0,0,1,.678.17Z" transform="translate(107.684 -152.471)" fill="none" stroke="#001543" stroke-width="0.319"/>
          <path id="Path_211" data-name="Path 211" d="M-99.426,159.971l.134-.127.134-.129,1.894,1.982-.134.127-.134.129Z" transform="translate(106.704 -151.708)" fill="#001543"/>
          <path id="Path_212" data-name="Path 212" d="M-99.426,159.971l.134-.127.134-.129,1.894,1.982-.134.127-.134.129Z" transform="translate(106.704 -151.708)" fill="none" stroke="#001543" stroke-width="0.319"/>
          <path id="Path_213" data-name="Path 213" d="M-97.482,158.053l-.725.573-.1-.128-.1-.127,1.742-1.376.1.127.1.128-.725.573,1.5,1.9-.145.114-.146.116Z" transform="translate(106.351 -150.763)" fill="#001543"/>
          <path id="Path_214" data-name="Path 214" d="M-97.482,158.053l-.725.573-.1-.128-.1-.127,1.742-1.376.1.127.1.128-.725.573,1.5,1.9-.145.114-.146.116Z" transform="translate(106.351 -150.763)" fill="none" stroke="#001543" stroke-width="0.319"/>
          <path id="Path_215" data-name="Path 215" d="M-93.82,155.676l.181-.108.183-.108,2.246,1.853-.171.1-.17.1-.646-.54-.941.559.159.83-.164.1-.165.1Zm.616,1.52.745-.443-.988-.83h0Z" transform="translate(104.757 -150.231)" fill="#001543"/>
          <path id="Path_216" data-name="Path 216" d="M-93.82,155.676l.181-.108.183-.108,2.246,1.853-.171.1-.17.1-.646-.54-.941.559.159.83-.164.1-.165.1Zm.616,1.52.745-.443-.988-.83h0Z" transform="translate(104.757 -150.231)" fill="none" stroke="#001543" stroke-width="0.319"/>
          <path id="Path_217" data-name="Path 217" d="M-85.913,153.834a1.267,1.267,0,0,1-.106.877,1.159,1.159,0,0,1-.666.536,1.136,1.136,0,0,1-.982-.071,1.551,1.551,0,0,1-.663-.881,1.523,1.523,0,0,1-.016-1.108,1.2,1.2,0,0,1,.758-.679,1.187,1.187,0,0,1,.8-.025.99.99,0,0,1,.555.505l-.338.118a.66.66,0,0,0-.378-.317.841.841,0,0,0-.535.029.8.8,0,0,0-.519.5,1.26,1.26,0,0,0,.037.85,1.309,1.309,0,0,0,.487.709.786.786,0,0,0,.714.054.749.749,0,0,0,.435-.36.994.994,0,0,0,.08-.619Z" transform="translate(102.89 -149.177)" fill="#001543"/>
          <path id="Path_218" data-name="Path 218" d="M-85.913,153.834a1.267,1.267,0,0,1-.106.877,1.159,1.159,0,0,1-.666.536,1.136,1.136,0,0,1-.982-.071,1.551,1.551,0,0,1-.663-.881,1.523,1.523,0,0,1-.016-1.108,1.2,1.2,0,0,1,.758-.679,1.187,1.187,0,0,1,.8-.025.99.99,0,0,1,.555.505l-.338.118a.66.66,0,0,0-.378-.317.841.841,0,0,0-.535.029.8.8,0,0,0-.519.5,1.26,1.26,0,0,0,.037.85,1.309,1.309,0,0,0,.487.709.786.786,0,0,0,.714.054.749.749,0,0,0,.435-.36.994.994,0,0,0,.08-.619Z" transform="translate(102.89 -149.177)" fill="none" stroke="#001543" stroke-width="0.319"/>
          <path id="Path_219" data-name="Path 219" d="M-83.187,151.445l.206-.042.208-.045,1.529,2.479-.2.04-.195.042-.437-.72-1.07.227-.117.836-.186.039-.188.039Zm.093,1.637.847-.178-.668-1.1h0Z" transform="translate(101.22 -148.806)" fill="#001543"/>
          <path id="Path_220" data-name="Path 220" d="M-83.187,151.445l.206-.042.208-.045,1.529,2.479-.2.04-.195.042-.437-.72-1.07.227-.117.836-.186.039-.188.039Zm.093,1.637.847-.178-.668-1.1h0Z" transform="translate(101.22 -148.806)" fill="none" stroke="#001543" stroke-width="0.319"/>
          <path id="Path_221" data-name="Path 221" d="M-78.786,153.442l-.178.012-.18.012-.189-2.734.264-.019.266-.018.943,2.273.614-2.381.265-.018.265-.018.189,2.734-.178.012-.18.012L-77.044,151h0l-.61,2.367-.178.012-.178.012-.933-2.253h0Z" transform="translate(99.727 -148.526)" fill="#001543"/>
          <path id="Path_222" data-name="Path 222" d="M-78.786,153.442l-.178.012-.18.012-.189-2.734.264-.019.266-.018.943,2.273.614-2.381.265-.018.265-.018.189,2.734-.178.012-.18.012L-77.044,151h0l-.61,2.367-.178.012-.178.012-.933-2.253h0Z" transform="translate(99.727 -148.526)" fill="none" stroke="#001543" stroke-width="0.319"/>
          <path id="Path_223" data-name="Path 223" d="M-73.492,150.586l.184.012,1.011.067a.9.9,0,0,1,.608.241.705.705,0,0,1,.187.568.817.817,0,0,1-.264.594.85.85,0,0,1-.635.178q-.523-.036-.825-.05l-.076,1.15-.184-.012-.186-.012Zm.287,1.291.732.048a.613.613,0,0,0,.428-.094.493.493,0,0,0,.159-.373.408.408,0,0,0-.111-.347.671.671,0,0,0-.414-.134l-.732-.048Z" transform="translate(97.761 -148.538)" fill="#001543"/>
          <path id="Path_224" data-name="Path 224" d="M-73.492,150.586l.184.012,1.011.067a.9.9,0,0,1,.608.241.705.705,0,0,1,.187.568.817.817,0,0,1-.264.594.85.85,0,0,1-.635.178q-.523-.036-.825-.05l-.076,1.15-.184-.012-.186-.012Zm.287,1.291.732.048a.613.613,0,0,0,.428-.094.493.493,0,0,0,.159-.373.408.408,0,0,0-.111-.347.671.671,0,0,0-.414-.134l-.732-.048Z" transform="translate(97.761 -148.538)" fill="none" stroke="#001543" stroke-width="0.319"/>
          <path id="Path_225" data-name="Path 225" d="M-67.457,153.036a1.075,1.075,0,0,1-.424.728,1.068,1.068,0,0,1-.83.138,1.091,1.091,0,0,1-.74-.416,1.086,1.086,0,0,1-.125-.84l.314-1.705.181.033.183.034-.309,1.679a.837.837,0,0,0,.072.6.676.676,0,0,0,.482.29.67.67,0,0,0,.554-.1.836.836,0,0,0,.281-.539l.309-1.679.181.033.183.034Z" transform="translate(96.349 -148.662)" fill="#001543"/>
          <path id="Path_226" data-name="Path 226" d="M-67.457,153.036a1.075,1.075,0,0,1-.424.728,1.068,1.068,0,0,1-.83.138,1.091,1.091,0,0,1-.74-.416,1.086,1.086,0,0,1-.125-.84l.314-1.705.181.033.183.034-.309,1.679a.837.837,0,0,0,.072.6.676.676,0,0,0,.482.29.67.67,0,0,0,.554-.1.836.836,0,0,0,.281-.539l.309-1.679.181.033.183.034Z" transform="translate(96.349 -148.662)" fill="none" stroke="#001543" stroke-width="0.319"/>
          <path id="Path_227" data-name="Path 227" d="M-63.34,153.275a.544.544,0,0,0-.074-.443.763.763,0,0,0-.42-.281.792.792,0,0,0-.49-.029.415.415,0,0,0-.262.289.274.274,0,0,0,.031.258,1.347,1.347,0,0,0,.367.279l.421.253a1.068,1.068,0,0,1,.441.423.709.709,0,0,1,.005.527.706.706,0,0,1-.448.477,1.224,1.224,0,0,1-.8-.025,1.274,1.274,0,0,1-.724-.493.84.84,0,0,1-.076-.736l.007-.02.322.1a.577.577,0,0,0,.067.506.917.917,0,0,0,.5.33.947.947,0,0,0,.531.046.387.387,0,0,0,.274-.275.357.357,0,0,0-.022-.315,1.315,1.315,0,0,0-.392-.31l-.42-.253a1.1,1.1,0,0,1-.421-.384.568.568,0,0,1-.019-.449.779.779,0,0,1,.443-.512,1.07,1.07,0,0,1,.758,0,1.108,1.108,0,0,1,.632.443.84.84,0,0,1,.086.694Z" transform="translate(94.895 -149.089)" fill="#001543"/>
          <path id="Path_228" data-name="Path 228" d="M-63.34,153.275a.544.544,0,0,0-.074-.443.763.763,0,0,0-.42-.281.792.792,0,0,0-.49-.029.415.415,0,0,0-.262.289.274.274,0,0,0,.031.258,1.347,1.347,0,0,0,.367.279l.421.253a1.068,1.068,0,0,1,.441.423.709.709,0,0,1,.005.527.706.706,0,0,1-.448.477,1.224,1.224,0,0,1-.8-.025,1.274,1.274,0,0,1-.724-.493.84.84,0,0,1-.076-.736l.007-.02.322.1a.577.577,0,0,0,.067.506.917.917,0,0,0,.5.33.947.947,0,0,0,.531.046.387.387,0,0,0,.274-.275.357.357,0,0,0-.022-.315,1.315,1.315,0,0,0-.392-.31l-.42-.253a1.1,1.1,0,0,1-.421-.384.568.568,0,0,1-.019-.449.779.779,0,0,1,.443-.512,1.07,1.07,0,0,1,.758,0,1.108,1.108,0,0,1,.632.443.84.84,0,0,1,.086.694Z" transform="translate(94.895 -149.089)" fill="none" stroke="#001543" stroke-width="0.319"/>
          <path id="Path_229" data-name="Path 229" d="M-58.806,154.241l.162.087.9.485a.853.853,0,0,1,.412.426.586.586,0,0,1-.036.519.631.631,0,0,1-.476.349.68.68,0,0,1-.146.008.925.925,0,0,1,.151.219.638.638,0,0,1-.025.6.732.732,0,0,1-.514.4,1.113,1.113,0,0,1-.742-.155l-.824-.445-.162-.087Zm-.824,2.308.663.358a.721.721,0,0,0,.468.113.477.477,0,0,0,.315-.272.383.383,0,0,0,.025-.371.865.865,0,0,0-.376-.324l-.64-.345Zm.6-1.106.582.314a.72.72,0,0,0,.441.114.4.4,0,0,0,.285-.235.349.349,0,0,0,.029-.324.68.68,0,0,0-.311-.276l-.625-.337Z" transform="translate(93.052 -149.807)" fill="#001543"/>
          <path id="Path_230" data-name="Path 230" d="M-58.806,154.241l.162.087.9.485a.853.853,0,0,1,.412.426.586.586,0,0,1-.036.519.631.631,0,0,1-.476.349.68.68,0,0,1-.146.008.925.925,0,0,1,.151.219.638.638,0,0,1-.025.6.732.732,0,0,1-.514.4,1.113,1.113,0,0,1-.742-.155l-.824-.445-.162-.087Zm-.824,2.308.663.358a.721.721,0,0,0,.468.113.477.477,0,0,0,.315-.272.383.383,0,0,0,.025-.371.865.865,0,0,0-.376-.324l-.64-.345Zm.6-1.106.582.314a.72.72,0,0,0,.441.114.4.4,0,0,0,.285-.235.349.349,0,0,0,.029-.324.68.68,0,0,0-.311-.276l-.625-.337Z" transform="translate(93.052 -149.807)" fill="none" stroke="#001543" stroke-width="0.319"/>
          <path id="Path_231" data-name="Path 231" d="M-54.71,156.721l.151.105.153.106-1.561,2.252-.152-.105-.153-.106Z" transform="translate(91.72 -150.668)" fill="#001543"/>
          <path id="Path_232" data-name="Path 232" d="M-54.71,156.721l.151.105.153.106-1.561,2.252-.152-.105-.153-.106Z" transform="translate(91.72 -150.668)" fill="none" stroke="#001543" stroke-width="0.319"/>
          <path id="Path_233" data-name="Path 233" d="M-54.04,160.335a1.466,1.466,0,0,1,.428-1.019,1.479,1.479,0,0,1,.977-.526,1.254,1.254,0,0,1,.982.354,1.254,1.254,0,0,1,.447.946,1.479,1.479,0,0,1-.432,1.022,1.469,1.469,0,0,1-.973.524,1.258,1.258,0,0,1-.982-.358,1.252,1.252,0,0,1-.447-.943m1.382.939a1.2,1.2,0,0,0,.736-.42,1.211,1.211,0,0,0,.352-.776.861.861,0,0,0-.3-.693.859.859,0,0,0-.716-.234,1.21,1.21,0,0,0-.74.424,1.2,1.2,0,0,0-.349.772.86.86,0,0,0,.3.69.862.862,0,0,0,.717.237" transform="translate(90.945 -151.385)" fill="#001543"/>
          <path id="Path_234" data-name="Path 234" d="M-54.04,160.335a1.466,1.466,0,0,1,.428-1.019,1.479,1.479,0,0,1,.977-.526,1.254,1.254,0,0,1,.982.354,1.254,1.254,0,0,1,.447.946,1.479,1.479,0,0,1-.432,1.022,1.469,1.469,0,0,1-.973.524,1.258,1.258,0,0,1-.982-.358A1.252,1.252,0,0,1-54.04,160.335Zm1.382.939a1.2,1.2,0,0,0,.736-.42,1.211,1.211,0,0,0,.352-.776.861.861,0,0,0-.3-.693.859.859,0,0,0-.716-.234,1.21,1.21,0,0,0-.74.424,1.2,1.2,0,0,0-.349.772.86.86,0,0,0,.3.69A.862.862,0,0,0-52.658,161.273Z" transform="translate(90.945 -151.385)" fill="none" stroke="#001543" stroke-width="0.319"/>
          <rect id="Rectangle_62" data-name="Rectangle 62" width="0.345" height="0.938" transform="translate(39.434 10.65) rotate(-39.121)" fill="#001543"/>
          <rect id="Rectangle_63" data-name="Rectangle 63" width="0.345" height="0.938" transform="translate(39.434 10.65) rotate(-39.121)" fill="none" stroke="#001543" stroke-width="0.319"/>
          <path id="Path_235" data-name="Path 235" d="M-49.6,165.9l-.089-.154-.089-.156,2.373-1.371.133.23.133.23-1.627,1.846,2.408-.494.133.23.133.23-2.373,1.371-.089-.154-.09-.156,2.008-1.16h0l-2.4.492-.089-.155-.089-.155,1.614-1.827h0Z" transform="translate(89.466 -153.272)" fill="#001543"/>
          <path id="Path_236" data-name="Path 236" d="M-49.6,165.9l-.089-.154-.089-.156,2.373-1.371.133.23.133.23-1.627,1.846,2.408-.494.133.23.133.23-2.373,1.371-.089-.154-.09-.156,2.008-1.16h0l-2.4.492-.089-.155-.089-.155,1.614-1.827h0Z" transform="translate(89.466 -153.272)" fill="none" stroke="#001543" stroke-width="0.319"/>
          <path id="Path_237" data-name="Path 237" d="M-47.327,170.556l2.627-.781.572,1.922-.156.046-.156.046-.466-1.566-.8.24.425,1.429-.155.046-.156.046-.426-1.429-.886.264.471,1.585-.156.046-.156.046Z" transform="translate(88.614 -155.201)" fill="#001543"/>
          <path id="Path_238" data-name="Path 238" d="M-47.327,170.556l2.627-.781.572,1.922-.156.046-.156.046-.466-1.566-.8.24.425,1.429-.155.046-.156.046-.426-1.429-.886.264.471,1.585-.156.046-.156.046Z" transform="translate(88.614 -155.201)" fill="none" stroke="#001543" stroke-width="0.319"/>
          <path id="Path_239" data-name="Path 239" d="M-43.515,174.806l.01.184.053.94a1.022,1.022,0,0,1-.324.851,1.516,1.516,0,0,1-.981.365,1.487,1.487,0,0,1-1.014-.26,1.061,1.061,0,0,1-.418-.83l-.052-.911-.01-.184Zm-2.4.507.039.677a.738.738,0,0,0,.307.6,1.22,1.22,0,0,0,.787.173,1.268,1.268,0,0,0,.766-.252.7.7,0,0,0,.241-.607l-.04-.708Z" transform="translate(88.24 -156.948)" fill="#001543"/>
          <path id="Path_240" data-name="Path 240" d="M-43.515,174.806l.01.184.053.94a1.022,1.022,0,0,1-.324.851,1.516,1.516,0,0,1-.981.365,1.487,1.487,0,0,1-1.014-.26,1.061,1.061,0,0,1-.418-.83l-.052-.911-.01-.184Zm-2.4.507.039.677a.738.738,0,0,0,.307.6,1.22,1.22,0,0,0,.787.173,1.268,1.268,0,0,0,.766-.252.7.7,0,0,0,.241-.607l-.04-.708Z" transform="translate(88.24 -156.948)" fill="none" stroke="#001543" stroke-width="0.319"/>
          <path id="Path_241" data-name="Path 241" d="M-43.533,180.032l-.022.183-.022.185-2.721-.328.022-.183.023-.185Z" transform="translate(88.257 -158.649)" fill="#001543"/>
          <path id="Path_242" data-name="Path 242" d="M-43.533,180.032l-.022.183-.022.185-2.721-.328.022-.183.023-.185Z" transform="translate(88.257 -158.649)" fill="none" stroke="#001543" stroke-width="0.319"/>
          <path id="Path_243" data-name="Path 243" d="M-46.415,184.24a1.265,1.265,0,0,1-.646-.6,1.155,1.155,0,0,1-.04-.854,1.134,1.134,0,0,1,.636-.751,1.554,1.554,0,0,1,1.1-.016,1.525,1.525,0,0,1,.9.641,1.2,1.2,0,0,1,.1,1.012,1.177,1.177,0,0,1-.451.66.988.988,0,0,1-.734.151l.1-.343a.663.663,0,0,0,.479-.118.836.836,0,0,0,.292-.449.8.8,0,0,0-.1-.715,1.269,1.269,0,0,0-.709-.471,1.312,1.312,0,0,0-.86-.025.788.788,0,0,0-.464.546.742.742,0,0,0,.034.563.993.993,0,0,0,.453.43Z" transform="translate(88.557 -159.419)" fill="#001543"/>
          <path id="Path_244" data-name="Path 244" d="M-46.415,184.24a1.265,1.265,0,0,1-.646-.6,1.155,1.155,0,0,1-.04-.854,1.134,1.134,0,0,1,.636-.751,1.554,1.554,0,0,1,1.1-.016,1.525,1.525,0,0,1,.9.641,1.2,1.2,0,0,1,.1,1.012,1.177,1.177,0,0,1-.451.66.988.988,0,0,1-.734.151l.1-.343a.663.663,0,0,0,.479-.118.836.836,0,0,0,.292-.449.8.8,0,0,0-.1-.715,1.269,1.269,0,0,0-.709-.471,1.312,1.312,0,0,0-.86-.025.788.788,0,0,0-.464.546.742.742,0,0,0,.034.563.993.993,0,0,0,.453.43Z" transform="translate(88.557 -159.419)" fill="none" stroke="#001543" stroke-width="0.319"/>
          <path id="Path_245" data-name="Path 245" d="M-48.211,186.482a1.47,1.47,0,0,1,1.086.208,1.481,1.481,0,0,1,.717.847,1.252,1.252,0,0,1-.144,1.034,1.252,1.252,0,0,1-.832.633,1.479,1.479,0,0,1-1.089-.212,1.471,1.471,0,0,1-.713-.844,1.258,1.258,0,0,1,.146-1.035,1.257,1.257,0,0,1,.83-.632m-.633,1.546a1.2,1.2,0,0,0,.563.634,1.211,1.211,0,0,0,.832.183.862.862,0,0,0,.615-.439.857.857,0,0,0,.081-.749,1.209,1.209,0,0,0-.567-.636,1.2,1.2,0,0,0-.828-.181.858.858,0,0,0-.612.438.86.86,0,0,0-.084.75" transform="translate(89.278 -160.991)" fill="#001543"/>
          <path id="Path_246" data-name="Path 246" d="M-48.211,186.482a1.47,1.47,0,0,1,1.086.208,1.481,1.481,0,0,1,.717.847,1.252,1.252,0,0,1-.144,1.034,1.252,1.252,0,0,1-.832.633,1.479,1.479,0,0,1-1.089-.212,1.471,1.471,0,0,1-.713-.844,1.258,1.258,0,0,1,.146-1.035A1.257,1.257,0,0,1-48.211,186.482Zm-.633,1.546a1.2,1.2,0,0,0,.563.634,1.211,1.211,0,0,0,.832.183.862.862,0,0,0,.615-.439.857.857,0,0,0,.081-.749,1.209,1.209,0,0,0-.567-.636,1.2,1.2,0,0,0-.828-.181.858.858,0,0,0-.612.438A.86.86,0,0,0-48.843,188.029Z" transform="translate(89.278 -160.991)" fill="none" stroke="#001543" stroke-width="0.319"/>
          <path id="Path_247" data-name="Path 247" d="M-92.722,154.682l.953.349.436-.223-.755-.449Z" transform="translate(104.376 -149.848)" fill="#001543"/>
        </g>
      </g>
    </g>
    <path id="Path_249" data-name="Path 249" d="M24.609-32.212h4.263V-13.6a22.027,22.027,0,0,1-1.1,7.712,9.409,9.409,0,0,1-3.966,4.647A14.045,14.045,0,0,1,16.282.549a15.467,15.467,0,0,1-7.4-1.56A8.9,8.9,0,0,1,4.768-5.526,21.516,21.516,0,0,1,3.538-13.6V-32.212H7.8v18.589a18.122,18.122,0,0,0,.78,6.185,5.922,5.922,0,0,0,2.681,3.065A9.3,9.3,0,0,0,15.908-3.3q4.7,0,6.7-2.131t2-8.2ZM58.953-11.294l4.263,1.077a14.349,14.349,0,0,1-4.823,8.009A13.289,13.289,0,0,1,49.878.549a15.3,15.3,0,0,1-8.47-2.12,13.24,13.24,0,0,1-4.966-6.141,21.912,21.912,0,0,1-1.7-8.635,18.981,18.981,0,0,1,1.923-8.778,13.173,13.173,0,0,1,5.471-5.691,15.986,15.986,0,0,1,7.811-1.945,13.205,13.205,0,0,1,8.13,2.461,12.78,12.78,0,0,1,4.592,6.921l-4.2.989a9.955,9.955,0,0,0-3.252-5.12,8.666,8.666,0,0,0-5.361-1.6,10.414,10.414,0,0,0-6.207,1.78,9.4,9.4,0,0,0-3.5,4.779,19.24,19.24,0,0,0-1.011,6.185,19.656,19.656,0,0,0,1.2,7.174,8.921,8.921,0,0,0,3.724,4.581A10.445,10.445,0,0,0,49.526-3.1a9.168,9.168,0,0,0,6.064-2.065A10.57,10.57,0,0,0,58.953-11.294ZM68.291,0V-32.212H80.376a14.957,14.957,0,0,1,5.922.978,7.614,7.614,0,0,1,3.494,3.01,7.935,7.935,0,0,1,1.263,4.252,7.3,7.3,0,0,1-1.121,3.889,8,8,0,0,1-3.384,2.944,8.413,8.413,0,0,1,4.493,2.922,7.827,7.827,0,0,1,1.571,4.878,9.409,9.409,0,0,1-.956,4.208,8.147,8.147,0,0,1-2.362,3A9.858,9.858,0,0,1,85.77-.538a21.449,21.449,0,0,1-5.2.538Zm4.263-18.677h6.965a15.542,15.542,0,0,0,4.065-.374,4.518,4.518,0,0,0,2.45-1.6,4.621,4.621,0,0,0,.824-2.812,5.18,5.18,0,0,0-.769-2.823,3.892,3.892,0,0,0-2.2-1.67,18.351,18.351,0,0,0-4.9-.45H72.554Zm0,14.875h8.02a18.46,18.46,0,0,0,2.9-.154,6.95,6.95,0,0,0,2.461-.879,4.666,4.666,0,0,0,1.626-1.791A5.6,5.6,0,0,0,88.2-9.338a5.353,5.353,0,0,0-.923-3.131,4.868,4.868,0,0,0-2.56-1.868A15.871,15.871,0,0,0,80-14.875H72.554ZM98.35,0V-32.212h6.416L112.39-9.4q1.055,3.186,1.538,4.768.549-1.758,1.714-5.164l7.712-22.412h5.735V0H124.98V-26.96L115.62,0h-3.845l-9.316-27.422V0Z" transform="translate(139.911 172.451)" fill="#0d0052"/>
    <path id="Path_248" data-name="Path 248" d="M.624-6.27H1.849v3.286A6.816,6.816,0,0,0,1.895-1.97a.982.982,0,0,0,.375.6,1.3,1.3,0,0,0,.809.226,1.234,1.234,0,0,0,.786-.213.842.842,0,0,0,.319-.524,6.826,6.826,0,0,0,.054-1.03V-6.27H5.462v3.187a8.188,8.188,0,0,1-.1,1.544A1.709,1.709,0,0,1,5-.778a1.851,1.851,0,0,1-.714.495A3.105,3.105,0,0,1,3.116-.1,3.36,3.36,0,0,1,1.8-.3a1.885,1.885,0,0,1-.71-.521,1.672,1.672,0,0,1-.343-.673,7.368,7.368,0,0,1-.12-1.54ZM6.766-.2V-6.27H7.958l2.483,4.052V-6.27h1.138V-.2H10.35L7.9-4.159V-.2Zm6.071,0V-6.27h1.225V-.2Zm3.94,0L14.608-6.27h1.328l1.535,4.49,1.486-4.49h1.3L18.085-.2Zm4.105,0V-6.27h4.5v1.026H22.107V-3.9h3.046v1.022H22.107v1.651H25.5V-.2Zm5.657,0V-6.27h2.578a4.413,4.413,0,0,1,1.413.163,1.394,1.394,0,0,1,.706.581,1.748,1.748,0,0,1,.265.956,1.62,1.62,0,0,1-.4,1.128,1.928,1.928,0,0,1-1.2.561,2.858,2.858,0,0,1,.656.509,6.915,6.915,0,0,1,.7.985L31.994-.2H30.529l-.886-1.32A8.564,8.564,0,0,0,29-2.415a.94.94,0,0,0-.368-.252,2.019,2.019,0,0,0-.617-.068h-.248V-.2Zm1.225-3.5h.906a4.68,4.68,0,0,0,1.1-.074.66.66,0,0,0,.343-.257.79.79,0,0,0,.124-.455.727.727,0,0,0-.163-.495.75.75,0,0,0-.461-.238q-.149-.021-.894-.021h-.956Zm4.581,1.527,1.192-.116a1.454,1.454,0,0,0,.437.881,1.32,1.32,0,0,0,.888.281,1.364,1.364,0,0,0,.892-.25.745.745,0,0,0,.3-.586.552.552,0,0,0-.126-.366,1.009,1.009,0,0,0-.441-.263q-.215-.074-.981-.265a3.327,3.327,0,0,1-1.382-.6,1.579,1.579,0,0,1-.559-1.221,1.56,1.56,0,0,1,.263-.867,1.645,1.645,0,0,1,.757-.615,3.035,3.035,0,0,1,1.194-.211,2.561,2.561,0,0,1,1.72.5,1.767,1.767,0,0,1,.606,1.337l-1.225.054a1.04,1.04,0,0,0-.337-.673,1.235,1.235,0,0,0-.776-.2,1.4,1.4,0,0,0-.836.219.442.442,0,0,0-.195.377.466.466,0,0,0,.182.368,3.221,3.221,0,0,0,1.126.406,5.94,5.94,0,0,1,1.322.437,1.7,1.7,0,0,1,.67.617,1.8,1.8,0,0,1,.242.966,1.787,1.787,0,0,1-.29.977,1.736,1.736,0,0,1-.819.677,3.436,3.436,0,0,1-1.32.221,2.628,2.628,0,0,1-1.767-.532A2.313,2.313,0,0,1,32.346-2.177ZM38.272-.2V-6.27H39.5V-.2Zm3.758,0V-5.243h-1.8V-6.27h4.821v1.026h-1.8V-.2Zm9.283,0H49.98l-.53-1.378H47.025L46.524-.2h-1.3L47.588-6.27h1.3ZM49.057-2.6l-.836-2.251L47.4-2.6Zm-.145-4.014H48.18L47.038-7.855h1.3ZM58.2-2.433l1.188.377a2.664,2.664,0,0,1-.908,1.475A2.591,2.591,0,0,1,56.867-.1,2.61,2.61,0,0,1,54.88-.925,3.159,3.159,0,0,1,54.1-3.182a3.317,3.317,0,0,1,.782-2.353,2.682,2.682,0,0,1,2.057-.838,2.523,2.523,0,0,1,1.809.658A2.393,2.393,0,0,1,59.37-4.6l-1.213.29a1.286,1.286,0,0,0-.449-.745,1.286,1.286,0,0,0-.83-.273,1.38,1.38,0,0,0-1.095.484,2.374,2.374,0,0,0-.42,1.568,2.545,2.545,0,0,0,.414,1.639,1.344,1.344,0,0,0,1.076.488,1.227,1.227,0,0,0,.84-.31A1.8,1.8,0,0,0,58.2-2.433ZM65.909-.2H64.577l-.53-1.378H61.622L61.121-.2h-1.3L62.185-6.27h1.3ZM63.654-2.6l-.836-2.251L62-2.6ZM66.542-.2V-6.27h1.833l1.1,4.138L70.565-6.27H72.4V-.2H71.264V-4.978L70.06-.2H68.881l-1.2-4.776V-.2Zm7.077,0V-6.27h1.966a7.129,7.129,0,0,1,1.457.091,1.591,1.591,0,0,1,.873.594A1.883,1.883,0,0,1,78.267-4.4a1.979,1.979,0,0,1-.2.939,1.664,1.664,0,0,1-.515.6,1.776,1.776,0,0,1-.635.288,6.993,6.993,0,0,1-1.271.087h-.8V-.2Zm1.225-5.041v1.722h.67a3.168,3.168,0,0,0,.968-.1.8.8,0,0,0,.383-.3A.816.816,0,0,0,77-4.387a.784.784,0,0,0-.195-.546.847.847,0,0,0-.492-.269,5.888,5.888,0,0,0-.882-.041Zm4.42-1.026h1.225v3.286a6.816,6.816,0,0,0,.046,1.014.982.982,0,0,0,.375.6,1.3,1.3,0,0,0,.809.226,1.235,1.235,0,0,0,.786-.213.842.842,0,0,0,.319-.524,6.826,6.826,0,0,0,.054-1.03V-6.27H84.1v3.187A8.188,8.188,0,0,1,84-1.539a1.709,1.709,0,0,1-.366.761,1.851,1.851,0,0,1-.714.495A3.106,3.106,0,0,1,81.755-.1a3.36,3.36,0,0,1-1.318-.2,1.885,1.885,0,0,1-.71-.521,1.672,1.672,0,0,1-.343-.673,7.368,7.368,0,0,1-.12-1.54Zm5.819,4.093,1.192-.116a1.454,1.454,0,0,0,.437.881,1.32,1.32,0,0,0,.888.281,1.364,1.364,0,0,0,.892-.25.745.745,0,0,0,.3-.586.552.552,0,0,0-.126-.366,1.009,1.009,0,0,0-.441-.263q-.215-.074-.981-.265a3.327,3.327,0,0,1-1.382-.6A1.579,1.579,0,0,1,85.3-4.68a1.56,1.56,0,0,1,.263-.867,1.645,1.645,0,0,1,.757-.615,3.035,3.035,0,0,1,1.194-.211,2.561,2.561,0,0,1,1.72.5,1.767,1.767,0,0,1,.606,1.337l-1.225.054a1.04,1.04,0,0,0-.337-.673,1.235,1.235,0,0,0-.776-.2,1.4,1.4,0,0,0-.836.219.442.442,0,0,0-.195.377.466.466,0,0,0,.182.368,3.221,3.221,0,0,0,1.126.406,5.94,5.94,0,0,1,1.322.437,1.7,1.7,0,0,1,.67.617,1.8,1.8,0,0,1,.242.966,1.787,1.787,0,0,1-.29.977,1.736,1.736,0,0,1-.819.677,3.436,3.436,0,0,1-1.32.221,2.628,2.628,0,0,1-1.767-.532A2.313,2.313,0,0,1,85.083-2.177ZM93.405-6.27H95.83a7.006,7.006,0,0,1,1.074.06,1.578,1.578,0,0,1,.633.25A1.557,1.557,0,0,1,98-5.452a1.374,1.374,0,0,1,.186.71,1.413,1.413,0,0,1-.23.782,1.423,1.423,0,0,1-.623.534,1.6,1.6,0,0,1,.853.55,1.461,1.461,0,0,1,.3.915,1.8,1.8,0,0,1-.192.8,1.621,1.621,0,0,1-.526.625,1.736,1.736,0,0,1-.821.288q-.306.033-1.477.041H93.405ZM94.63-5.26v1.4h.8q.716,0,.89-.021a.81.81,0,0,0,.495-.217A.641.641,0,0,0,97-4.569a.666.666,0,0,0-.155-.457.7.7,0,0,0-.461-.213Q96.2-5.26,95.334-5.26Zm0,2.413v1.622h1.134a5.541,5.541,0,0,0,.84-.037.759.759,0,0,0,.445-.242.745.745,0,0,0,.172-.515.791.791,0,0,0-.132-.464.748.748,0,0,0-.383-.277,4.161,4.161,0,0,0-1.086-.087ZM99.485-.2V-6.27h1.225V-.2Zm2.144-3a3.859,3.859,0,0,1,.277-1.556,2.855,2.855,0,0,1,.565-.832,2.362,2.362,0,0,1,.784-.546,3.331,3.331,0,0,1,1.308-.24,2.849,2.849,0,0,1,2.146.832,3.188,3.188,0,0,1,.8,2.313,3.178,3.178,0,0,1-.8,2.3,2.827,2.827,0,0,1-2.135.83,2.855,2.855,0,0,1-2.152-.826A3.133,3.133,0,0,1,101.628-3.2Zm1.262-.041a2.273,2.273,0,0,0,.476,1.562,1.551,1.551,0,0,0,1.208.532,1.537,1.537,0,0,0,1.2-.528,2.319,2.319,0,0,0,.47-1.583,2.281,2.281,0,0,0-.457-1.556,1.547,1.547,0,0,0-1.215-.513,1.558,1.558,0,0,0-1.221.519A2.292,2.292,0,0,0,102.891-3.24Zm5.438,1.42V-2.984h2.284v1.163ZM111.275-.2V-6.27h1.833l1.1,4.138L115.3-6.27h1.837V-.2H116V-4.978L114.793-.2h-1.179l-1.2-4.776V-.2Zm7.077,0V-6.27h4.5v1.026h-3.274V-3.9h3.046v1.022h-3.046v1.651h3.389V-.2ZM124-6.27h2.239a4.372,4.372,0,0,1,1.155.116,2.029,2.029,0,0,1,.915.559,2.651,2.651,0,0,1,.579.983,4.477,4.477,0,0,1,.2,1.434,3.988,3.988,0,0,1-.186,1.291,2.675,2.675,0,0,1-.65,1.072,2.153,2.153,0,0,1-.861.484,3.706,3.706,0,0,1-1.084.128H124Zm1.225,1.026v4.018h.915a3.338,3.338,0,0,0,.741-.058,1.131,1.131,0,0,0,.495-.252,1.284,1.284,0,0,0,.321-.586,3.958,3.958,0,0,0,.124-1.111,3.624,3.624,0,0,0-.124-1.08,1.388,1.388,0,0,0-.348-.588,1.166,1.166,0,0,0-.567-.286,5.554,5.554,0,0,0-1.006-.058ZM130.089-.2V-6.27h1.225V-.2Zm6.274-2.231,1.188.377a2.664,2.664,0,0,1-.908,1.475A2.591,2.591,0,0,1,135.03-.1a2.61,2.61,0,0,1-1.986-.826,3.159,3.159,0,0,1-.778-2.258,3.317,3.317,0,0,1,.782-2.353,2.682,2.682,0,0,1,2.057-.838,2.523,2.523,0,0,1,1.809.658,2.393,2.393,0,0,1,.621,1.117l-1.213.29a1.286,1.286,0,0,0-.449-.745,1.287,1.287,0,0,0-.83-.273,1.38,1.38,0,0,0-1.095.484,2.374,2.374,0,0,0-.42,1.568,2.545,2.545,0,0,0,.414,1.639,1.344,1.344,0,0,0,1.076.488,1.227,1.227,0,0,0,.84-.31A1.8,1.8,0,0,0,136.363-2.433Zm1.991-.766a3.858,3.858,0,0,1,.277-1.556,2.855,2.855,0,0,1,.565-.832,2.362,2.362,0,0,1,.784-.546,3.331,3.331,0,0,1,1.308-.24,2.849,2.849,0,0,1,2.146.832,3.188,3.188,0,0,1,.8,2.313,3.178,3.178,0,0,1-.8,2.3A2.827,2.827,0,0,1,141.3-.1a2.855,2.855,0,0,1-2.152-.826A3.133,3.133,0,0,1,138.353-3.2Zm1.262-.041a2.273,2.273,0,0,0,.476,1.562,1.551,1.551,0,0,0,1.208.532,1.537,1.537,0,0,0,1.2-.528,2.319,2.319,0,0,0,.47-1.583,2.281,2.281,0,0,0-.457-1.556,1.547,1.547,0,0,0-1.215-.513,1.558,1.558,0,0,0-1.221.519A2.292,2.292,0,0,0,139.616-3.24Zm7.929-3.029h2.239a4.372,4.372,0,0,1,1.155.116,2.029,2.029,0,0,1,.915.559,2.651,2.651,0,0,1,.579.983,4.477,4.477,0,0,1,.2,1.434,3.988,3.988,0,0,1-.186,1.291,2.675,2.675,0,0,1-.65,1.072,2.153,2.153,0,0,1-.861.484A3.706,3.706,0,0,1,149.85-.2h-2.305Zm1.225,1.026v4.018h.915a3.338,3.338,0,0,0,.741-.058,1.131,1.131,0,0,0,.495-.252,1.285,1.285,0,0,0,.321-.586,3.958,3.958,0,0,0,.124-1.111,3.625,3.625,0,0,0-.124-1.08,1.389,1.389,0,0,0-.348-.588,1.166,1.166,0,0,0-.567-.286,5.554,5.554,0,0,0-1.006-.058ZM153.633-.2V-6.27h1.225V-.2Zm4.751,0V-6.27h2.578a4.413,4.413,0,0,1,1.413.163,1.394,1.394,0,0,1,.706.581,1.747,1.747,0,0,1,.265.956,1.62,1.62,0,0,1-.4,1.128,1.928,1.928,0,0,1-1.2.561,2.858,2.858,0,0,1,.656.509,6.915,6.915,0,0,1,.7.985L163.838-.2h-1.465l-.886-1.32a8.57,8.57,0,0,0-.646-.892.94.94,0,0,0-.368-.252,2.019,2.019,0,0,0-.617-.068h-.248V-.2Zm1.225-3.5h.906a4.68,4.68,0,0,0,1.1-.074.66.66,0,0,0,.343-.257.79.79,0,0,0,.124-.455.727.727,0,0,0-.163-.495.75.75,0,0,0-.461-.238q-.149-.021-.894-.021h-.956Zm4.643.5a3.859,3.859,0,0,1,.277-1.556,2.855,2.855,0,0,1,.565-.832,2.362,2.362,0,0,1,.784-.546,3.331,3.331,0,0,1,1.308-.24,2.849,2.849,0,0,1,2.146.832,3.188,3.188,0,0,1,.8,2.313,3.178,3.178,0,0,1-.8,2.3A2.827,2.827,0,0,1,167.2-.1a2.855,2.855,0,0,1-2.152-.826A3.133,3.133,0,0,1,164.252-3.2Zm1.262-.041a2.273,2.273,0,0,0,.476,1.562,1.551,1.551,0,0,0,1.208.532,1.537,1.537,0,0,0,1.2-.528,2.319,2.319,0,0,0,.47-1.583,2.281,2.281,0,0,0-.457-1.556,1.547,1.547,0,0,0-1.215-.513,1.557,1.557,0,0,0-1.221.519A2.292,2.292,0,0,0,165.514-3.24ZM171.077-.2V-6.27h1.833l1.1,4.138L175.1-6.27h1.837V-.2H175.8V-4.978L174.594-.2h-1.179l-1.2-4.776V-.2Zm12.548,0h-1.333l-.53-1.378h-2.425l-.5,1.378h-1.3L179.9-6.27h1.3Zm-2.255-2.4-.836-2.251L179.714-2.6Z" transform="translate(85.376 183.205)" fill="#0d0052"/>
  </g>
</svg>
