<svg xmlns="http://www.w3.org/2000/svg" xmlns:xlink="http://www.w3.org/1999/xlink" viewBox="0 0 250 250" id="sale-10"><defs><radialGradient id="a" cx="-199.56355" cy="273.48682" r="20.71882" gradientTransform="translate(1137.0515 -1271.63103) scale(4.9599 5.172)" gradientUnits="userSpaceOnUse"><stop offset="0" stop-color="#514643"/><stop offset="0.19106" stop-color="#5f5552" stop-opacity="0.91825"/><stop offset="0.46137" stop-color="#877f7d" stop-opacity="0.68973"/><stop offset="0.77743" stop-color="#c8c4c3" stop-opacity="0.31675"/><stop offset="1" stop-color="#fff" stop-opacity="0"/></radialGradient><linearGradient id="b" x1="147.96378" y1="337.00529" x2="183.71987" y2="391.6911" gradientTransform="matrix(0.9639, -0.2663, 0.2663, 0.9639, -105.23321, -140.59654)" gradientUnits="userSpaceOnUse"><stop offset="0" stop-color="#282426"/><stop offset="0.37554" stop-color="#2e2b2c"/><stop offset="0.90269" stop-color="#3d3d3d"/><stop offset="1" stop-color="#414141"/></linearGradient><radialGradient id="c" cx="5.75698" cy="103.77486" r="108.86623" gradientTransform="translate(122.99316 67.61769) scale(1.2021 0.16297)" gradientUnits="userSpaceOnUse"><stop offset="0.12619" stop-color="#515151"/><stop offset="0.31273" stop-color="#696969" stop-opacity="0.85959"/><stop offset="0.64443" stop-color="#ababab" stop-opacity="0.48529"/><stop offset="1" stop-color="#fff" stop-opacity="0"/></radialGradient><linearGradient id="d" x1="121.10243" y1="87.32345" x2="121.50226" y2="36.94316" gradientTransform="matrix(1, 0, 0, 1, 0, 0)" xlink:href="#b"/><linearGradient id="e" x1="155.37155" y1="114.76922" x2="142.31088" y2="100.15898" gradientUnits="userSpaceOnUse"><stop offset="0" stop-color="#a9141d"/><stop offset="0.28128" stop-color="#b0141e"/><stop offset="0.67604" stop-color="#c2161f"/><stop offset="1" stop-color="#d61721"/></linearGradient><radialGradient id="f" cx="158.79347" cy="116.72567" r="10.30119" gradientTransform="translate(161.70331 -130.67173) rotate(40.6009) scale(1 1.62546)" gradientUnits="userSpaceOnUse"><stop offset="0.12823" stop-color="#514444"/><stop offset="0.29576" stop-color="#625656" stop-opacity="0.90484"/><stop offset="0.55167" stop-color="#8f8787" stop-opacity="0.64292"/><stop offset="0.86248" stop-color="#d9d6d6" stop-opacity="0.21716"/><stop offset="1" stop-color="#fff" stop-opacity="0"/></radialGradient><linearGradient id="g" x1="145.46561" y1="116.23412" x2="169.99371" y2="116.23412" xlink:href="#e"/><radialGradient id="h" cx="161.62305" cy="118.75666" r="9.38606" gradientTransform="translate(165.90168 -199.93988) rotate(31.2395) scale(1 2.31319)" gradientUnits="userSpaceOnUse"><stop offset="0.17865" stop-color="#514444"/><stop offset="0.3365" stop-color="#625656" stop-opacity="0.90484"/><stop offset="0.57761" stop-color="#8f8787" stop-opacity="0.64292"/><stop offset="0.87043" stop-color="#d9d6d6" stop-opacity="0.21716"/><stop offset="1" stop-color="#fff" stop-opacity="0"/></radialGradient><linearGradient id="i" x1="160.42826" y1="130.56911" x2="171.65252" y2="111.12813" xlink:href="#e"/><linearGradient id="j" x1="109.55282" y1="145.84696" x2="79.78643" y2="116.08057" xlink:href="#e"/><radialGradient id="k" cx="104.37356" cy="131.02838" r="16.48262" gradientTransform="translate(0 -135.78995) scale(1 2.03634)" gradientUnits="userSpaceOnUse"><stop offset="0.06538" stop-color="#514444"/><stop offset="0.24499" stop-color="#625656" stop-opacity="0.90484"/><stop offset="0.51935" stop-color="#8f8787" stop-opacity="0.64292"/><stop offset="0.85256" stop-color="#d9d6d6" stop-opacity="0.21716"/><stop offset="1" stop-color="#fff" stop-opacity="0"/></radialGradient><linearGradient id="l" x1="99.31427" y1="126.80404" x2="140.1714" y2="126.80404" xlink:href="#e"/><linearGradient id="m" x1="215.61514" y1="85.15541" x2="215.9952" y2="37.26578" gradientTransform="matrix(1, 0, 0, 1, 0, 0)" xlink:href="#b"/><linearGradient id="n" x1="115.37513" y1="179.63738" x2="130.36708" y2="153.67057" xlink:href="#e"/></defs><g style="isolation:isolate"><ellipse cx="147.23622" cy="142.84269" rx="102.76377" ry="107.15731" style="mix-blend-mode:multiply;fill:url(#a)"/><path d="M131.0151,202.064c27.51981-1.33628,63.762-11.93551,68.49616-43.04493,4.734-31.10958-21.88324-71.90525-56.207-66.99176-39.62359,5.67227-76.197,51.702-76.60172,74.46187C66.20575,194.4221,111.50719,203.01117,131.0151,202.064Z" style="fill:url(#b)"/><path d="M94.09206,83.12889c-26.57533,13.79918-55.88813,39.33818-40.598,67.445,15.29026,28.10683,68.065,49.83375,99.12253,29.91708,35.85285-22.99176,42.707-78.20888,28.47139-97.36208C163.61668,59.62245,112.93063,73.347,94.09206,83.12889Z" style="fill:#fff"/><path d="M94.09206,83.12889c-26.57533,13.79918-55.88813,39.33818-40.598,67.445,15.29026,28.10683,68.065,49.83375,99.12253,29.91708,35.85285-22.99176,42.707-78.20888,28.47139-97.36208C163.61668,59.62245,112.93063,73.347,94.09206,83.12889Z" style="mix-blend-mode:multiply;fill:url(#c)"/><path d="M202.08211,70.37407l4.97708-.57279a4.08482,4.08482,0,0,0,3.54573-3.95313,3.09816,3.09816,0,0,0-3.54573-3.1382l-9.22909.961a2.877,2.877,0,0,1-3.29271-2.91423h0a3.79324,3.79324,0,0,1,3.29271-3.671l11.33168-1.43086a4.08481,4.08481,0,0,0,3.54559-3.95327,3.098,3.098,0,0,0-3.54559-3.1382l-6.34828.93388a2.87719,2.87719,0,0,1-3.29255-2.91438,3.79335,3.79335,0,0,1,3.29271-3.671l1.30873-.11138a4.08482,4.08482,0,0,0,3.54573-3.95313,3.09816,3.09816,0,0,0-3.54573-3.1382L33.54574,55.67417A4.08493,4.08493,0,0,0,30,59.62729a3.09816,3.09816,0,0,0,3.54574,3.1382l7.9488-.91345a2.87693,2.87693,0,0,1,3.29254,2.91423,3.79335,3.79335,0,0,1-3.29254,3.671,4.085,4.085,0,0,0-3.54574,3.95328,3.09814,3.09814,0,0,0,3.54574,3.138l9.81167-1.35308a2.87707,2.87707,0,0,1,3.29271,2.91423v.00015a3.79321,3.79321,0,0,1-3.29271,3.67089l-7.29593.939A4.085,4.085,0,0,0,40.46454,85.653a3.09817,3.09817,0,0,0,3.54574,3.1382l4.426-.60912a2.87706,2.87706,0,0,1,3.2927,2.91423,3.79338,3.79338,0,0,1-3.2927,3.67119l-4.64745.53406a4.08493,4.08493,0,0,0-3.54574,3.95312v.00016a3.098,3.098,0,0,0,3.54574,3.138L206.7294,83.51676a4.08492,4.08492,0,0,0,3.54574-3.95313v-.00015a3.098,3.098,0,0,0-3.54574-3.138l-4.64729.53405a2.87706,2.87706,0,0,1-3.29271-2.91422A3.7934,3.7934,0,0,1,202.08211,70.37407Z" style="fill:url(#d)"/><path d="M156.4034,99.43294q-2.5236-2.67543-7.16157-2.2924a10.03026,10.03026,0,0,0-7.2475,3.5415,12.29165,12.29165,0,0,0-2.60823,8.09421q0,4.93476,2.69585,7.59723a8.76355,8.76355,0,0,0,7.2475,2.28574,9.85148,9.85148,0,0,0,7.07395-3.38336,12.18079,12.18079,0,0,0,2.5221-8.08573Q158.9255,102.11259,156.4034,99.43294Zm-7.27658,12.31822a3.262,3.262,0,0,1-2.60974-.679,3.8532,3.8532,0,0,1-.86881-2.8711,4.51717,4.51717,0,0,1,.8399-3.014,3.81213,3.81213,0,0,1,2.66771-1.11487,3.25917,3.25917,0,0,1,2.63791.64846,3.99719,3.99719,0,0,1,.81173,2.87624Q152.60552,111.46432,149.12682,111.75116Z" style="fill:url(#e)"/><path d="M156.4034,99.43294q-2.5236-2.67543-7.16157-2.2924a10.03026,10.03026,0,0,0-7.2475,3.5415,12.29165,12.29165,0,0,0-2.60823,8.09421q0,4.93476,2.69585,7.59723a8.76355,8.76355,0,0,0,7.2475,2.28574,9.85148,9.85148,0,0,0,7.07395-3.38336,12.18079,12.18079,0,0,0,2.5221-8.08573Q158.9255,102.11259,156.4034,99.43294Zm-7.27658,12.31822a3.262,3.262,0,0,1-2.60974-.679,3.8532,3.8532,0,0,1-.86881-2.8711,4.51717,4.51717,0,0,1,.8399-3.014,3.81213,3.81213,0,0,1,2.66771-1.11487,3.25917,3.25917,0,0,1,2.63791.64846,3.99719,3.99719,0,0,1,.81173,2.87624Q152.60552,111.46432,149.12682,111.75116Z" style="mix-blend-mode:multiply;fill:url(#f)"/><path d="M161.86227,98.99664q1.22625-2.2691,2.41074-2.36488a7.72267,7.72267,0,0,1,3.453.93811q2.267,1.03671,2.26773,2.4454a4.21854,4.21854,0,0,1-.66057,1.84308l-15.82916,31.619-.19007.29979q-1.041,1.96537-2.17481,2.05965a7.90822,7.90822,0,0,1-3.403-.89378q-2.2691-.99108-2.27046-2.11791a4.71229,4.71229,0,0,1,.66194-2.31207Z" style="fill:url(#g)"/><path d="M161.86227,98.99664q1.22625-2.2691,2.41074-2.36488a7.72267,7.72267,0,0,1,3.453.93811q2.267,1.03671,2.26773,2.4454a4.21854,4.21854,0,0,1-.66057,1.84308l-15.82916,31.619-.19007.29979q-1.041,1.96537-2.17481,2.05965a7.90822,7.90822,0,0,1-3.403-.89378q-2.2691-.99108-2.27046-2.11791a4.71229,4.71229,0,0,1,.66194-2.31207Z" style="mix-blend-mode:multiply;fill:url(#h)"/><path d="M173.20442,112.3801q-2.49408-2.68041-7.16066-2.29406a10.05892,10.05892,0,0,0-7.27641,3.54665,12.27938,12.27938,0,0,0-2.609,8.09088q0,4.93452,2.6957,7.62614a8.74685,8.74685,0,0,0,7.2764,2.31449,9.78634,9.78634,0,0,0,7.07395-3.385,12.31536,12.31536,0,0,0,2.49319-8.11282Q175.69761,115.06067,173.20442,112.3801ZM165.89908,124.758a3.16673,3.16673,0,0,1-2.581-.6807,4.00894,4.00894,0,0,1-.8399-2.90514,4.66536,4.66536,0,0,1,.811-3.03786,3.70038,3.70038,0,0,1,2.6388-1.11306,3.35658,3.35658,0,0,1,2.66682.645,3.89451,3.89451,0,0,1,.84078,2.87458Q169.43559,124.46444,165.89908,124.758Z" style="fill:url(#i)"/><path d="M89.9879,106.16727a6.34273,6.34273,0,0,1,4.13715-2.23671,12.72205,12.72205,0,0,1,3.47764.07688,5.87261,5.87261,0,0,1,1.90331.68085,2.735,2.735,0,0,1,1.02516,1.482,14.44469,14.44469,0,0,1,.36575,3.83206v40.59576a21.38379,21.38379,0,0,1-.10942,2.52348,6.25662,6.25662,0,0,1-.696,1.98852q-1.02558,2.05275-5.71025,2.44025-4.54159.37523-5.63823-1.42935a5.36061,5.36061,0,0,1-.696-1.946,23.79821,23.79821,0,0,1-.10941-2.6509V125.50524l-.95219.95218q-3.00253,2.50881-5.12475,2.68345-2.12427.17478-4.42983-2.185-2.30655-2.3583-2.30662-4.32753,0-1.96786,2.63579-4.5179l12.00812-11.77918Z" style="fill:url(#j)"/><path d="M89.9879,106.16727a6.34273,6.34273,0,0,1,4.13715-2.23671,12.72205,12.72205,0,0,1,3.47764.07688,5.87261,5.87261,0,0,1,1.90331.68085,2.735,2.735,0,0,1,1.02516,1.482,14.44469,14.44469,0,0,1,.36575,3.83206v40.59576a21.38379,21.38379,0,0,1-.10942,2.52348,6.25662,6.25662,0,0,1-.696,1.98852q-1.02558,2.05275-5.71025,2.44025-4.54159.37523-5.63823-1.42935a5.36061,5.36061,0,0,1-.696-1.946,23.79821,23.79821,0,0,1-.10941-2.6509V125.50524l-.95219.95218q-3.00253,2.50881-5.12475,2.68345-2.12427.17478-4.42983-2.185-2.30655-2.3583-2.30662-4.32753,0-1.96786,2.63579-4.5179l12.00812-11.77918Z" style="mix-blend-mode:multiply;fill:url(#k)"/><path d="M104.87864,107.3746a18.79633,18.79633,0,0,1,5.96752-5.45,20.16092,20.16092,0,0,1,8.89613-2.73913,18.02014,18.02014,0,0,1,8.82318,1.237,15.12614,15.12614,0,0,1,5.931,4.39336,22.12712,22.12712,0,0,1,3.47764,6.56408,41.88666,41.88666,0,0,1,2.19724,13.73728q0,13.19232-5.71132,21.38944a18.047,18.047,0,0,1-5.89461,5.29788,20.42649,20.42649,0,0,1-8.74918,2.61867,18.60709,18.60709,0,0,1-8.82318-1.20144,15.0172,15.0172,0,0,1-6.004-4.27789,22.2757,22.2757,0,0,1-3.55058-6.48523,42.52089,42.52089,0,0,1-2.12426-14.035,41.0996,41.0996,0,0,1,1.72111-12.60576A33.58353,33.58353,0,0,1,104.87864,107.3746Zm14.79071,34.08722q7.54139-.62289,7.54187-14.90815v-.43659q0-14.64945-7.46893-14.03208-7.46671.617-7.46767,15.30237Q112.27462,142.07471,119.66935,141.46182Z" style="fill:url(#l)"/><path d="M215.77338,68.28234h0a2.679,2.679,0,0,1-3.066-2.71355h0a3.53228,3.53228,0,0,1,3.066-3.41832h0a2.67891,2.67891,0,0,1,3.066,2.71356h0A3.53213,3.53213,0,0,1,215.77338,68.28234Z" style="fill:url(#m)"/><path d="M74.46122,81.45682q.19776,3.28271,5.30859,2.68066,5.10938-.60205,4.9336-3.55176A2.7408,2.7408,0,0,0,82.803,78.22244a17.06371,17.06371,0,0,0-4.33692-1.16553q-2.5327-.37132-5.07519-.95849a9.717,9.717,0,0,1-4.40332-2.25928,6.267,6.267,0,0,1-2.02637-4.47949q-.71631-11.93848,15.874-13.89551,6.06153-.71484,9.2959,1.03613a6.303,6.303,0,0,1,3.459,5.50782,9.14709,9.14709,0,0,1-.22657,2.685,6.13786,6.13786,0,0,1-.68945,1.87793l-.376.61963L85.20634,68.263a3.89728,3.89728,0,0,0,.96484-2.89209q-.186-3.09228-4.55078-2.57715-5.49756.6482-5.30274,3.88232a2.6736,2.6736,0,0,0,1.9004,2.36231,15.29724,15.29724,0,0,0,4.32714.99853q2.52393.25562,5.08887.76612a9.16782,9.16782,0,0,1,4.42481,2.18457A6.51759,6.51759,0,0,1,94.097,77.658q.36329,6.04248-3.36621,9.42578Q87.00273,90.47122,78.887,91.427q-8.11669.95655-11.25391-1.35644A6.66925,6.66925,0,0,1,65.094,84.81375a15.29911,15.29911,0,0,1,.13477-2.939l.10742-.77783,9.24512-1.08984-.06836.582A4.18963,4.18963,0,0,0,74.46122,81.45682Z" style="fill:#fff"/><path d="M115.264,86.46707l-.13867-7.50391-8.57715,1.01123L104.47782,87.739l-9.81055,1.15674,11.14844-35.80566,16.9502-1.99854,2.25781,34.2251ZM111.60477,60.7908l-3.334,12.561,6.72949-.793-.16015-12.14942Z" style="fill:#fff"/><path d="M152.03934,82.13113l-23.42187,2.76172,4.47168-35.01807,9.24512-1.09033-3.47754,27.42871,14.17676-1.67138Z" style="fill:#fff"/><path d="M180.6497,78.75809l-25.78418,3.04,4.46972-35.01806,25.78418-3.04-.99218,7.59033-16.54,1.9502-.7959,6.561,13.66308-1.61084-.99316,7.58936-13.66406,1.61084-.69239,5.6875,16.53711-1.94971Z" style="fill:#fff"/><path d="M111.45145,162.16385a6.19622,6.19622,0,0,1,6.79786,6.32568,7.614,7.614,0,0,1-1.93067,5.15186,6.8562,6.8562,0,0,1-4.75586,2.45459,5.96631,5.96631,0,0,1-4.80176-1.63623,6.1768,6.1768,0,0,1-1.97851-4.68116,7.74883,7.74883,0,0,1,.55762-2.92138,7.44164,7.44164,0,0,1,1.48632-2.36963,7.79238,7.79238,0,0,1,2.13575-1.59961A6.61125,6.61125,0,0,1,111.45145,162.16385Zm-3.38086,7.25a3.255,3.255,0,0,0,1.06836,2.58349,3.10836,3.10836,0,0,0,2.38672.8291,3.69691,3.69691,0,0,0,2.377-1.19433,3.80032,3.80032,0,0,0,1.05957-2.76953,3.27608,3.27608,0,0,0-1.06836-2.61084,3.12778,3.12778,0,0,0-2.38672-.81934,3.65353,3.65353,0,0,0-2.37793,1.22217A3.85009,3.85009,0,0,0,108.07059,169.41385Z"/><path d="M128.4661,160.9241a5.5658,5.5658,0,0,1,.6416-.02588,1.30855,1.30855,0,0,1,.48243.13623.73285.73285,0,0,1,.38086.46729,3.1249,3.1249,0,0,1,.1123.93408,3.30535,3.30535,0,0,1-.1123.95166.86441.86441,0,0,1-.39063.52246,1.70953,1.70953,0,0,1-.49121.20752,5.66332,5.66332,0,0,1-.65918.082l-5.68457.46973v1.86719l3.66016-.30225a5.60735,5.60735,0,0,1,.6582-.02637,1.39906,1.39906,0,0,1,.49316.13526q.48193.23657.48242,1.41992,0,1.29492-.70605,1.59375a3.6264,3.6264,0,0,1-.94629.16992l-3.6416.30078v3.49512a5.36624,5.36624,0,0,1-.02832.6499,1.59211,1.59211,0,0,1-.17578.49512q-.26075.52076-1.44922.61865-1.30078.10767-1.52344-.57617a2.83627,2.83627,0,0,1-.11133-.93408V163.29568a1.89887,1.89887,0,0,1,.35352-1.31445,2.08991,2.08991,0,0,1,1.33691-.45215Z"/><path d="M140.29813,159.94607a5.3461,5.3461,0,0,1,.64161-.02588,1.32123,1.32123,0,0,1,.48242.13575.73665.73665,0,0,1,.38086.46777,3.1269,3.1269,0,0,1,.11132.93408,3.31168,3.31168,0,0,1-.11132.95166.86722.86722,0,0,1-.39063.52246,1.72084,1.72084,0,0,1-.49121.20752,5.79547,5.79547,0,0,1-.66016.082l-5.68359.46973v1.86719l3.65918-.30225a5.50586,5.50586,0,0,1,.65918-.02636,1.39443,1.39443,0,0,1,.49219.13525q.48339.23657.4834,1.41992,0,1.29492-.70606,1.59326a3.60231,3.60231,0,0,1-.94726.17041l-3.64063.30078v3.49512a5.36613,5.36613,0,0,1-.02832.6499,1.64409,1.64409,0,0,1-.17578.49512q-.26222.52076-1.44922.61865-1.30079.10767-1.52344-.57617a2.80974,2.80974,0,0,1-.11133-.93408V162.31766a1.90432,1.90432,0,0,1,.35254-1.31446,2.09031,2.09031,0,0,1,1.33789-.45215Z"/><path d="M111.45145,162.16385a6.19622,6.19622,0,0,1,6.79786,6.32568,7.614,7.614,0,0,1-1.93067,5.15186,6.8562,6.8562,0,0,1-4.75586,2.45459,5.96631,5.96631,0,0,1-4.80176-1.63623,6.1768,6.1768,0,0,1-1.97851-4.68116,7.74883,7.74883,0,0,1,.55762-2.92138,7.44164,7.44164,0,0,1,1.48632-2.36963,7.79238,7.79238,0,0,1,2.13575-1.59961A6.61125,6.61125,0,0,1,111.45145,162.16385Zm-3.38086,7.25a3.255,3.255,0,0,0,1.06836,2.58349,3.10836,3.10836,0,0,0,2.38672.8291,3.69691,3.69691,0,0,0,2.377-1.19433,3.80032,3.80032,0,0,0,1.05957-2.76953,3.27608,3.27608,0,0,0-1.06836-2.61084,3.12778,3.12778,0,0,0-2.38672-.81934,3.65353,3.65353,0,0,0-2.37793,1.22217A3.85009,3.85009,0,0,0,108.07059,169.41385Z" style="fill:url(#n)"/><path d="M128.4661,160.9241a5.5658,5.5658,0,0,1,.6416-.02588,1.30855,1.30855,0,0,1,.48243.13623.73285.73285,0,0,1,.38086.46729,3.1249,3.1249,0,0,1,.1123.93408,3.30535,3.30535,0,0,1-.1123.95166.86441.86441,0,0,1-.39063.52246,1.70953,1.70953,0,0,1-.49121.20752,5.66332,5.66332,0,0,1-.65918.082l-5.68457.46973v1.86719l3.66016-.30225a5.60735,5.60735,0,0,1,.6582-.02637,1.39906,1.39906,0,0,1,.49316.13526q.48193.23657.48242,1.41992,0,1.29492-.70605,1.59375a3.6264,3.6264,0,0,1-.94629.16992l-3.6416.30078v3.49512a5.36624,5.36624,0,0,1-.02832.6499,1.59211,1.59211,0,0,1-.17578.49512q-.26075.52076-1.44922.61865-1.30078.10767-1.52344-.57617a2.83627,2.83627,0,0,1-.11133-.93408V163.29568a1.89887,1.89887,0,0,1,.35352-1.31445,2.08991,2.08991,0,0,1,1.33691-.45215Z" style="fill:url(#n)"/><path d="M140.29813,159.94607a5.3461,5.3461,0,0,1,.64161-.02588,1.32123,1.32123,0,0,1,.48242.13575.73665.73665,0,0,1,.38086.46777,3.1269,3.1269,0,0,1,.11132.93408,3.31168,3.31168,0,0,1-.11132.95166.86722.86722,0,0,1-.39063.52246,1.72084,1.72084,0,0,1-.49121.20752,5.79547,5.79547,0,0,1-.66016.082l-5.68359.46973v1.86719l3.65918-.30225a5.50586,5.50586,0,0,1,.65918-.02636,1.39443,1.39443,0,0,1,.49219.13525q.48339.23657.4834,1.41992,0,1.29492-.70606,1.59326a3.60231,3.60231,0,0,1-.94726.17041l-3.64063.30078v3.49512a5.36613,5.36613,0,0,1-.02832.6499,1.64409,1.64409,0,0,1-.17578.49512q-.26222.52076-1.44922.61865-1.30079.10767-1.52344-.57617a2.80974,2.80974,0,0,1-.11133-.93408V162.31766a1.90432,1.90432,0,0,1,.35254-1.31446,2.09031,2.09031,0,0,1,1.33789-.45215Z" style="fill:url(#n)"/></g></svg>