<svg xmlns="http://www.w3.org/2000/svg" xmlns:xlink="http://www.w3.org/1999/xlink" viewBox="0 0 250 250"><defs><radialGradient id="a" cx="-418.97264" cy="61.34427" r="20.71882" gradientTransform="translate(2225.29865 -174.42975) scale(4.9599 5.172)" gradientUnits="userSpaceOnUse"><stop offset="0" stop-color="#514643"/><stop offset="0.19106" stop-color="#5f5552" stop-opacity="0.91825"/><stop offset="0.46137" stop-color="#877f7d" stop-opacity="0.68973"/><stop offset="0.77743" stop-color="#c8c4c3" stop-opacity="0.31675"/><stop offset="1" stop-color="#fff" stop-opacity="0"/></radialGradient><linearGradient id="b" x1="68.00454" y1="400.68883" x2="103.76064" y2="455.37465" gradientTransform="matrix(0.9639, -0.2663, 0.2663, 0.9639, -45.11941, -223.27426)" gradientUnits="userSpaceOnUse"><stop offset="0" stop-color="#282426"/><stop offset="0.37554" stop-color="#2e2b2c"/><stop offset="0.90269" stop-color="#3d3d3d"/><stop offset="1" stop-color="#414141"/></linearGradient><radialGradient id="c" cx="-40.44589" cy="71.49786" r="108.86629" gradientTransform="translate(178.53364 72.87787) scale(1.2021 0.16297)" gradientUnits="userSpaceOnUse"><stop offset="0.12619" stop-color="#515151"/><stop offset="0.31273" stop-color="#696969" stop-opacity="0.85959"/><stop offset="0.64443" stop-color="#ababab" stop-opacity="0.48529"/><stop offset="1" stop-color="#fff" stop-opacity="0"/></radialGradient><linearGradient id="d" x1="121.10245" y1="87.32343" x2="121.50227" y2="36.94313" gradientTransform="matrix(1, 0, 0, 1, 0, 0)" xlink:href="#b"/><linearGradient id="e" x1="215.61517" y1="85.15539" x2="215.99523" y2="37.26576" gradientTransform="matrix(1, 0, 0, 1, 0, 0)" xlink:href="#b"/><linearGradient id="f" x1="155.37149" y1="114.76919" x2="142.31086" y2="100.159" gradientUnits="userSpaceOnUse"><stop offset="0" stop-color="#a9141d"/><stop offset="0.28128" stop-color="#b0141e"/><stop offset="0.67604" stop-color="#c2161f"/><stop offset="1" stop-color="#d61721"/></linearGradient><radialGradient id="g" cx="158.79349" cy="116.72565" r="10.30119" gradientTransform="translate(161.7033 -130.67174) rotate(40.6009) scale(1 1.62546)" gradientUnits="userSpaceOnUse"><stop offset="0.12823" stop-color="#514444"/><stop offset="0.29576" stop-color="#625656" stop-opacity="0.90484"/><stop offset="0.55167" stop-color="#8f8787" stop-opacity="0.64292"/><stop offset="0.86248" stop-color="#d9d6d6" stop-opacity="0.21716"/><stop offset="1" stop-color="#fff" stop-opacity="0"/></radialGradient><linearGradient id="h" x1="145.46563" y1="116.2341" x2="169.99373" y2="116.2341" xlink:href="#f"/><radialGradient id="i" cx="161.62307" cy="118.75664" r="9.38606" gradientTransform="translate(165.90166 -199.93987) rotate(31.2395) scale(1 2.31319)" gradientUnits="userSpaceOnUse"><stop offset="0.17865" stop-color="#514444"/><stop offset="0.3365" stop-color="#625656" stop-opacity="0.90484"/><stop offset="0.57761" stop-color="#8f8787" stop-opacity="0.64292"/><stop offset="0.87043" stop-color="#d9d6d6" stop-opacity="0.21716"/><stop offset="1" stop-color="#fff" stop-opacity="0"/></radialGradient><linearGradient id="j" x1="160.42826" y1="130.5691" x2="171.65252" y2="111.12811" xlink:href="#f"/><linearGradient id="k" x1="108.11182" y1="149.21397" x2="68.76649" y2="109.86864" xlink:href="#f"/><radialGradient id="l" cx="103.60616" cy="134.20404" r="18.23652" gradientTransform="translate(0 -186.64561) scale(1 2.39076)" gradientUnits="userSpaceOnUse"><stop offset="0" stop-color="#514444"/><stop offset="0.19218" stop-color="#625656" stop-opacity="0.90484"/><stop offset="0.48573" stop-color="#8f8787" stop-opacity="0.64292"/><stop offset="0.84225" stop-color="#d9d6d6" stop-opacity="0.21716"/><stop offset="1" stop-color="#fff" stop-opacity="0"/></radialGradient><linearGradient id="m" x1="98.4939" y1="128.4274" x2="139.3501" y2="128.4274" xlink:href="#f"/><linearGradient id="n" x1="115.37552" y1="179.63634" x2="130.36768" y2="153.66915" xlink:href="#f"/></defs><g style="isolation:isolate"><ellipse cx="147.23623" cy="142.84268" rx="102.76377" ry="107.15732" style="mix-blend-mode:multiply;fill:url(#a)"/><path d="M131.01512,202.064c27.5198-1.33627,63.762-11.9355,68.49616-43.04494,4.734-31.10958-21.88324-71.90525-56.207-66.99176-39.6236,5.67227-76.19707,51.702-76.60173,74.46188C66.20573,194.42209,111.50722,203.01117,131.01512,202.064Z" style="fill:url(#b)"/><path d="M94.09207,83.12887c-26.57534,13.79918-55.88814,39.33818-40.598,67.445s68.065,49.83375,99.12254,29.91723c35.85282-22.99192,42.707-78.209,28.47139-97.36224C163.61669,59.62243,112.93064,73.347,94.09207,83.12887Z" style="fill:#fff"/><path d="M94.09207,83.12887c-26.57534,13.79918-55.88814,39.33818-40.598,67.445s68.065,49.83375,99.12254,29.91723c35.85282-22.99192,42.707-78.209,28.47139-97.36224C163.61669,59.62243,112.93064,73.347,94.09207,83.12887Z" style="mix-blend-mode:multiply;fill:url(#c)"/><path d="M202.082,70.37405l4.9772-.5728a4.08481,4.08481,0,0,0,3.54574-3.95312,3.09816,3.09816,0,0,0-3.54574-3.1382l-9.22906.961a2.877,2.877,0,0,1-3.29271-2.91422h0a3.79324,3.79324,0,0,1,3.29271-3.671l11.33169-1.43086a4.08492,4.08492,0,0,0,3.54558-3.95313,3.09821,3.09821,0,0,0-3.54558-3.13835l-6.34828.93388a2.87721,2.87721,0,0,1-3.29256-2.91438,3.79338,3.79338,0,0,1,3.29271-3.671l1.30873-.11138a4.08482,4.08482,0,0,0,3.54574-3.95313,3.09817,3.09817,0,0,0-3.54574-3.1382L33.54574,55.67414A4.08494,4.08494,0,0,0,30,59.62727a3.09817,3.09817,0,0,0,3.54574,3.1382l7.94878-.91345a2.87693,2.87693,0,0,1,3.29256,2.91422,3.79336,3.79336,0,0,1-3.29256,3.67105,4.085,4.085,0,0,0-3.54574,3.95328,3.09812,3.09812,0,0,0,3.54574,3.138l9.81169-1.35307a2.87707,2.87707,0,0,1,3.29271,2.91423v.00015a3.79321,3.79321,0,0,1-3.29271,3.67089l-7.29593.939A4.08494,4.08494,0,0,0,40.46455,85.653a3.09816,3.09816,0,0,0,3.54573,3.1382l4.426-.60912a2.87708,2.87708,0,0,1,3.29273,2.91423,3.79341,3.79341,0,0,1-3.29273,3.67119l-4.64745.53406a4.08493,4.08493,0,0,0-3.54574,3.95313v.00015a3.098,3.098,0,0,0,3.54574,3.138l162.94055-18.8761a4.08494,4.08494,0,0,0,3.54574-3.95313v-.00015a3.09806,3.09806,0,0,0-3.54574-3.13805l-4.64745.53406a2.877,2.877,0,0,1-3.29256-2.91423A3.79325,3.79325,0,0,1,202.082,70.37405Z" style="fill:url(#d)"/><path d="M215.77341,68.28232h0a2.679,2.679,0,0,1-3.066-2.71356h0a3.53228,3.53228,0,0,1,3.066-3.41831h0a2.679,2.679,0,0,1,3.066,2.71356h0A3.53216,3.53216,0,0,1,215.77341,68.28232Z" style="fill:url(#e)"/><path d="M156.40327,99.43292q-2.52337-2.67543-7.16157-2.2924a10.0302,10.0302,0,0,0-7.24751,3.54165,12.29169,12.29169,0,0,0-2.60807,8.09406q0,4.93476,2.69585,7.59724a8.76321,8.76321,0,0,0,7.2475,2.28573,9.85091,9.85091,0,0,0,7.0738-3.38335,12.18089,12.18089,0,0,0,2.52224-8.08574Q158.92551,102.11258,156.40327,99.43292Zm-7.27644,12.31822a3.2618,3.2618,0,0,1-2.60974-.679,3.85322,3.85322,0,0,1-.8688-2.87109,4.51825,4.51825,0,0,1,.83975-3.014,3.81264,3.81264,0,0,1,2.6677-1.11487,3.25931,3.25931,0,0,1,2.638.64846,3.9972,3.9972,0,0,1,.81175,2.87624Q152.60553,111.4643,149.12683,111.75114Z" style="fill:url(#f)"/><path d="M156.40327,99.43292q-2.52337-2.67543-7.16157-2.2924a10.0302,10.0302,0,0,0-7.24751,3.54165,12.29169,12.29169,0,0,0-2.60807,8.09406q0,4.93476,2.69585,7.59724a8.76321,8.76321,0,0,0,7.2475,2.28573,9.85091,9.85091,0,0,0,7.0738-3.38335,12.18089,12.18089,0,0,0,2.52224-8.08574Q158.92551,102.11258,156.40327,99.43292Zm-7.27644,12.31822a3.2618,3.2618,0,0,1-2.60974-.679,3.85322,3.85322,0,0,1-.8688-2.87109,4.51825,4.51825,0,0,1,.83975-3.014,3.81264,3.81264,0,0,1,2.6677-1.11487,3.25931,3.25931,0,0,1,2.638.64846,3.9972,3.9972,0,0,1,.81175,2.87624Q152.60553,111.4643,149.12683,111.75114Z" style="mix-blend-mode:multiply;fill:url(#g)"/><path d="M161.86229,98.99662q1.22625-2.26909,2.41074-2.36488a7.72287,7.72287,0,0,1,3.453.93811q2.267,1.03671,2.2677,2.4454a4.21725,4.21725,0,0,1-.66072,1.84308l-15.829,31.619-.19023.29979q-1.04074,1.96536-2.17466,2.05964a7.90809,7.90809,0,0,1-3.403-.89377q-2.26909-.99086-2.27045-2.11791a4.71225,4.71225,0,0,1,.66193-2.31207Z" style="fill:url(#h)"/><path d="M161.86229,98.99662q1.22625-2.26909,2.41074-2.36488a7.72287,7.72287,0,0,1,3.453.93811q2.267,1.03671,2.2677,2.4454a4.21725,4.21725,0,0,1-.66072,1.84308l-15.829,31.619-.19023.29979q-1.04074,1.96536-2.17466,2.05964a7.90809,7.90809,0,0,1-3.403-.89377q-2.26909-.99086-2.27045-2.11791a4.71225,4.71225,0,0,1,.66193-2.31207Z" style="mix-blend-mode:multiply;fill:url(#i)"/><path d="M173.20441,112.38008q-2.49405-2.68041-7.16063-2.29406a10.05862,10.05862,0,0,0-7.27641,3.54665,12.27948,12.27948,0,0,0-2.60914,8.09088q0,4.93453,2.69585,7.62614a8.74681,8.74681,0,0,0,7.27641,2.31449,9.78654,9.78654,0,0,0,7.07392-3.385,12.31521,12.31521,0,0,0,2.49322-8.11283Q175.69763,115.06065,173.20441,112.38008Zm-7.30531,12.37786a3.16678,3.16678,0,0,1-2.581-.6807,4.009,4.009,0,0,1-.8399-2.90515,4.66536,4.66536,0,0,1,.811-3.03786,3.70074,3.70074,0,0,1,2.6388-1.11306,3.35669,3.35669,0,0,1,2.66679.645,3.89446,3.89446,0,0,1,.84081,2.87457Q169.43561,124.46443,165.8991,124.75794Z" style="fill:url(#j)"/><path d="M90.59808,106.45221a3.55785,3.55785,0,0,1,2.014-1.58734,14.78941,14.78941,0,0,1,3.73384-.71,11.52427,11.52427,0,0,1,3.69738.16813,3.03469,3.03469,0,0,1,1.97747,1.3676,5.06723,5.06723,0,0,1,.69583,1.873,21.9172,21.9172,0,0,1,.10941,2.54149v40.52282a9.97566,9.97566,0,0,1-.69583,4.24853,3.85407,3.85407,0,0,1-2.12335,1.96022,12.76066,12.76066,0,0,1-3.55043.73139,12.15622,12.15622,0,0,1-3.36823-.08611,5.25221,5.25221,0,0,1-1.90344-.71732,2.52933,2.52933,0,0,1-.95222-1.37864,11.763,11.763,0,0,1-.43962-3.75307v-8.89219l-19.84252,1.64015q-5.12543.42381-6.07694-2.26713a10.43761,10.43761,0,0,1-.36577-3.10278,14.3146,14.3146,0,0,1,.21989-2.9336l6.07694-24.91763q.439-1.71249.76877-2.61458a4.58977,4.58977,0,0,1,1.318-1.785,4.18377,4.18377,0,0,1,2.52633-1.01091,12.32648,12.32648,0,0,1,3.36732.232q5.1252.9618,5.12565,4.24142a12.82347,12.82347,0,0,1-.51256,3.10172.61109.61109,0,0,0-.074.22488l-4.4663,18.15289,11.9352-.9867V110.81923a20.45963,20.45963,0,0,1,.10941-2.48792A5.63176,5.63176,0,0,1,90.59808,106.45221Z" style="fill:url(#k)"/><path d="M90.59808,106.45221a3.55785,3.55785,0,0,1,2.014-1.58734,14.78941,14.78941,0,0,1,3.73384-.71,11.52427,11.52427,0,0,1,3.69738.16813,3.03469,3.03469,0,0,1,1.97747,1.3676,5.06723,5.06723,0,0,1,.69583,1.873,21.9172,21.9172,0,0,1,.10941,2.54149v40.52282a9.97566,9.97566,0,0,1-.69583,4.24853,3.85407,3.85407,0,0,1-2.12335,1.96022,12.76066,12.76066,0,0,1-3.55043.73139,12.15622,12.15622,0,0,1-3.36823-.08611,5.25221,5.25221,0,0,1-1.90344-.71732,2.52933,2.52933,0,0,1-.95222-1.37864,11.763,11.763,0,0,1-.43962-3.75307v-8.89219l-19.84252,1.64015q-5.12543.42381-6.07694-2.26713a10.43761,10.43761,0,0,1-.36577-3.10278,14.3146,14.3146,0,0,1,.21989-2.9336l6.07694-24.91763q.439-1.71249.76877-2.61458a4.58977,4.58977,0,0,1,1.318-1.785,4.18377,4.18377,0,0,1,2.52633-1.01091,12.32648,12.32648,0,0,1,3.36732.232q5.1252.9618,5.12565,4.24142a12.82347,12.82347,0,0,1-.51256,3.10172.61109.61109,0,0,0-.074.22488l-4.4663,18.15289,11.9352-.9867V110.81923a20.45963,20.45963,0,0,1,.10941-2.48792A5.63176,5.63176,0,0,1,90.59808,106.45221Z" style="mix-blend-mode:multiply;fill:url(#l)"/><path d="M104.05827,108.99794a18.78437,18.78437,0,0,1,5.96768-5.45,20.18344,20.18344,0,0,1,8.896-2.73913,18.01237,18.01237,0,0,1,8.82337,1.2379,15.1081,15.1081,0,0,1,5.93,4.39336,22.10321,22.10321,0,0,1,3.4787,6.56317,41.92408,41.92408,0,0,1,2.19615,13.73834q0,13.19211-5.71026,21.3893a18.07271,18.07271,0,0,1-5.89455,5.298,20.44823,20.44823,0,0,1-8.75043,2.61762,18.58988,18.58988,0,0,1-8.82212-1.20144,15.00961,15.00961,0,0,1-6.004-4.27789,22.305,22.305,0,0,1-3.55146-6.48418,42.56017,42.56017,0,0,1-2.12338-14.03616,41.0993,41.0993,0,0,1,1.72111-12.60561A33.55127,33.55127,0,0,1,104.05827,108.99794Zm14.79086,34.08827q7.53957-.62289,7.54172-14.9092v-.4366q0-14.64943-7.46893-14.03207-7.46829.617-7.46766,15.30236Q111.45426,143.69805,118.84913,143.08621Z" style="fill:url(#m)"/><path d="M74.45982,81.45781q.19629,3.28272,5.30762,2.67969,5.10938-.60351,4.93359-3.55176a2.73944,2.73944,0,0,0-1.90039-2.3623,16.99322,16.99322,0,0,0-4.33691-1.166q-2.53272-.3706-5.0752-.958a9.71406,9.71406,0,0,1-4.40234-2.25976,6.26247,6.26247,0,0,1-2.02734-4.48047q-.71485-11.93847,15.874-13.89551,6.06006-.71484,9.2959,1.03614a6.30578,6.30578,0,0,1,3.46,5.50781,9.22639,9.22639,0,0,1-.22754,2.68652,6.16085,6.16085,0,0,1-.68945,1.87695l-.377.61915L85.204,68.2625a3.9011,3.9011,0,0,0,.96485-2.89258q-.186-3.09228-4.55176-2.57617-5.49609.64746-5.30078,3.88184a2.67178,2.67178,0,0,0,1.89844,2.3623,15.35169,15.35169,0,0,0,4.32812,1q2.52393.25342,5.08887.76465a9.15608,9.15608,0,0,1,4.42383,2.18457,6.52174,6.52174,0,0,1,2.04,4.66992q.36182,6.04248-3.36622,9.42774Q86.9984,90.47,78.88463,91.42656q-8.1167.95655-11.25391-1.35644a6.66555,6.66555,0,0,1-2.54-5.25684,15.43722,15.43722,0,0,1,.13477-2.9375l.1084-.77929,9.24609-1.08985-.06836.582A4.13856,4.13856,0,0,0,74.45982,81.45781Z" style="fill:#fff"/><path d="M115.26158,86.46758l-.13965-7.50488-8.57715,1.01074-2.07031,7.76562-9.80859,1.15723,11.14746-35.80566,16.95019-1.998,2.25782,34.22461Zm-3.6582-25.67774-3.335,12.56153,6.72949-.793L114.83873,60.409Z" style="fill:#fff"/><path d="M152.037,82.13164,128.6151,84.89336l4.47168-35.01855,9.24511-1.08985L138.85435,76.2127l14.17676-1.6709Z" style="fill:#fff"/><path d="M180.64635,78.75859l-25.78321,3.04,4.46973-35.01757,25.78516-3.04-.99317,7.58886-16.54,1.9502L166.788,59.8416,180.452,58.23027l-.99316,7.58985-13.66309,1.61035-.69434,5.6875,16.53907-1.94922Z" style="fill:#fff"/><path d="M111.452,162.16289a6.1955,6.1955,0,0,1,6.79785,6.3252,7.61276,7.61276,0,0,1-1.93066,5.15136,6.851,6.851,0,0,1-4.75586,2.45508,5.96483,5.96483,0,0,1-4.80176-1.63574,6.1786,6.1786,0,0,1-1.97851-4.68164,7.74454,7.74454,0,0,1,.55761-2.9209,7.44946,7.44946,0,0,1,1.48633-2.37012,7.8128,7.8128,0,0,1,2.13477-1.59961A6.61506,6.61506,0,0,1,111.452,162.16289Zm-3.38184,7.25a3.25391,3.25391,0,0,0,1.06934,2.583,3.10441,3.10441,0,0,0,2.38574.8291,3.69447,3.69447,0,0,0,2.37793-1.19434,3.7996,3.7996,0,0,0,1.0586-2.76953,3.2744,3.2744,0,0,0-1.06739-2.61035,3.12612,3.12612,0,0,0-2.38769-.81933,3.64838,3.64838,0,0,0-2.37695,1.22168A3.85281,3.85281,0,0,0,108.07017,169.41289Z"/><path d="M128.46666,160.92266a5.42384,5.42384,0,0,1,.6416-.02539,1.31134,1.31134,0,0,1,.48242.13574.73375.73375,0,0,1,.38086.46777,3.121,3.121,0,0,1,.11231.9336,3.30852,3.30852,0,0,1-.11231.95214.86726.86726,0,0,1-.39062.52247,1.71834,1.71834,0,0,1-.49121.207,5.58173,5.58173,0,0,1-.66016.082l-5.68359.46972V166.535l3.65918-.30176a5.40829,5.40829,0,0,1,.65918-.02636,1.39752,1.39752,0,0,1,.49218.13476q.48341.23731.4834,1.41992,0,1.29494-.706,1.59375a3.58645,3.58645,0,0,1-.94727.16993l-3.64062.30078v3.49511a5.3815,5.3815,0,0,1-.02832.6504,1.62652,1.62652,0,0,1-.17579.49511q-.2622.52-1.44921.61817-1.30079.10839-1.52344-.57618a2.80441,2.80441,0,0,1-.11133-.93359V163.29473a1.90432,1.90432,0,0,1,.35254-1.31446,2.08976,2.08976,0,0,1,1.33789-.45214Z"/><path d="M140.29869,159.94414a5.42384,5.42384,0,0,1,.6416-.02539,1.3311,1.3311,0,0,1,.48242.13574.7367.7367,0,0,1,.38086.46778,3.16483,3.16483,0,0,1,.11133.93457,3.34031,3.34031,0,0,1-.11133.95117.87089.87089,0,0,1-.39062.52246,1.7242,1.7242,0,0,1-.49121.208,5.80043,5.80043,0,0,1-.66016.082l-5.68359.46973v1.86718l3.65918-.30273a5.61375,5.61375,0,0,1,.65918-.02637,1.38633,1.38633,0,0,1,.49218.13574c.32227.15723.48243.63184.48243,1.41993q0,1.29492-.70508,1.59277a3.62816,3.62816,0,0,1-.94727.1709l-3.64062.30078v3.49512a5.35131,5.35131,0,0,1-.02832.64941,1.6357,1.6357,0,0,1-.17578.49512q-.26221.52147-1.44922.61914-1.30078.10693-1.52344-.57617a2.80945,2.80945,0,0,1-.11231-.93457V162.31621a1.90392,1.90392,0,0,1,.35352-1.31445,2.09221,2.09221,0,0,1,1.33691-.45215Z"/><path d="M111.452,162.16289a6.1955,6.1955,0,0,1,6.79785,6.3252,7.61276,7.61276,0,0,1-1.93066,5.15136,6.851,6.851,0,0,1-4.75586,2.45508,5.96483,5.96483,0,0,1-4.80176-1.63574,6.1786,6.1786,0,0,1-1.97851-4.68164,7.74454,7.74454,0,0,1,.55761-2.9209,7.44946,7.44946,0,0,1,1.48633-2.37012,7.8128,7.8128,0,0,1,2.13477-1.59961A6.61506,6.61506,0,0,1,111.452,162.16289Zm-3.38184,7.25a3.25391,3.25391,0,0,0,1.06934,2.583,3.10441,3.10441,0,0,0,2.38574.8291,3.69447,3.69447,0,0,0,2.37793-1.19434,3.7996,3.7996,0,0,0,1.0586-2.76953,3.2744,3.2744,0,0,0-1.06739-2.61035,3.12612,3.12612,0,0,0-2.38769-.81933,3.64838,3.64838,0,0,0-2.37695,1.22168A3.85281,3.85281,0,0,0,108.07017,169.41289Z" style="fill:url(#n)"/><path d="M128.46666,160.92266a5.42384,5.42384,0,0,1,.6416-.02539,1.31134,1.31134,0,0,1,.48242.13574.73375.73375,0,0,1,.38086.46777,3.121,3.121,0,0,1,.11231.9336,3.30852,3.30852,0,0,1-.11231.95214.86726.86726,0,0,1-.39062.52247,1.71834,1.71834,0,0,1-.49121.207,5.58173,5.58173,0,0,1-.66016.082l-5.68359.46972V166.535l3.65918-.30176a5.40829,5.40829,0,0,1,.65918-.02636,1.39752,1.39752,0,0,1,.49218.13476q.48341.23731.4834,1.41992,0,1.29494-.706,1.59375a3.58645,3.58645,0,0,1-.94727.16993l-3.64062.30078v3.49511a5.3815,5.3815,0,0,1-.02832.6504,1.62652,1.62652,0,0,1-.17579.49511q-.2622.52-1.44921.61817-1.30079.10839-1.52344-.57618a2.80441,2.80441,0,0,1-.11133-.93359V163.29473a1.90432,1.90432,0,0,1,.35254-1.31446,2.08976,2.08976,0,0,1,1.33789-.45214Z" style="fill:url(#n)"/><path d="M140.29869,159.94414a5.42384,5.42384,0,0,1,.6416-.02539,1.3311,1.3311,0,0,1,.48242.13574.7367.7367,0,0,1,.38086.46778,3.16483,3.16483,0,0,1,.11133.93457,3.34031,3.34031,0,0,1-.11133.95117.87089.87089,0,0,1-.39062.52246,1.7242,1.7242,0,0,1-.49121.208,5.80043,5.80043,0,0,1-.66016.082l-5.68359.46973v1.86718l3.65918-.30273a5.61375,5.61375,0,0,1,.65918-.02637,1.38633,1.38633,0,0,1,.49218.13574c.32227.15723.48243.63184.48243,1.41993q0,1.29492-.70508,1.59277a3.62816,3.62816,0,0,1-.94727.1709l-3.64062.30078v3.49512a5.35131,5.35131,0,0,1-.02832.64941,1.6357,1.6357,0,0,1-.17578.49512q-.26221.52147-1.44922.61914-1.30078.10693-1.52344-.57617a2.80945,2.80945,0,0,1-.11231-.93457V162.31621a1.90392,1.90392,0,0,1,.35352-1.31445,2.09221,2.09221,0,0,1,1.33691-.45215Z" style="fill:url(#n)"/></g></svg>