<svg xmlns="http://www.w3.org/2000/svg" xmlns:xlink="http://www.w3.org/1999/xlink" viewBox="0 0 250 250"><defs><radialGradient id="a" cx="-631.96185" cy="271.9606" r="20.71882" gradientTransform="translate(3281.70379 -1263.73742) scale(4.9599 5.172)" gradientUnits="userSpaceOnUse"><stop offset="0" stop-color="#514643"/><stop offset="0.19106" stop-color="#5f5552" stop-opacity="0.91825"/><stop offset="0.46137" stop-color="#877f7d" stop-opacity="0.68973"/><stop offset="0.77743" stop-color="#c8c4c3" stop-opacity="0.31675"/><stop offset="1" stop-color="#fff" stop-opacity="0"/></radialGradient><linearGradient id="b" x1="127.89859" y1="481.16034" x2="163.65469" y2="535.84617" gradientTransform="matrix(0.9639, -0.2663, 0.2663, 0.9639, -124.28085, -284.89093)" gradientUnits="userSpaceOnUse"><stop offset="0" stop-color="#282426"/><stop offset="0.37554" stop-color="#2e2b2c"/><stop offset="0.90269" stop-color="#3d3d3d"/><stop offset="1" stop-color="#414141"/></linearGradient><radialGradient id="c" cx="-85.29689" cy="103.54265" r="108.86628" gradientTransform="translate(232.44901 67.65554) scale(1.2021 0.16297)" gradientUnits="userSpaceOnUse"><stop offset="0.12619" stop-color="#515151"/><stop offset="0.31273" stop-color="#696969" stop-opacity="0.85959"/><stop offset="0.64443" stop-color="#ababab" stop-opacity="0.48529"/><stop offset="1" stop-color="#fff" stop-opacity="0"/></radialGradient><linearGradient id="d" x1="121.10248" y1="87.32349" x2="121.50231" y2="36.94317" gradientTransform="matrix(1, 0, 0, 1, 0, 0)" xlink:href="#b"/><linearGradient id="e" x1="215.6152" y1="85.15572" x2="215.99526" y2="37.2654" gradientTransform="matrix(1, 0, 0, 1, 0, 0)" xlink:href="#b"/><linearGradient id="f" x1="100.04373" y1="138.74048" x2="71.72665" y2="116.84587" gradientUnits="userSpaceOnUse"><stop offset="0" stop-color="#a9141d"/><stop offset="0.28128" stop-color="#b0141e"/><stop offset="0.67604" stop-color="#c2161f"/><stop offset="1" stop-color="#d61721"/></linearGradient><radialGradient id="g" cx="107.91549" cy="142.7261" r="17.18578" gradientTransform="translate(-14.96991 -377.63373) rotate(-1.64297) scale(1 3.66905)" gradientUnits="userSpaceOnUse"><stop offset="0.06538" stop-color="#514444"/><stop offset="0.24499" stop-color="#625656" stop-opacity="0.90484"/><stop offset="0.51935" stop-color="#8f8787" stop-opacity="0.64292"/><stop offset="0.85256" stop-color="#d9d6d6" stop-opacity="0.21716"/><stop offset="1" stop-color="#fff" stop-opacity="0"/></radialGradient><linearGradient id="h" x1="100.33011" y1="127.67082" x2="141.39732" y2="127.67082" xlink:href="#f"/><linearGradient id="i" x1="155.3715" y1="114.76924" x2="142.31087" y2="100.15905" xlink:href="#f"/><radialGradient id="j" cx="158.79345" cy="116.72565" r="10.3012" gradientTransform="translate(161.70329 -130.67172) rotate(40.6009) scale(1 1.62546)" gradientUnits="userSpaceOnUse"><stop offset="0.12823" stop-color="#514444"/><stop offset="0.29576" stop-color="#625656" stop-opacity="0.90484"/><stop offset="0.55167" stop-color="#8f8787" stop-opacity="0.64292"/><stop offset="0.86248" stop-color="#d9d6d6" stop-opacity="0.21716"/><stop offset="1" stop-color="#fff" stop-opacity="0"/></radialGradient><linearGradient id="k" x1="145.46559" y1="116.23412" x2="169.99366" y2="116.23412" xlink:href="#f"/><radialGradient id="l" cx="161.62301" cy="118.75666" r="9.38605" gradientTransform="translate(165.90167 -199.93986) rotate(31.2395) scale(1 2.31319)" gradientUnits="userSpaceOnUse"><stop offset="0.17865" stop-color="#514444"/><stop offset="0.3365" stop-color="#625656" stop-opacity="0.90484"/><stop offset="0.57761" stop-color="#8f8787" stop-opacity="0.64292"/><stop offset="0.87043" stop-color="#d9d6d6" stop-opacity="0.21716"/><stop offset="1" stop-color="#fff" stop-opacity="0"/></radialGradient><linearGradient id="m" x1="160.42828" y1="130.56911" x2="171.65253" y2="111.12814" xlink:href="#f"/><linearGradient id="n" x1="115.37932" y1="179.63598" x2="130.37111" y2="153.66944" xlink:href="#f"/></defs><g style="isolation:isolate"><ellipse cx="147.23621" cy="142.84272" rx="102.76376" ry="107.15728" style="mix-blend-mode:multiply;fill:url(#a)"/><path d="M131.01518,202.064c27.51977-1.33627,63.762-11.93541,68.496-43.04492,4.73411-31.10951-21.88308-71.90528-56.20694-66.99175-39.62353,5.67224-76.197,51.70191-76.60174,74.46187C66.20575,194.42211,111.50715,203.01128,131.01518,202.064Z" style="fill:url(#b)"/><path d="M94.09211,83.12893c-26.57535,13.79913-55.88822,39.33812-40.59805,67.445s68.065,49.83378,99.12247,29.91719c35.85286-22.99179,42.707-78.209,28.47141-97.36216C163.61671,59.6224,112.93063,73.347,94.09211,83.12893Z" style="fill:#fff"/><path d="M94.09211,83.12893c-26.57535,13.79913-55.88822,39.33812-40.59805,67.445s68.065,49.83378,99.12247,29.91719c35.85286-22.99179,42.707-78.209,28.47141-97.36216C163.61671,59.6224,112.93063,73.347,94.09211,83.12893Z" style="mix-blend-mode:multiply;fill:url(#c)"/><path d="M202.08208,70.37415l4.97715-.5729a4.08476,4.08476,0,0,0,3.54573-3.95312,3.09817,3.09817,0,0,0-3.54573-3.13821l-9.22918.961a2.877,2.877,0,0,1-3.29265-2.91419v-.00006a3.79325,3.79325,0,0,1,3.29265-3.671l11.33174-1.431a4.08482,4.08482,0,0,0,3.54568-3.95311,3.09812,3.09812,0,0,0-3.54568-3.13821l-6.34823.93373a2.87709,2.87709,0,0,1-3.29259-2.91426,3.79339,3.79339,0,0,1,3.29266-3.67112l1.30872-.11135a4.0848,4.0848,0,0,0,3.54572-3.95311,3.09814,3.09814,0,0,0-3.54572-3.13822L33.54573,55.67421A4.08491,4.08491,0,0,0,30,59.62732a3.09813,3.09813,0,0,0,3.54573,3.13821l7.94872-.91353a2.877,2.877,0,0,1,3.29265,2.91426,3.79337,3.79337,0,0,1-3.29265,3.67111,4.08483,4.08483,0,0,0-3.54566,3.95318,3.0981,3.0981,0,0,0,3.54566,3.13815l9.81179-1.353a2.877,2.877,0,0,1,3.29265,2.91419v.00006a3.7933,3.7933,0,0,1-3.29265,3.671l-7.29594.939A4.08486,4.08486,0,0,0,40.46458,85.653a3.09817,3.09817,0,0,0,3.54572,3.13822l4.426-.60911A2.87705,2.87705,0,0,1,51.729,91.09634a3.79338,3.79338,0,0,1-3.29272,3.67111l-4.64748.53409a4.085,4.085,0,0,0-3.54566,3.95318v.00006a3.09807,3.09807,0,0,0,3.54566,3.13815L206.72949,83.51677a4.08492,4.08492,0,0,0,3.54573-3.95318v-.00007a3.09818,3.09818,0,0,0-3.54573-3.13814l-4.64741.53408a2.877,2.877,0,0,1-3.29271-2.91425A3.79331,3.79331,0,0,1,202.08208,70.37415Z" style="fill:url(#d)"/><path d="M215.77347,68.28241h0a2.67893,2.67893,0,0,1-3.066-2.71358v-.00007a3.53213,3.53213,0,0,1,3.066-3.4183h0a2.6789,2.6789,0,0,1,3.06594,2.71358v.00006A3.53215,3.53215,0,0,1,215.77347,68.28241Z" style="fill:url(#e)"/><path d="M80.25874,104.69329l11.18675-.8513,6.91832-.57219a21.47621,21.47621,0,0,1,2.57613-.10289,5.57517,5.57517,0,0,1,1.91376.53868q1.98708.86142,1.98708,5.696,0,4.39567-1.83991,5.49943a5.7447,5.7447,0,0,1-1.80333.84513,19.14765,19.14765,0,0,1-2.39178.30856l-12.88009,1.064q-.14816.89044-.73568,5.62875a16.36487,16.36487,0,0,1,2.57612-.35945,16.62856,16.62856,0,0,1,12.58532,4.19714,15.49565,15.49565,0,0,1,5.59313,12.35827,19.58694,19.58694,0,0,1-5.29888,13.47727,19.24729,19.24729,0,0,1-13.17435,6.54721,21.66991,21.66991,0,0,1-12.36385-2.42037,10.296,10.296,0,0,1-1.84044-1.24019l-.58852-.46431q-2.79737-2.18717-2.79654-4.16454,0-1.97795,2.72322-4.98627,2.20782-2.60111,4.26842-2.77063,2.05959-.1695,4.93079,1.93671,1.32495,1.428,4.59986,1.15769a7.74834,7.74834,0,0,0,4.85792-1.79309,5.27132,5.27132,0,0,0,1.58186-3.9762,4.37583,4.37583,0,0,0-1.72895-3.741,5.6156,5.6156,0,0,0-3.938-1.10273,5.20319,5.20319,0,0,0-3.53221,1.61085,6.78076,6.78076,0,0,1-4.01182,2.01606,9.54188,9.54188,0,0,1-4.636-1.008A13.50677,13.50677,0,0,1,71.57428,136.07a2.34533,2.34533,0,0,1-.80952-1.72791q0-.95154,1.47188-11.91534,1.47152-10.96329,1.54612-11.41025a9.5192,9.5192,0,0,1,.51474-1.58133,10.51849,10.51849,0,0,1,1.06712-2.06493,6.19681,6.19681,0,0,1,1.91376-1.73407A6.57609,6.57609,0,0,1,80.25874,104.69329Z" style="fill:url(#f)"/><path d="M80.25874,104.69329l11.18675-.8513,6.91832-.57219a21.47621,21.47621,0,0,1,2.57613-.10289,5.57517,5.57517,0,0,1,1.91376.53868q1.98708.86142,1.98708,5.696,0,4.39567-1.83991,5.49943a5.7447,5.7447,0,0,1-1.80333.84513,19.14765,19.14765,0,0,1-2.39178.30856l-12.88009,1.064q-.14816.89044-.73568,5.62875a16.36487,16.36487,0,0,1,2.57612-.35945,16.62856,16.62856,0,0,1,12.58532,4.19714,15.49565,15.49565,0,0,1,5.59313,12.35827,19.58694,19.58694,0,0,1-5.29888,13.47727,19.24729,19.24729,0,0,1-13.17435,6.54721,21.66991,21.66991,0,0,1-12.36385-2.42037,10.296,10.296,0,0,1-1.84044-1.24019l-.58852-.46431q-2.79737-2.18717-2.79654-4.16454,0-1.97795,2.72322-4.98627,2.20782-2.60111,4.26842-2.77063,2.05959-.1695,4.93079,1.93671,1.32495,1.428,4.59986,1.15769a7.74834,7.74834,0,0,0,4.85792-1.79309,5.27132,5.27132,0,0,0,1.58186-3.9762,4.37583,4.37583,0,0,0-1.72895-3.741,5.6156,5.6156,0,0,0-3.938-1.10273,5.20319,5.20319,0,0,0-3.53221,1.61085,6.78076,6.78076,0,0,1-4.01182,2.01606,9.54188,9.54188,0,0,1-4.636-1.008A13.50677,13.50677,0,0,1,71.57428,136.07a2.34533,2.34533,0,0,1-.80952-1.72791q0-.95154,1.47188-11.91534,1.47152-10.96329,1.54612-11.41025a9.5192,9.5192,0,0,1,.51474-1.58133,10.51849,10.51849,0,0,1,1.06712-2.06493,6.19681,6.19681,0,0,1,1.91376-1.73407A6.57609,6.57609,0,0,1,80.25874,104.69329Z" style="mix-blend-mode:multiply;fill:url(#g)"/><path d="M105.92325,108.141a18.89254,18.89254,0,0,1,5.99836-5.478,20.28918,20.28918,0,0,1,8.94214-2.75332,18.10183,18.10183,0,0,1,8.86822,1.24432,15.192,15.192,0,0,1,5.9617,4.416,22.23842,22.23842,0,0,1,3.49563,6.59711,42.13,42.13,0,0,1,2.208,13.80917q0,13.26042-5.74031,21.4999a18.14107,18.14107,0,0,1-5.925,5.32531,20.54946,20.54946,0,0,1-8.795,2.63115,18.68962,18.68962,0,0,1-8.86822-1.20766,15.08348,15.08348,0,0,1-6.035-4.3,22.40913,22.40913,0,0,1-3.5694-6.51769,42.78046,42.78046,0,0,1-2.13424-14.10855,41.316,41.316,0,0,1,1.72948-12.66978A33.7496,33.7496,0,0,1,105.92325,108.141Zm14.86665,34.26438q7.58024-.62613,7.58121-14.98522v-.43991q0-14.7236-7.50736-14.10448-7.50694.62013-7.50691,15.38139Q113.35684,143.02036,120.7899,142.40535Z" style="fill:url(#h)"/><path d="M156.40333,99.433q-2.52349-2.67539-7.16156-2.29249a10.03044,10.03044,0,0,0-7.24747,3.54166,12.29183,12.29183,0,0,0-2.60819,8.09418q0,4.93464,2.6958,7.59721a8.7636,8.7636,0,0,0,7.24748,2.28567,9.85055,9.85055,0,0,0,7.07394-3.38335,12.18089,12.18089,0,0,0,2.52215-8.08572Q158.92548,102.11254,156.40333,99.433Zm-7.27646,12.31826a3.26215,3.26215,0,0,1-2.60983-.67908,3.854,3.854,0,0,1-.86881-2.8711,4.51757,4.51757,0,0,1,.83989-3.014,3.81227,3.81227,0,0,1,2.66767-1.11473,3.25893,3.25893,0,0,1,2.638.64839,3.99678,3.99678,0,0,1,.81182,2.87622Q152.60558,111.46445,149.12687,111.75123Z" style="fill:url(#i)"/><path d="M156.40333,99.433q-2.52349-2.67539-7.16156-2.29249a10.03044,10.03044,0,0,0-7.24747,3.54166,12.29183,12.29183,0,0,0-2.60819,8.09418q0,4.93464,2.6958,7.59721a8.7636,8.7636,0,0,0,7.24748,2.28567,9.85055,9.85055,0,0,0,7.07394-3.38335,12.18089,12.18089,0,0,0,2.52215-8.08572Q158.92548,102.11254,156.40333,99.433Zm-7.27646,12.31826a3.26215,3.26215,0,0,1-2.60983-.67908,3.854,3.854,0,0,1-.86881-2.8711,4.51757,4.51757,0,0,1,.83989-3.014,3.81227,3.81227,0,0,1,2.66767-1.11473,3.25893,3.25893,0,0,1,2.638.64839,3.99678,3.99678,0,0,1,.81182,2.87622Q152.60558,111.46445,149.12687,111.75123Z" style="mix-blend-mode:multiply;fill:url(#j)"/><path d="M161.86229,98.99659q1.22619-2.26911,2.41073-2.36482a7.72177,7.72177,0,0,1,3.45295.93813q2.267,1.03672,2.26769,2.44542a4.21761,4.21761,0,0,1-.66059,1.843L153.504,133.47738l-.19012.29984q-1.04085,1.96514-2.17477,2.05955a7.90868,7.90868,0,0,1-3.403-.8938q-2.26911-.99089-2.27052-2.11785a4.71236,4.71236,0,0,1,.662-2.31216Z" style="fill:url(#k)"/><path d="M161.86229,98.99659q1.22619-2.26911,2.41073-2.36482a7.72177,7.72177,0,0,1,3.45295.93813q2.267,1.03672,2.26769,2.44542a4.21761,4.21761,0,0,1-.66059,1.843L153.504,133.47738l-.19012.29984q-1.04085,1.96514-2.17477,2.05955a7.90868,7.90868,0,0,1-3.403-.8938q-2.26911-.99089-2.27052-2.11785a4.71236,4.71236,0,0,1,.662-2.31216Z" style="mix-blend-mode:multiply;fill:url(#l)"/><path d="M173.2044,112.38015q-2.49408-2.6805-7.16064-2.29413a10.0589,10.0589,0,0,0-7.27646,3.54671,12.27971,12.27971,0,0,0-2.609,8.09077q0,4.93466,2.69581,7.6262a8.74713,8.74713,0,0,0,7.27639,2.31459,9.78694,9.78694,0,0,0,7.07388-3.38506,12.31543,12.31543,0,0,0,2.4933-8.11293Q175.6977,115.06068,173.2044,112.38015ZM165.89909,124.758a3.16623,3.16623,0,0,1-2.58091-.68072,4.00874,4.00874,0,0,1-.83989-2.90514,4.665,4.665,0,0,1,.811-3.03787,3.70085,3.70085,0,0,1,2.63875-1.113,3.357,3.357,0,0,1,2.66682.64505,3.89425,3.89425,0,0,1,.84074,2.87444Q169.43557,124.46439,165.89909,124.758Z" style="fill:url(#m)"/><path d="M74.47024,81.44905q.19629,3.28272,5.30567,2.68066,5.11083-.60277,4.93457-3.55273a2.742,2.742,0,0,0-1.89942-2.36279,17.01153,17.01153,0,0,0-4.33789-1.165q-2.5327-.37134-5.07422-.959a9.70643,9.70643,0,0,1-4.40332-2.25879,6.26445,6.26445,0,0,1-2.02734-4.481q-.71631-11.93848,15.875-13.895,6.06006-.71485,9.2959,1.03613a6.30377,6.30377,0,0,1,3.459,5.5083,9.11734,9.11734,0,0,1-.22851,2.68506,6.11422,6.11422,0,0,1-.6875,1.87793l-.377.62012-9.09179,1.07177a3.89726,3.89726,0,0,0,.96484-2.89209q-.186-3.09375-4.55176-2.57812-5.49609.6482-5.30176,3.88232a2.67859,2.67859,0,0,0,1.9004,2.36377,15.33805,15.33805,0,0,0,4.32812.998q2.52246.25488,5.08789.76514A9.17283,9.17283,0,0,1,92.066,72.97883,6.51805,6.51805,0,0,1,94.105,77.64876q.36182,6.04248-3.36621,9.42724-3.72949,3.38526-11.84375,4.34278-8.11671.95654-11.25489-1.356a6.6725,6.6725,0,0,1-2.53906-5.25733,15.36533,15.36533,0,0,1,.13477-2.93847l.1084-.77881,9.24511-1.09033-.06836.58252A4.06194,4.06194,0,0,0,74.47024,81.44905Z" style="fill:#fff"/><path d="M115.271,86.4593l-.13867-7.50439-8.57715,1.01123-2.07031,7.76465-9.81055,1.15674,11.14844-35.80518L122.774,51.08382l2.25684,34.2246Zm-3.65918-25.67773-3.333,12.56152,6.72851-.79345-.16015-12.14942Z" style="fill:#fff"/><path d="M152.04739,82.12337,128.62552,84.8846l4.4707-35.01807,9.24609-1.08984-3.47754,27.42773,14.17578-1.67187Z" style="fill:#fff"/><path d="M180.65677,78.75032l-25.78418,3.04,4.46972-35.01856,25.78516-3.04-.99219,7.58985-16.54,1.94971-.79687,6.561L180.46145,58.222l-.99316,7.59033-13.66406,1.61084-.69239,5.68652,16.53809-1.95019Z" style="fill:#fff"/><path d="M111.45559,162.16243a6.19694,6.19694,0,0,1,6.79786,6.32568,7.614,7.614,0,0,1-1.93067,5.15186,6.85413,6.85413,0,0,1-4.75488,2.45459,5.96725,5.96725,0,0,1-4.80274-1.63623,6.17606,6.17606,0,0,1-1.97851-4.68116,7.76523,7.76523,0,0,1,.55762-2.92089,7.43858,7.43858,0,0,1,1.48632-2.37012,7.79069,7.79069,0,0,1,2.13575-1.59912A6.621,6.621,0,0,1,111.45559,162.16243Zm-3.38086,7.25049a3.2588,3.2588,0,0,0,1.06836,2.58349,3.11331,3.11331,0,0,0,2.38672.8291,3.69307,3.69307,0,0,0,2.377-1.19482,3.79838,3.79838,0,0,0,1.05957-2.769,3.2754,3.2754,0,0,0-1.06836-2.61084,3.12591,3.12591,0,0,0-2.38672-.81934,3.65723,3.65723,0,0,0-2.37793,1.22168A3.8562,3.8562,0,0,0,108.07473,169.41292Z"/><path d="M128.47122,160.92268a5.41731,5.41731,0,0,1,.64062-.02539,1.3257,1.3257,0,0,1,.4834.13574.73259.73259,0,0,1,.37989.46778,3.12267,3.12267,0,0,1,.1123.93408,3.30768,3.30768,0,0,1-.1123.95166.866.866,0,0,1-.38965.52246,1.73936,1.73936,0,0,1-.49219.20752,5.85851,5.85851,0,0,1-.65918.082l-5.68457.46973v1.86719l3.66016-.30274a5.58115,5.58115,0,0,1,.6582-.02588,1.39906,1.39906,0,0,1,.49316.13526q.48341.23657.48242,1.41992,0,1.29492-.706,1.59326a3.62268,3.62268,0,0,1-.94629.17041l-3.6416.30078v3.49512a5.41589,5.41589,0,0,1-.02734.6499,1.62393,1.62393,0,0,1-.17676.49512q-.26074.52075-1.44922.61865-1.30079.10767-1.52246-.57617a2.80609,2.80609,0,0,1-.11231-.93408V163.29475a1.90392,1.90392,0,0,1,.35352-1.31445,2.08973,2.08973,0,0,1,1.33691-.45264Z"/><path d="M140.30227,159.94465a5.42832,5.42832,0,0,1,.64161-.02539,1.31162,1.31162,0,0,1,.48242.13575.734.734,0,0,1,.38086.46728,3.12462,3.12462,0,0,1,.1123.93408,3.305,3.305,0,0,1-.1123.95166.86688.86688,0,0,1-.39063.523,1.735,1.735,0,0,1-.49121.20752,5.82219,5.82219,0,0,1-.66016.08155l-5.68359.47021v1.86719l3.65918-.30274a5.59632,5.59632,0,0,1,.65918-.02588,1.39782,1.39782,0,0,1,.49219.13477q.48339.2373.4834,1.41992,0,1.29492-.70606,1.59375a3.60641,3.60641,0,0,1-.94726.16992l-3.64063.30127v3.49512a5.37176,5.37176,0,0,1-.02832.6499,1.61114,1.61114,0,0,1-.17578.49463q-.26221.52149-1.44922.61914-1.30078.10767-1.52344-.57617a2.83828,2.83828,0,0,1-.11133-.93408V162.31673a1.90432,1.90432,0,0,1,.35254-1.31446,2.09234,2.09234,0,0,1,1.33789-.45263Z"/><path d="M111.45559,162.16243a6.19694,6.19694,0,0,1,6.79786,6.32568,7.614,7.614,0,0,1-1.93067,5.15186,6.85413,6.85413,0,0,1-4.75488,2.45459,5.96725,5.96725,0,0,1-4.80274-1.63623,6.17606,6.17606,0,0,1-1.97851-4.68116,7.76523,7.76523,0,0,1,.55762-2.92089,7.43858,7.43858,0,0,1,1.48632-2.37012,7.79069,7.79069,0,0,1,2.13575-1.59912A6.621,6.621,0,0,1,111.45559,162.16243Zm-3.38086,7.25049a3.2588,3.2588,0,0,0,1.06836,2.58349,3.11331,3.11331,0,0,0,2.38672.8291,3.69307,3.69307,0,0,0,2.377-1.19482,3.79838,3.79838,0,0,0,1.05957-2.769,3.2754,3.2754,0,0,0-1.06836-2.61084,3.12591,3.12591,0,0,0-2.38672-.81934,3.65723,3.65723,0,0,0-2.37793,1.22168A3.8562,3.8562,0,0,0,108.07473,169.41292Z" style="fill:url(#n)"/><path d="M128.47122,160.92268a5.41731,5.41731,0,0,1,.64062-.02539,1.3257,1.3257,0,0,1,.4834.13574.73259.73259,0,0,1,.37989.46778,3.12267,3.12267,0,0,1,.1123.93408,3.30768,3.30768,0,0,1-.1123.95166.866.866,0,0,1-.38965.52246,1.73936,1.73936,0,0,1-.49219.20752,5.85851,5.85851,0,0,1-.65918.082l-5.68457.46973v1.86719l3.66016-.30274a5.58115,5.58115,0,0,1,.6582-.02588,1.39906,1.39906,0,0,1,.49316.13526q.48341.23657.48242,1.41992,0,1.29492-.706,1.59326a3.62268,3.62268,0,0,1-.94629.17041l-3.6416.30078v3.49512a5.41589,5.41589,0,0,1-.02734.6499,1.62393,1.62393,0,0,1-.17676.49512q-.26074.52075-1.44922.61865-1.30079.10767-1.52246-.57617a2.80609,2.80609,0,0,1-.11231-.93408V163.29475a1.90392,1.90392,0,0,1,.35352-1.31445,2.08973,2.08973,0,0,1,1.33691-.45264Z" style="fill:url(#n)"/><path d="M140.30227,159.94465a5.42832,5.42832,0,0,1,.64161-.02539,1.31162,1.31162,0,0,1,.48242.13575.734.734,0,0,1,.38086.46728,3.12462,3.12462,0,0,1,.1123.93408,3.305,3.305,0,0,1-.1123.95166.86688.86688,0,0,1-.39063.523,1.735,1.735,0,0,1-.49121.20752,5.82219,5.82219,0,0,1-.66016.08155l-5.68359.47021v1.86719l3.65918-.30274a5.59632,5.59632,0,0,1,.65918-.02588,1.39782,1.39782,0,0,1,.49219.13477q.48339.2373.4834,1.41992,0,1.29492-.70606,1.59375a3.60641,3.60641,0,0,1-.94726.16992l-3.64063.30127v3.49512a5.37176,5.37176,0,0,1-.02832.6499,1.61114,1.61114,0,0,1-.17578.49463q-.26221.52149-1.44922.61914-1.30078.10767-1.52344-.57617a2.83828,2.83828,0,0,1-.11133-.93408V162.31673a1.90432,1.90432,0,0,1,.35254-1.31446,2.09234,2.09234,0,0,1,1.33789-.45263Z" style="fill:url(#n)"/></g></svg>