<svg xmlns="http://www.w3.org/2000/svg" xmlns:xlink="http://www.w3.org/1999/xlink" viewBox="0 0 250 250"><defs><radialGradient id="a" cx="-418.97264" cy="271.9606" r="20.71882" gradientTransform="translate(2225.29865 -1263.73742) scale(4.9599 5.172)" gradientUnits="userSpaceOnUse"><stop offset="0" stop-color="#514643"/><stop offset="0.19106" stop-color="#5f5552" stop-opacity="0.91825"/><stop offset="0.46137" stop-color="#877f7d" stop-opacity="0.68973"/><stop offset="0.77743" stop-color="#c8c4c3" stop-opacity="0.31675"/><stop offset="1" stop-color="#fff" stop-opacity="0"/></radialGradient><linearGradient id="b" x1="137.53402" y1="410.11929" x2="173.29011" y2="464.80511" gradientTransform="matrix(0.9639, -0.2663, 0.2663, 0.9639, -114.65025, -213.84856)" gradientUnits="userSpaceOnUse"><stop offset="0" stop-color="#282426"/><stop offset="0.37554" stop-color="#2e2b2c"/><stop offset="0.90269" stop-color="#3d3d3d"/><stop offset="1" stop-color="#414141"/></linearGradient><radialGradient id="c" cx="-40.4459" cy="103.54265" r="108.86623" gradientTransform="translate(178.53364 67.65554) scale(1.2021 0.16297)" gradientUnits="userSpaceOnUse"><stop offset="0.12619" stop-color="#515151"/><stop offset="0.31273" stop-color="#696969" stop-opacity="0.85959"/><stop offset="0.64443" stop-color="#ababab" stop-opacity="0.48529"/><stop offset="1" stop-color="#fff" stop-opacity="0"/></radialGradient><linearGradient id="d" x1="121.10243" y1="87.32346" x2="121.50226" y2="36.94317" gradientTransform="matrix(1, 0, 0, 1, 0, 0)" xlink:href="#b"/><linearGradient id="e" x1="215.61513" y1="85.15542" x2="215.99519" y2="37.26579" gradientTransform="matrix(1, 0, 0, 1, 0, 0)" xlink:href="#b"/><linearGradient id="f" x1="155.37145" y1="114.76921" x2="142.31079" y2="100.15898" gradientUnits="userSpaceOnUse"><stop offset="0" stop-color="#a9141d"/><stop offset="0.28128" stop-color="#b0141e"/><stop offset="0.67604" stop-color="#c2161f"/><stop offset="1" stop-color="#d61721"/></linearGradient><radialGradient id="g" cx="158.79346" cy="116.72568" r="10.30119" gradientTransform="translate(161.70332 -130.67173) rotate(40.6009) scale(1 1.62546)" gradientUnits="userSpaceOnUse"><stop offset="0.12823" stop-color="#514444"/><stop offset="0.29576" stop-color="#625656" stop-opacity="0.90484"/><stop offset="0.55167" stop-color="#8f8787" stop-opacity="0.64292"/><stop offset="0.86248" stop-color="#d9d6d6" stop-opacity="0.21716"/><stop offset="1" stop-color="#fff" stop-opacity="0"/></radialGradient><linearGradient id="h" x1="145.46561" y1="116.23413" x2="169.9937" y2="116.23413" xlink:href="#f"/><radialGradient id="i" cx="161.62305" cy="118.75666" r="9.38605" gradientTransform="translate(165.90168 -199.93988) rotate(31.2395) scale(1 2.31319)" gradientUnits="userSpaceOnUse"><stop offset="0.17865" stop-color="#514444"/><stop offset="0.3365" stop-color="#625656" stop-opacity="0.90484"/><stop offset="0.57761" stop-color="#8f8787" stop-opacity="0.64292"/><stop offset="0.87043" stop-color="#d9d6d6" stop-opacity="0.21716"/><stop offset="1" stop-color="#fff" stop-opacity="0"/></radialGradient><linearGradient id="j" x1="160.42823" y1="130.5691" x2="171.65249" y2="111.12812" xlink:href="#f"/><linearGradient id="k" x1="103.13712" y1="149.48092" x2="67.50285" y2="113.84665" xlink:href="#f"/><radialGradient id="l" cx="104.95851" cy="135.31851" r="20.81731" gradientTransform="translate(0 -147.96538) scale(1 2.09346)" gradientUnits="userSpaceOnUse"><stop offset="0" stop-color="#514444"/><stop offset="0.19218" stop-color="#625656" stop-opacity="0.90484"/><stop offset="0.48573" stop-color="#8f8787" stop-opacity="0.64292"/><stop offset="0.84225" stop-color="#d9d6d6" stop-opacity="0.21716"/><stop offset="1" stop-color="#fff" stop-opacity="0"/></radialGradient><linearGradient id="m" x1="99.02189" y1="127.67279" x2="139.87793" y2="127.67279" xlink:href="#f"/><linearGradient id="n" x1="115.37647" y1="179.63707" x2="130.36836" y2="153.67035" xlink:href="#f"/></defs><g style="isolation:isolate"><ellipse cx="147.23614" cy="142.8427" rx="102.76369" ry="107.1573" style="mix-blend-mode:multiply;fill:url(#a)"/><path d="M131.0151,202.064c27.5198-1.33627,63.762-11.9355,68.49615-43.04493,4.734-31.10958-21.88324-71.90524-56.207-66.99175-39.62359,5.67227-76.197,51.702-76.60187,74.46186C66.20576,194.4221,111.50718,203.01117,131.0151,202.064Z" style="fill:url(#b)"/><path d="M94.09205,83.1289c-26.57533,13.79917-55.88812,39.33817-40.598,67.445s68.065,49.83374,99.12253,29.91707c35.85285-22.99176,42.707-78.20888,28.47138-97.36207C163.61667,59.62246,112.93062,73.347,94.09205,83.1289Z" style="fill:#fff"/><path d="M94.09205,83.1289c-26.57533,13.79917-55.88812,39.33817-40.598,67.445s68.065,49.83374,99.12253,29.91707c35.85285-22.99176,42.707-78.20888,28.47138-97.36207C163.61667,59.62246,112.93062,73.347,94.09205,83.1289Z" style="mix-blend-mode:multiply;fill:url(#c)"/><path d="M202.082,70.37408l4.97724-.57279a4.08483,4.08483,0,0,0,3.54574-3.95313,3.09817,3.09817,0,0,0-3.54574-3.1382l-9.2291.961a2.877,2.877,0,0,1-3.29271-2.91423h0a3.79324,3.79324,0,0,1,3.29271-3.671l11.33168-1.43086a4.085,4.085,0,0,0,3.54559-3.95328,3.0981,3.0981,0,0,0-3.54559-3.13819l-6.34827.93387a2.87719,2.87719,0,0,1-3.29256-2.91437,3.79335,3.79335,0,0,1,3.29256-3.671l1.30888-.11138a4.08468,4.08468,0,0,0,3.54558-3.95313,3.098,3.098,0,0,0-3.54558-3.1382L33.54574,55.67417A4.085,4.085,0,0,0,30,59.6273a3.09817,3.09817,0,0,0,3.54574,3.1382l7.94863-.91345a2.877,2.877,0,0,1,3.2927,2.91423,3.79335,3.79335,0,0,1-3.2927,3.671,4.085,4.085,0,0,0-3.54556,3.95328,3.09806,3.09806,0,0,0,3.54556,3.138l9.81184-1.35307a2.87707,2.87707,0,0,1,3.29271,2.91423V77.09a3.79321,3.79321,0,0,1-3.29271,3.67089l-7.29593.939A4.085,4.085,0,0,0,40.46454,85.653a3.09817,3.09817,0,0,0,3.54574,3.1382l4.426-.60912A2.87706,2.87706,0,0,1,51.729,91.0963a3.79338,3.79338,0,0,1-3.2927,3.67119l-4.64745.53405a4.085,4.085,0,0,0-3.54574,3.95313v.00015a3.09806,3.09806,0,0,0,3.54574,3.13805L206.7294,83.51677a4.08493,4.08493,0,0,0,3.54573-3.95313v-.00015a3.09805,3.09805,0,0,0-3.54573-3.13805l-4.64745.53406a2.87694,2.87694,0,0,1-3.29256-2.91422A3.79326,3.79326,0,0,1,202.082,70.37408Z" style="fill:url(#d)"/><path d="M215.77337,68.28235h0a2.679,2.679,0,0,1-3.066-2.71355h0a3.53229,3.53229,0,0,1,3.066-3.41832h0a2.679,2.679,0,0,1,3.066,2.71356h0A3.53227,3.53227,0,0,1,215.77337,68.28235Z" style="fill:url(#e)"/><path d="M156.40322,99.43294q-2.52333-2.67541-7.16154-2.29239a10.03056,10.03056,0,0,0-7.24751,3.5415,12.29238,12.29238,0,0,0-2.60807,8.09421q0,4.93475,2.69585,7.59723a8.76313,8.76313,0,0,0,7.24735,2.28574,9.85089,9.85089,0,0,0,7.07392-3.38336,12.18054,12.18054,0,0,0,2.52227-8.08574Q158.92549,102.1126,156.40322,99.43294Zm-7.27641,12.31823a3.26163,3.26163,0,0,1-2.60974-.679,3.85319,3.85319,0,0,1-.86892-2.87109,4.51716,4.51716,0,0,1,.8399-3.014,3.81252,3.81252,0,0,1,2.66767-1.11488,3.25942,3.25942,0,0,1,2.63808.64847,3.99718,3.99718,0,0,1,.81171,2.87624Q152.60551,111.46431,149.12681,111.75117Z" style="fill:url(#f)"/><path d="M156.40322,99.43294q-2.52333-2.67541-7.16154-2.29239a10.03056,10.03056,0,0,0-7.24751,3.5415,12.29238,12.29238,0,0,0-2.60807,8.09421q0,4.93475,2.69585,7.59723a8.76313,8.76313,0,0,0,7.24735,2.28574,9.85089,9.85089,0,0,0,7.07392-3.38336,12.18054,12.18054,0,0,0,2.52227-8.08574Q158.92549,102.1126,156.40322,99.43294Zm-7.27641,12.31823a3.26163,3.26163,0,0,1-2.60974-.679,3.85319,3.85319,0,0,1-.86892-2.87109,4.51716,4.51716,0,0,1,.8399-3.014,3.81252,3.81252,0,0,1,2.66767-1.11488,3.25942,3.25942,0,0,1,2.63808.64847,3.99718,3.99718,0,0,1,.81171,2.87624Q152.60551,111.46431,149.12681,111.75117Z" style="mix-blend-mode:multiply;fill:url(#g)"/><path d="M161.86226,98.99665q1.22627-2.2691,2.41074-2.36489a7.72282,7.72282,0,0,1,3.453.93812q2.26705,1.03671,2.26773,2.44539a4.21908,4.21908,0,0,1-.66072,1.84309l-15.829,31.619-.19023.29979q-1.04079,1.96536-2.17466,2.05964a7.90809,7.90809,0,0,1-3.403-.89377q-2.26909-.99108-2.27045-2.11791a4.71227,4.71227,0,0,1,.66193-2.31207Z" style="fill:url(#h)"/><path d="M161.86226,98.99665q1.22627-2.2691,2.41074-2.36489a7.72282,7.72282,0,0,1,3.453.93812q2.26705,1.03671,2.26773,2.44539a4.21908,4.21908,0,0,1-.66072,1.84309l-15.829,31.619-.19023.29979q-1.04079,1.96536-2.17466,2.05964a7.90809,7.90809,0,0,1-3.403-.89377q-2.26909-.99108-2.27045-2.11791a4.71227,4.71227,0,0,1,.66193-2.31207Z" style="mix-blend-mode:multiply;fill:url(#i)"/><path d="M173.20442,112.38011q-2.4941-2.68043-7.16067-2.29406a10.05873,10.05873,0,0,0-7.27652,3.54664,12.28,12.28,0,0,0-2.609,8.09088q0,4.93454,2.69581,7.62614a8.74684,8.74684,0,0,0,7.27641,2.31449,9.78666,9.78666,0,0,0,7.07395-3.385,12.31541,12.31541,0,0,0,2.49318-8.11282Q175.6976,115.06068,173.20442,112.38011ZM165.89908,124.758a3.16678,3.16678,0,0,1-2.581-.6807,4.009,4.009,0,0,1-.8399-2.90514,4.66547,4.66547,0,0,1,.811-3.03787,3.70008,3.70008,0,0,1,2.6388-1.11305,3.35678,3.35678,0,0,1,2.66683.645,3.89445,3.89445,0,0,1,.84077,2.87457Q169.43558,124.46445,165.89908,124.758Z" style="fill:url(#j)"/><path d="M99.458,107.6741a14.40315,14.40315,0,0,1,5.1986,11.04869,10.58058,10.58058,0,0,1-5.71117,9.69229v.50848a11.53791,11.53791,0,0,1,2.15968,1.38893,13.16973,13.16973,0,0,1,2.30662,2.1789,10.1949,10.1949,0,0,1,2.41589,6.79623,17.73462,17.73462,0,0,1-5.85706,13.34819,23.51243,23.51243,0,0,1-14.71685,6.28154q-8.78716.7264-14.64482-3.89092a16.17479,16.17479,0,0,1-3.87973-4.85326,11.23241,11.23241,0,0,1-.8054-1.82947l-.14679-.71611a12.38421,12.38421,0,0,1-.8054-3.86868q0-4.22719,7.17607-4.81982,2.92648-.2431,3.87973.40724a7.09882,7.09882,0,0,1,2.19725,3.60824q.73094,2.27318,4.02664,3.16559a9.95182,9.95182,0,0,0,3.07543.18342q3.88073-.32054,5.71131-2.03922a5.041,5.041,0,0,0,1.8305-3.68723,4.01754,4.01754,0,0,0-1.79406-3.31254,6.01614,6.01614,0,0,0-4.24653-1.14362,24.09492,24.09492,0,0,1-3.33163.12969,5.42637,5.42637,0,0,1-1.9045-.57038q-1.97676-.78405-1.97629-5.4489,0-5.10092,2.70874-6.27352a15.18761,15.18761,0,0,1,3.80782-.67964q5.56422-.46035,5.56437-3.30239A3.6626,3.6626,0,0,0,90.2326,117.183a5.31673,5.31673,0,0,0-4.06405-1.04934,8.873,8.873,0,0,0-4.13715,1.21656,4.72665,4.72665,0,0,0-1.90332,1.9065l-.43962.91057q-1.68525,3.78524-4.83207,4.04393a7.50285,7.50285,0,0,1-4.02668-.97958q-3.66356-1.80965-3.662-4.5798a18.0911,18.0911,0,0,1,1.68464-5.0963,15.18548,15.18548,0,0,1,1.61064-2.42814,17.52637,17.52637,0,0,1,3.03892-3.13018A19.8077,19.8077,0,0,1,78.334,105.339a23.13679,23.13679,0,0,1,6.91971-1.59233Q94.25838,103.00213,99.458,107.6741Z" style="fill:url(#k)"/><path d="M99.458,107.6741a14.40315,14.40315,0,0,1,5.1986,11.04869,10.58058,10.58058,0,0,1-5.71117,9.69229v.50848a11.53791,11.53791,0,0,1,2.15968,1.38893,13.16973,13.16973,0,0,1,2.30662,2.1789,10.1949,10.1949,0,0,1,2.41589,6.79623,17.73462,17.73462,0,0,1-5.85706,13.34819,23.51243,23.51243,0,0,1-14.71685,6.28154q-8.78716.7264-14.64482-3.89092a16.17479,16.17479,0,0,1-3.87973-4.85326,11.23241,11.23241,0,0,1-.8054-1.82947l-.14679-.71611a12.38421,12.38421,0,0,1-.8054-3.86868q0-4.22719,7.17607-4.81982,2.92648-.2431,3.87973.40724a7.09882,7.09882,0,0,1,2.19725,3.60824q.73094,2.27318,4.02664,3.16559a9.95182,9.95182,0,0,0,3.07543.18342q3.88073-.32054,5.71131-2.03922a5.041,5.041,0,0,0,1.8305-3.68723,4.01754,4.01754,0,0,0-1.79406-3.31254,6.01614,6.01614,0,0,0-4.24653-1.14362,24.09492,24.09492,0,0,1-3.33163.12969,5.42637,5.42637,0,0,1-1.9045-.57038q-1.97676-.78405-1.97629-5.4489,0-5.10092,2.70874-6.27352a15.18761,15.18761,0,0,1,3.80782-.67964q5.56422-.46035,5.56437-3.30239A3.6626,3.6626,0,0,0,90.2326,117.183a5.31673,5.31673,0,0,0-4.06405-1.04934,8.873,8.873,0,0,0-4.13715,1.21656,4.72665,4.72665,0,0,0-1.90332,1.9065l-.43962.91057q-1.68525,3.78524-4.83207,4.04393a7.50285,7.50285,0,0,1-4.02668-.97958q-3.66356-1.80965-3.662-4.5798a18.0911,18.0911,0,0,1,1.68464-5.0963,15.18548,15.18548,0,0,1,1.61064-2.42814,17.52637,17.52637,0,0,1,3.03892-3.13018A19.8077,19.8077,0,0,1,78.334,105.339a23.13679,23.13679,0,0,1,6.91971-1.59233Q94.25838,103.00213,99.458,107.6741Z" style="mix-blend-mode:multiply;fill:url(#l)"/><path d="M104.58626,108.24341a18.78178,18.78178,0,0,1,5.96752-5.45,20.18141,20.18141,0,0,1,8.89613-2.73913,18.0097,18.0097,0,0,1,8.82318,1.2379,15.11634,15.11634,0,0,1,5.93,4.39336,22.11409,22.11409,0,0,1,3.4787,6.56317,41.9277,41.9277,0,0,1,2.19615,13.73819q0,13.19232-5.71026,21.38944a18.0705,18.0705,0,0,1-5.89458,5.29787,20.44567,20.44567,0,0,1-8.75024,2.61761,18.59017,18.59017,0,0,1-8.82227-1.20143,14.99974,14.99974,0,0,1-6.004-4.27789,22.297,22.297,0,0,1-3.55149-6.48418,42.56013,42.56013,0,0,1-2.1232-14.036,41.08929,41.08929,0,0,1,1.721-12.6047A33.5569,33.5569,0,0,1,104.58626,108.24341ZM119.377,142.33168q7.53957-.62312,7.54169-14.90935v-.43554q0-14.651-7.46875-14.033-7.46831.61675-7.46784,15.30328Q111.98207,142.94443,119.377,142.33168Z" style="fill:url(#m)"/><path d="M74.4608,81.45637q.19629,3.28272,5.30664,2.68067,5.11085-.60279,4.93457-3.55274a2.74168,2.74168,0,0,0-1.90039-2.36279A17.01115,17.01115,0,0,0,78.46373,77.056q-2.53125-.37061-5.07422-.95849a9.699,9.699,0,0,1-4.40234-2.25928,6.262,6.262,0,0,1-2.02735-4.47949q-.71631-11.93994,15.874-13.89551,6.06152-.7141,9.2959,1.03613a6.30116,6.30116,0,0,1,3.459,5.50781,9.14733,9.14733,0,0,1-.22754,2.68506,6.09383,6.09383,0,0,1-.6875,1.87793l-.37793.62012L85.20494,68.262A3.89728,3.89728,0,0,0,86.16978,65.37q-.186-3.0923-4.55175-2.57715-5.49611.6482-5.30176,3.88232a2.67745,2.67745,0,0,0,1.90039,2.3628,15.306,15.306,0,0,0,4.32715.998q2.52392.25416,5.08886.76612a9.16417,9.16417,0,0,1,4.42481,2.18506,6.51762,6.51762,0,0,1,2.03809,4.66992q.36182,6.041-3.36622,9.42627Q86.99987,90.47,78.8856,91.4261q-8.11522.95655-11.2539-1.356a6.668,6.668,0,0,1-2.53906-5.25732,15.44314,15.44314,0,0,1,.13378-2.93848l.1084-.77832,9.2461-1.08984-.06934.58252A4.11705,4.11705,0,0,0,74.4608,81.45637Z" style="fill:#fff"/><path d="M115.26256,86.46614l-.13867-7.50391-8.57715,1.01123-2.07129,7.76465-9.80957,1.15674,11.14746-35.80566,16.95117-1.998,2.25781,34.22461Zm-3.65918-25.67627-3.333,12.56152,6.72852-.79345-.16016-12.14942Z" style="fill:#fff"/><path d="M152.038,82.13069l-23.42188,2.76123,4.47071-35.01807,9.24609-1.08984-3.47754,27.42822,14.17676-1.67138Z" style="fill:#fff"/><path d="M180.64732,78.75764l-25.78418,3.03955,4.47168-35.01806L185.118,43.73958l-.99219,7.58886-16.54,1.9502-.7959,6.5625L180.453,58.22981l-.99414,7.58984-13.66309,1.61084-.69336,5.6875,16.53906-1.95019Z" style="fill:#fff"/><path d="M111.453,162.1634a6.19695,6.19695,0,0,1,6.79785,6.32569,7.614,7.614,0,0,1-1.93067,5.15185,6.85422,6.85422,0,0,1-4.75585,2.45459,5.96508,5.96508,0,0,1-4.80176-1.63623,6.17606,6.17606,0,0,1-1.97852-4.68115,7.74638,7.74638,0,0,1,.55762-2.9209,7.43849,7.43849,0,0,1,1.48633-2.37011,7.80119,7.80119,0,0,1,2.13476-1.59913A6.62238,6.62238,0,0,1,111.453,162.1634Zm-3.38086,7.25a3.2567,3.2567,0,0,0,1.06836,2.584,3.11113,3.11113,0,0,0,2.38574.8291,3.69762,3.69762,0,0,0,2.37793-1.19482,3.79848,3.79848,0,0,0,1.05859-2.76905,3.27649,3.27649,0,0,0-1.06738-2.61132,3.12852,3.12852,0,0,0-2.38672-.81885,3.655,3.655,0,0,0-2.37793,1.22168A3.85091,3.85091,0,0,0,108.07213,169.4134Z"/><path d="M128.46764,160.92366a5.4301,5.4301,0,0,1,.6416-.02539,1.30657,1.30657,0,0,1,.48242.13574.734.734,0,0,1,.38086.46729,3.12811,3.12811,0,0,1,.1123.93457,3.30131,3.30131,0,0,1-.1123.95117.86688.86688,0,0,1-.39063.52295,1.7237,1.7237,0,0,1-.49121.20752,5.88261,5.88261,0,0,1-.66015.082l-5.6836.46972v1.86719l3.65918-.30273a5.59188,5.59188,0,0,1,.65918-.02588,1.39779,1.39779,0,0,1,.49219.13476q.48341.23731.4834,1.42041,0,1.29493-.70606,1.59327a3.60651,3.60651,0,0,1-.94629.16992l-3.6416.30127v3.49511a5.36433,5.36433,0,0,1-.02832.64991,1.61123,1.61123,0,0,1-.17578.49463q-.26074.52148-1.44922.61914-1.30078.10765-1.52344-.57618a2.8383,2.8383,0,0,1-.11132-.93408V163.29573a1.89884,1.89884,0,0,1,.35351-1.31445,2.08976,2.08976,0,0,1,1.33692-.45264Z"/><path d="M140.29967,159.94563a5.55871,5.55871,0,0,1,.6416-.02588,1.31355,1.31355,0,0,1,.48242.13623.73573.73573,0,0,1,.38086.46729,3.16154,3.16154,0,0,1,.11133.93408,3.3444,3.3444,0,0,1-.11133.95166.868.868,0,0,1-.39063.52246,1.7206,1.7206,0,0,1-.49121.20752,5.68635,5.68635,0,0,1-.66015.082l-5.6836.47022v1.86718l3.65918-.30273a5.59012,5.59012,0,0,1,.65918-.02588,1.39272,1.39272,0,0,1,.49219.13477q.48341.2373.48242,1.41992,0,1.29492-.70508,1.59375a3.60683,3.60683,0,0,1-.94726.16992l-3.64063.30127v3.49512a5.35472,5.35472,0,0,1-.02832.64941,1.64409,1.64409,0,0,1-.17578.49512q-.2622.52147-1.44922.61865-1.30077.10767-1.52343-.57617a2.80411,2.80411,0,0,1-.11231-.93408V162.31721a1.90246,1.90246,0,0,1,.35352-1.314,2.0901,2.0901,0,0,1,1.33789-.45264Z"/><path d="M111.453,162.1634a6.19695,6.19695,0,0,1,6.79785,6.32569,7.614,7.614,0,0,1-1.93067,5.15185,6.85422,6.85422,0,0,1-4.75585,2.45459,5.96508,5.96508,0,0,1-4.80176-1.63623,6.17606,6.17606,0,0,1-1.97852-4.68115,7.74638,7.74638,0,0,1,.55762-2.9209,7.43849,7.43849,0,0,1,1.48633-2.37011,7.80119,7.80119,0,0,1,2.13476-1.59913A6.62238,6.62238,0,0,1,111.453,162.1634Zm-3.38086,7.25a3.2567,3.2567,0,0,0,1.06836,2.584,3.11113,3.11113,0,0,0,2.38574.8291,3.69762,3.69762,0,0,0,2.37793-1.19482,3.79848,3.79848,0,0,0,1.05859-2.76905,3.27649,3.27649,0,0,0-1.06738-2.61132,3.12852,3.12852,0,0,0-2.38672-.81885,3.655,3.655,0,0,0-2.37793,1.22168A3.85091,3.85091,0,0,0,108.07213,169.4134Z" style="fill:url(#n)"/><path d="M128.46764,160.92366a5.4301,5.4301,0,0,1,.6416-.02539,1.30657,1.30657,0,0,1,.48242.13574.734.734,0,0,1,.38086.46729,3.12811,3.12811,0,0,1,.1123.93457,3.30131,3.30131,0,0,1-.1123.95117.86688.86688,0,0,1-.39063.52295,1.7237,1.7237,0,0,1-.49121.20752,5.88261,5.88261,0,0,1-.66015.082l-5.6836.46972v1.86719l3.65918-.30273a5.59188,5.59188,0,0,1,.65918-.02588,1.39779,1.39779,0,0,1,.49219.13476q.48341.23731.4834,1.42041,0,1.29493-.70606,1.59327a3.60651,3.60651,0,0,1-.94629.16992l-3.6416.30127v3.49511a5.36433,5.36433,0,0,1-.02832.64991,1.61123,1.61123,0,0,1-.17578.49463q-.26074.52148-1.44922.61914-1.30078.10765-1.52344-.57618a2.8383,2.8383,0,0,1-.11132-.93408V163.29573a1.89884,1.89884,0,0,1,.35351-1.31445,2.08976,2.08976,0,0,1,1.33692-.45264Z" style="fill:url(#n)"/><path d="M140.29967,159.94563a5.55871,5.55871,0,0,1,.6416-.02588,1.31355,1.31355,0,0,1,.48242.13623.73573.73573,0,0,1,.38086.46729,3.16154,3.16154,0,0,1,.11133.93408,3.3444,3.3444,0,0,1-.11133.95166.868.868,0,0,1-.39063.52246,1.7206,1.7206,0,0,1-.49121.20752,5.68635,5.68635,0,0,1-.66015.082l-5.6836.47022v1.86718l3.65918-.30273a5.59012,5.59012,0,0,1,.65918-.02588,1.39272,1.39272,0,0,1,.49219.13477q.48341.2373.48242,1.41992,0,1.29492-.70508,1.59375a3.60683,3.60683,0,0,1-.94726.16992l-3.64063.30127v3.49512a5.35472,5.35472,0,0,1-.02832.64941,1.64409,1.64409,0,0,1-.17578.49512q-.2622.52147-1.44922.61865-1.30077.10767-1.52343-.57617a2.80411,2.80411,0,0,1-.11231-.93408V162.31721a1.90246,1.90246,0,0,1,.35352-1.314,2.0901,2.0901,0,0,1,1.33789-.45264Z" style="fill:url(#n)"/></g></svg>