<svg xmlns="http://www.w3.org/2000/svg" xmlns:xlink="http://www.w3.org/1999/xlink" viewBox="0 0 250 250"><defs><linearGradient id="a" x1="215.61517" y1="85.15539" x2="215.99523" y2="37.26576" gradientUnits="userSpaceOnUse"><stop offset="0" stop-color="#282426"/><stop offset="0.37554" stop-color="#2e2b2c"/><stop offset="0.90269" stop-color="#3d3d3d"/><stop offset="1" stop-color="#414141"/></linearGradient><radialGradient id="b" cx="-200.31883" cy="62.10738" r="20.71882" gradientTransform="translate(1140.79762 -178.37659) scale(4.9599 5.172)" gradientUnits="userSpaceOnUse"><stop offset="0" stop-color="#514643"/><stop offset="0.19106" stop-color="#5f5552" stop-opacity="0.91825"/><stop offset="0.46137" stop-color="#877f7d" stop-opacity="0.68973"/><stop offset="0.77743" stop-color="#c8c4c3" stop-opacity="0.31675"/><stop offset="1" stop-color="#fff" stop-opacity="0"/></radialGradient><linearGradient id="c" x1="78.14813" y1="327.79257" x2="113.90422" y2="382.47838" gradientTransform="matrix(0.9639, -0.2663, 0.2663, 0.9639, -35.4846, -150.30831)" xlink:href="#a"/><radialGradient id="d" cx="5.59788" cy="71.61396" r="108.86624" gradientTransform="translate(123.18435 72.85895) scale(1.2021 0.16297)" gradientUnits="userSpaceOnUse"><stop offset="0.12619" stop-color="#515151"/><stop offset="0.31273" stop-color="#696969" stop-opacity="0.85959"/><stop offset="0.64443" stop-color="#ababab" stop-opacity="0.48529"/><stop offset="1" stop-color="#fff" stop-opacity="0"/></radialGradient><linearGradient id="e" x1="121.10244" y1="87.32343" x2="121.50227" y2="36.94313" xlink:href="#a"/><linearGradient id="f" x1="155.37142" y1="114.7692" x2="142.31077" y2="100.15899" gradientUnits="userSpaceOnUse"><stop offset="0" stop-color="#a9141d"/><stop offset="0.28128" stop-color="#b0141e"/><stop offset="0.67604" stop-color="#c2161f"/><stop offset="1" stop-color="#d61721"/></linearGradient><radialGradient id="g" cx="158.79349" cy="116.72565" r="10.30119" gradientTransform="translate(161.7033 -130.67174) rotate(40.6009) scale(1 1.62546)" gradientUnits="userSpaceOnUse"><stop offset="0.12823" stop-color="#514444"/><stop offset="0.29576" stop-color="#625656" stop-opacity="0.90484"/><stop offset="0.55167" stop-color="#8f8787" stop-opacity="0.64292"/><stop offset="0.86248" stop-color="#d9d6d6" stop-opacity="0.21716"/><stop offset="1" stop-color="#fff" stop-opacity="0"/></radialGradient><linearGradient id="h" x1="145.46548" y1="116.2341" x2="169.99358" y2="116.2341" xlink:href="#f"/><radialGradient id="i" cx="161.62292" cy="118.75664" r="9.38606" gradientTransform="translate(165.90164 -199.93979) rotate(31.2395) scale(1 2.31319)" gradientUnits="userSpaceOnUse"><stop offset="0.17865" stop-color="#514444"/><stop offset="0.3365" stop-color="#625656" stop-opacity="0.90484"/><stop offset="0.57761" stop-color="#8f8787" stop-opacity="0.64292"/><stop offset="0.87043" stop-color="#d9d6d6" stop-opacity="0.21716"/><stop offset="1" stop-color="#fff" stop-opacity="0"/></radialGradient><linearGradient id="j" x1="160.42822" y1="130.56911" x2="171.65248" y2="111.12812" xlink:href="#f"/><linearGradient id="k" x1="102.11375" y1="151.0539" x2="70.2706" y2="119.21075" xlink:href="#f"/><radialGradient id="l" cx="108.85069" cy="136.67159" r="24.55694" gradientTransform="translate(0 -124.57752) scale(1 1.91151)" gradientUnits="userSpaceOnUse"><stop offset="0.06538" stop-color="#514444"/><stop offset="0.24499" stop-color="#625656" stop-opacity="0.90484"/><stop offset="0.51935" stop-color="#8f8787" stop-opacity="0.64292"/><stop offset="0.85256" stop-color="#d9d6d6" stop-opacity="0.21716"/><stop offset="1" stop-color="#fff" stop-opacity="0"/></radialGradient><linearGradient id="m" x1="100.39646" y1="127.67383" x2="141.25357" y2="127.67383" xlink:href="#f"/><linearGradient id="n" x1="115.37723" y1="179.63711" x2="130.36899" y2="153.67063" xlink:href="#f"/></defs><g style="isolation:isolate"><path d="M215.77341,68.28232h0a2.679,2.679,0,0,1-3.066-2.71356h0a3.53228,3.53228,0,0,1,3.066-3.41831h0a2.679,2.679,0,0,1,3.066,2.71356h0A3.53228,3.53228,0,0,1,215.77341,68.28232Z" style="fill:url(#a)"/><ellipse cx="147.23616" cy="142.84268" rx="102.76368" ry="107.15732" style="mix-blend-mode:multiply;fill:url(#b)"/><path d="M131.01512,202.064c27.5198-1.33627,63.762-11.9355,68.496-43.04494,4.73416-31.10958-21.88309-71.90525-56.207-66.99176-39.62345,5.67227-76.19692,51.702-76.60173,74.46188C66.20573,194.42209,111.50708,203.01117,131.01512,202.064Z" style="fill:url(#c)"/><path d="M94.09207,83.12887c-26.57534,13.79918-55.88829,39.33818-40.598,67.445,15.29014,28.10683,68.065,49.83375,99.12239,29.91708,35.85282-22.99177,42.70716-78.20889,28.47139-97.36209C163.61669,59.62243,112.93049,73.347,94.09207,83.12887Z" style="fill:#fff"/><path d="M94.09207,83.12887c-26.57534,13.79918-55.88829,39.33818-40.598,67.445,15.29014,28.10683,68.065,49.83375,99.12239,29.91708,35.85282-22.99177,42.70716-78.20889,28.47139-97.36209C163.61669,59.62243,112.93049,73.347,94.09207,83.12887Z" style="mix-blend-mode:multiply;fill:url(#d)"/><path d="M202.082,70.37405l4.9772-.5728a4.08481,4.08481,0,0,0,3.54574-3.95312,3.09816,3.09816,0,0,0-3.54574-3.1382l-9.22921.961a2.87706,2.87706,0,0,1-3.29271-2.91422h0a3.7934,3.7934,0,0,1,3.29271-3.671l11.33184-1.43086a4.085,4.085,0,0,0,3.54558-3.95328,3.09811,3.09811,0,0,0-3.54558-3.1382l-6.34828.93388a2.87732,2.87732,0,0,1-3.29271-2.91438,3.79338,3.79338,0,0,1,3.29271-3.671l1.30873-.11138a4.08482,4.08482,0,0,0,3.54574-3.95313,3.09817,3.09817,0,0,0-3.54574-3.1382L33.54574,55.67414A4.08494,4.08494,0,0,0,30,59.62727a3.09817,3.09817,0,0,0,3.54574,3.1382l7.94863-.91345a2.877,2.877,0,0,1,3.29271,2.91422,3.79337,3.79337,0,0,1-3.29271,3.67105,4.085,4.085,0,0,0-3.54559,3.95328,3.09807,3.09807,0,0,0,3.54559,3.138l9.81184-1.35307a2.87707,2.87707,0,0,1,3.29271,2.91423v.00015a3.79321,3.79321,0,0,1-3.29271,3.67089l-7.29593.939A4.08494,4.08494,0,0,0,40.46455,85.653a3.09816,3.09816,0,0,0,3.54573,3.1382l4.426-.60912a2.877,2.877,0,0,1,3.29258,2.91423,3.7934,3.7934,0,0,1-3.29258,3.67119l-4.64745.53406a4.08493,4.08493,0,0,0-3.54574,3.95313v.00015a3.098,3.098,0,0,0,3.54574,3.138l162.94055-18.8761a4.08494,4.08494,0,0,0,3.54574-3.95313v-.00015a3.09806,3.09806,0,0,0-3.54574-3.13805l-4.64745.53406a2.87707,2.87707,0,0,1-3.29271-2.91423A3.79339,3.79339,0,0,1,202.082,70.37405Z" style="fill:url(#e)"/><path d="M156.40324,99.43292q-2.52356-2.67543-7.16154-2.2924a10.03056,10.03056,0,0,0-7.24751,3.5415,12.29238,12.29238,0,0,0-2.60807,8.09421q0,4.93476,2.6957,7.59724a8.76357,8.76357,0,0,0,7.2475,2.28573,9.85112,9.85112,0,0,0,7.07392-3.38335,12.18074,12.18074,0,0,0,2.52227-8.08574Q158.92551,102.11258,156.40324,99.43292Zm-7.27641,12.31822a3.26216,3.26216,0,0,1-2.60989-.679,3.85385,3.85385,0,0,1-.8688-2.87109,4.51713,4.51713,0,0,1,.8399-3.014,3.81266,3.81266,0,0,1,2.66773-1.11487,3.2587,3.2587,0,0,1,2.63786.64846,3.99646,3.99646,0,0,1,.8119,2.87624Q152.60553,111.4643,149.12683,111.75114Z" style="fill:url(#f)"/><path d="M156.40324,99.43292q-2.52356-2.67543-7.16154-2.2924a10.03056,10.03056,0,0,0-7.24751,3.5415,12.29238,12.29238,0,0,0-2.60807,8.09421q0,4.93476,2.6957,7.59724a8.76357,8.76357,0,0,0,7.2475,2.28573,9.85112,9.85112,0,0,0,7.07392-3.38335,12.18074,12.18074,0,0,0,2.52227-8.08574Q158.92551,102.11258,156.40324,99.43292Zm-7.27641,12.31822a3.26216,3.26216,0,0,1-2.60989-.679,3.85385,3.85385,0,0,1-.8688-2.87109,4.51713,4.51713,0,0,1,.8399-3.014,3.81266,3.81266,0,0,1,2.66773-1.11487,3.2587,3.2587,0,0,1,2.63786.64846,3.99646,3.99646,0,0,1,.8119,2.87624Q152.60553,111.4643,149.12683,111.75114Z" style="mix-blend-mode:multiply;fill:url(#g)"/><path d="M161.86229,98.99662q1.226-2.26909,2.41058-2.36488a7.72241,7.72241,0,0,1,3.453.93811q2.267,1.03671,2.2677,2.4454a4.2188,4.2188,0,0,1-.66054,1.84308l-15.82919,31.619-.19008.29979q-1.04079,1.96536-2.17481,2.05964a7.90756,7.90756,0,0,1-3.40288-.89377q-2.26909-.99108-2.2706-2.11791a4.71224,4.71224,0,0,1,.66211-2.31207Z" style="fill:url(#h)"/><path d="M161.86229,98.99662q1.226-2.26909,2.41058-2.36488a7.72241,7.72241,0,0,1,3.453.93811q2.267,1.03671,2.2677,2.4454a4.2188,4.2188,0,0,1-.66054,1.84308l-15.82919,31.619-.19008.29979q-1.04079,1.96536-2.17481,2.05964a7.90756,7.90756,0,0,1-3.40288-.89377q-2.26909-.99108-2.2706-2.11791a4.71224,4.71224,0,0,1,.66211-2.31207Z" style="mix-blend-mode:multiply;fill:url(#i)"/><path d="M173.20441,112.38008q-2.49427-2.68041-7.16078-2.29406a10.05884,10.05884,0,0,0-7.27641,3.54665,12.28022,12.28022,0,0,0-2.609,8.09088q0,4.93453,2.69585,7.62614a8.74665,8.74665,0,0,0,7.27641,2.31449,9.78681,9.78681,0,0,0,7.07392-3.385,12.31521,12.31521,0,0,0,2.49322-8.11283Q175.69763,115.06065,173.20441,112.38008ZM165.899,124.75794a3.16626,3.16626,0,0,1-2.58084-.6807,4.009,4.009,0,0,1-.8399-2.90515,4.66536,4.66536,0,0,1,.811-3.03786,3.70015,3.70015,0,0,1,2.63883-1.11306,3.35682,3.35682,0,0,1,2.66676.645,3.89446,3.89446,0,0,1,.84081,2.87457Q169.43561,124.46443,165.899,124.75794Z" style="fill:url(#j)"/><path d="M101.4912,143.91491a9.33473,9.33473,0,0,1,4.28289.33838,3.102,3.102,0,0,1,1.72114,1.97127,12.54076,12.54076,0,0,1,.43959,3.68118,12.01253,12.01253,0,0,1-.47609,3.71978,3.4128,3.4128,0,0,1-1.57417,2.025,10.19241,10.19241,0,0,1-4.53924,1.25046l-28.62938,2.3664a5.63381,5.63381,0,0,1-4.53909-1.59248,5.88129,5.88129,0,0,1-1.90453-4.43437,12.02455,12.02455,0,0,1,2.74624-7.47889,29.77982,29.77982,0,0,1,6.626-6.233q3.88078-2.68791,7.76158-5.30514a33.84408,33.84408,0,0,0,6.626-5.7599,9.73544,9.73544,0,0,0,2.74624-6.42137,4.91575,4.91575,0,0,0-.51256-1.8163,7.4336,7.4336,0,0,0-1.13455-1.874,5.15261,5.15261,0,0,0-1.94085-1.26015,8.05716,8.05716,0,0,0-3.66105-.35352,6.08856,6.08856,0,0,0-4.06315,2.0483,6.6902,6.6902,0,0,0-1.94085,3.54952l-.29268,1.70083v.43751a19.55766,19.55766,0,0,1-.10938,2.413,5.63681,5.63681,0,0,1-.696,1.88016q-1.09869,1.84007-5.71132,2.22142-5.12521.424-6.07694-2.26712a13.20293,13.20293,0,0,1-.36668-3.68724,21.33952,21.33952,0,0,1,5.456-14.04312,20.07736,20.07736,0,0,1,14.27708-7.19226q8.82236-.72936,14.31477,4.90183a18.92691,18.92691,0,0,1,3.6609,21.45225,21.42076,21.42076,0,0,1-4.39336,6.33935,38.77182,38.77182,0,0,1-9.665,7.28534l-1.83037.88136v.3626Z" style="fill:url(#k)"/><path d="M101.4912,143.91491a9.33473,9.33473,0,0,1,4.28289.33838,3.102,3.102,0,0,1,1.72114,1.97127,12.54076,12.54076,0,0,1,.43959,3.68118,12.01253,12.01253,0,0,1-.47609,3.71978,3.4128,3.4128,0,0,1-1.57417,2.025,10.19241,10.19241,0,0,1-4.53924,1.25046l-28.62938,2.3664a5.63381,5.63381,0,0,1-4.53909-1.59248,5.88129,5.88129,0,0,1-1.90453-4.43437,12.02455,12.02455,0,0,1,2.74624-7.47889,29.77982,29.77982,0,0,1,6.626-6.233q3.88078-2.68791,7.76158-5.30514a33.84408,33.84408,0,0,0,6.626-5.7599,9.73544,9.73544,0,0,0,2.74624-6.42137,4.91575,4.91575,0,0,0-.51256-1.8163,7.4336,7.4336,0,0,0-1.13455-1.874,5.15261,5.15261,0,0,0-1.94085-1.26015,8.05716,8.05716,0,0,0-3.66105-.35352,6.08856,6.08856,0,0,0-4.06315,2.0483,6.6902,6.6902,0,0,0-1.94085,3.54952l-.29268,1.70083v.43751a19.55766,19.55766,0,0,1-.10938,2.413,5.63681,5.63681,0,0,1-.696,1.88016q-1.09869,1.84007-5.71132,2.22142-5.12521.424-6.07694-2.26712a13.20293,13.20293,0,0,1-.36668-3.68724,21.33952,21.33952,0,0,1,5.456-14.04312,20.07736,20.07736,0,0,1,14.27708-7.19226q8.82236-.72936,14.31477,4.90183a18.92691,18.92691,0,0,1,3.6609,21.45225,21.42076,21.42076,0,0,1-4.39336,6.33935,38.77182,38.77182,0,0,1-9.665,7.28534l-1.83037.88136v.3626Z" style="mix-blend-mode:multiply;fill:url(#l)"/><path d="M105.96189,108.2443a18.7996,18.7996,0,0,1,5.96662-5.44982,20.18331,20.18331,0,0,1,8.89616-2.73913,18.00813,18.00813,0,0,1,8.82315,1.23775,15.1208,15.1208,0,0,1,5.931,4.39336,22.12641,22.12641,0,0,1,3.47764,6.56333,41.89924,41.89924,0,0,1,2.19706,13.73818q0,13.19211-5.71117,21.3893a18.04793,18.04793,0,0,1-5.89458,5.298,20.44119,20.44119,0,0,1-8.74933,2.61762,18.59423,18.59423,0,0,1-8.82319-1.20144,15.007,15.007,0,0,1-6.004-4.27789,22.27107,22.27107,0,0,1-3.55059-6.48417,42.53548,42.53548,0,0,1-2.12426-14.036,41.08771,41.08771,0,0,1,1.72111-12.6047A33.55845,33.55845,0,0,1,105.96189,108.2443Zm14.7898,34.08827q7.54118-.62289,7.5417-14.90814v-.43766q0-14.64785-7.46872-14.03207-7.467.617-7.46788,15.30236Q113.35679,142.94442,120.75169,142.33257Z" style="fill:url(#m)"/><path d="M74.46052,81.45658q.19774,3.2827,5.30762,2.68066,5.11083-.602,4.93457-3.55176a2.74323,2.74323,0,0,0-1.90039-2.36328,17.07066,17.07066,0,0,0-4.3379-1.166q-2.53125-.37061-5.07519-.958a9.71921,9.71921,0,0,1-4.40234-2.25977,6.26223,6.26223,0,0,1-2.02735-4.47949q-.71484-11.93847,15.875-13.89551,6.06153-.71484,9.29492,1.03614a6.30392,6.30392,0,0,1,3.46,5.50781,9.1808,9.1808,0,0,1-.22753,2.68555,6.116,6.116,0,0,1-.68848,1.87793l-.377.61914-9.0918,1.07226a3.89211,3.89211,0,0,0,.96484-2.8916q-.18456-3.09228-4.55078-2.57715-5.49756.64746-5.30273,3.88184a2.676,2.676,0,0,0,1.90136,2.3623,15.29748,15.29748,0,0,0,4.32618.999q2.52391.25488,5.08984.76562a9.17641,9.17641,0,0,1,4.4248,2.18457,6.52643,6.52643,0,0,1,2.03809,4.6709q.36181,6.04248-3.36719,9.42676Q87.001,90.46976,78.8863,91.4263q-8.11669.95655-11.25488-1.35644A6.66921,6.66921,0,0,1,65.09235,84.813a15.44054,15.44054,0,0,1,.13477-2.9375l.1084-.77929,9.24512-1.08985-.06836.582A4.196,4.196,0,0,0,74.46052,81.45658Z" style="fill:#fff"/><path d="M115.26325,86.46634l-.13965-7.5039-8.57714,1.01172-2.06934,7.76464-9.81055,1.15625L105.814,53.08939l16.9502-1.998L125.023,85.316Zm-3.65918-25.67578-3.334,12.56055,6.72851-.793-.15918-12.14941Z" style="fill:#fff"/><path d="M152.03864,82.13041l-23.42187,2.76172,4.4707-35.01758,9.24512-1.09082L138.856,76.21244l14.17578-1.6709Z" style="fill:#fff"/><path d="M180.648,78.75736l-25.78418,3.04,4.4707-35.01758,25.78418-3.04-.99219,7.58985-16.54,1.95019-.79688,6.56152L180.45368,58.23l-.99414,7.58984-13.66308,1.61035-.69336,5.6875,16.53906-1.94922Z" style="fill:#fff"/><path d="M111.45368,162.16361a6.19694,6.19694,0,0,1,6.79785,6.32617,7.61281,7.61281,0,0,1-1.93066,5.15137,6.85865,6.85865,0,0,1-4.75586,2.45508,5.9688,5.9688,0,0,1-4.80176-1.63672,6.175,6.175,0,0,1-1.97851-4.68067,7.75315,7.75315,0,0,1,.55761-2.92187,7.434,7.434,0,0,1,1.48633-2.36914,7.79271,7.79271,0,0,1,2.13477-1.59961A6.61168,6.61168,0,0,1,111.45368,162.16361Zm-3.38183,7.25a3.25733,3.25733,0,0,0,1.06933,2.584,3.10811,3.10811,0,0,0,2.38574.82911,3.70375,3.70375,0,0,0,2.37793-1.19434,3.80355,3.80355,0,0,0,1.0586-2.76953,3.27964,3.27964,0,0,0-1.06738-2.61133,3.135,3.135,0,0,0-2.3877-.81934,3.65427,3.65427,0,0,0-2.37695,1.22266A3.84889,3.84889,0,0,0,108.07185,169.41361Z"/><path d="M128.46833,160.92435a5.47489,5.47489,0,0,1,.6416-.02637,1.33094,1.33094,0,0,1,.48242.13575.73619.73619,0,0,1,.38086.46777,3.13266,3.13266,0,0,1,.11133.93457,3.30567,3.30567,0,0,1-.11133.95117.86155.86155,0,0,1-.39062.52246,1.72391,1.72391,0,0,1-.49121.208,5.7981,5.7981,0,0,1-.66016.082l-5.68359.46973v1.86719l3.65918-.30274a5.616,5.616,0,0,1,.65918-.02637,1.38616,1.38616,0,0,1,.49218.13575c.32227.15722.4834.63183.4834,1.41992q0,1.29492-.70605,1.59375a3.66926,3.66926,0,0,1-.94727.16992l-3.64062.30078v3.49512a5.3512,5.3512,0,0,1-.02832.64941,1.63561,1.63561,0,0,1-.17578.49512q-.26222.52149-1.44922.61914-1.30078.10694-1.52344-.57617a2.81509,2.81509,0,0,1-.11133-.93457V163.29545a1.90432,1.90432,0,0,1,.35254-1.31446,2.09876,2.09876,0,0,1,1.33789-.45215Z"/><path d="M140.30036,159.94584a5.4152,5.4152,0,0,1,.64063-.02539,1.31572,1.31572,0,0,1,.4834.13574.73251.73251,0,0,1,.37988.46777,3.11659,3.11659,0,0,1,.1123.93359,3.31325,3.31325,0,0,1-.1123.95215.86589.86589,0,0,1-.38965.52246,1.75806,1.75806,0,0,1-.49121.207,5.80043,5.80043,0,0,1-.66016.082l-5.68359.46972v1.86719l3.65918-.30176a5.40242,5.40242,0,0,1,.65918-.02636,1.403,1.403,0,0,1,.49219.13476q.48339.2373.48242,1.41992,0,1.29492-.70508,1.59375a3.64447,3.64447,0,0,1-.94727.16993l-3.64062.30078v3.49511a5.3812,5.3812,0,0,1-.02832.65039,1.63277,1.63277,0,0,1-.17676.49512q-.26075.52-1.44824.61817-1.30079.10839-1.52344-.57618a2.79883,2.79883,0,0,1-.1123-.93359V162.31791a1.90394,1.90394,0,0,1,.35351-1.31446,2.08665,2.08665,0,0,1,1.33692-.45215Z"/><path d="M111.45368,162.16361a6.19694,6.19694,0,0,1,6.79785,6.32617,7.61281,7.61281,0,0,1-1.93066,5.15137,6.85865,6.85865,0,0,1-4.75586,2.45508,5.9688,5.9688,0,0,1-4.80176-1.63672,6.175,6.175,0,0,1-1.97851-4.68067,7.75315,7.75315,0,0,1,.55761-2.92187,7.434,7.434,0,0,1,1.48633-2.36914,7.79271,7.79271,0,0,1,2.13477-1.59961A6.61168,6.61168,0,0,1,111.45368,162.16361Zm-3.38183,7.25a3.25733,3.25733,0,0,0,1.06933,2.584,3.10811,3.10811,0,0,0,2.38574.82911,3.70375,3.70375,0,0,0,2.37793-1.19434,3.80355,3.80355,0,0,0,1.0586-2.76953,3.27964,3.27964,0,0,0-1.06738-2.61133,3.135,3.135,0,0,0-2.3877-.81934,3.65427,3.65427,0,0,0-2.37695,1.22266A3.84889,3.84889,0,0,0,108.07185,169.41361Z" style="fill:url(#n)"/><path d="M128.46833,160.92435a5.47489,5.47489,0,0,1,.6416-.02637,1.33094,1.33094,0,0,1,.48242.13575.73619.73619,0,0,1,.38086.46777,3.13266,3.13266,0,0,1,.11133.93457,3.30567,3.30567,0,0,1-.11133.95117.86155.86155,0,0,1-.39062.52246,1.72391,1.72391,0,0,1-.49121.208,5.7981,5.7981,0,0,1-.66016.082l-5.68359.46973v1.86719l3.65918-.30274a5.616,5.616,0,0,1,.65918-.02637,1.38616,1.38616,0,0,1,.49218.13575c.32227.15722.4834.63183.4834,1.41992q0,1.29492-.70605,1.59375a3.66926,3.66926,0,0,1-.94727.16992l-3.64062.30078v3.49512a5.3512,5.3512,0,0,1-.02832.64941,1.63561,1.63561,0,0,1-.17578.49512q-.26222.52149-1.44922.61914-1.30078.10694-1.52344-.57617a2.81509,2.81509,0,0,1-.11133-.93457V163.29545a1.90432,1.90432,0,0,1,.35254-1.31446,2.09876,2.09876,0,0,1,1.33789-.45215Z" style="fill:url(#n)"/><path d="M140.30036,159.94584a5.4152,5.4152,0,0,1,.64063-.02539,1.31572,1.31572,0,0,1,.4834.13574.73251.73251,0,0,1,.37988.46777,3.11659,3.11659,0,0,1,.1123.93359,3.31325,3.31325,0,0,1-.1123.95215.86589.86589,0,0,1-.38965.52246,1.75806,1.75806,0,0,1-.49121.207,5.80043,5.80043,0,0,1-.66016.082l-5.68359.46972v1.86719l3.65918-.30176a5.40242,5.40242,0,0,1,.65918-.02636,1.403,1.403,0,0,1,.49219.13476q.48339.2373.48242,1.41992,0,1.29492-.70508,1.59375a3.64447,3.64447,0,0,1-.94727.16993l-3.64062.30078v3.49511a5.3812,5.3812,0,0,1-.02832.65039,1.63277,1.63277,0,0,1-.17676.49512q-.26075.52-1.44824.61817-1.30079.10839-1.52344-.57618a2.79883,2.79883,0,0,1-.1123-.93359V162.31791a1.90394,1.90394,0,0,1,.35351-1.31446,2.08665,2.08665,0,0,1,1.33692-.45215Z" style="fill:url(#n)"/></g></svg>